<svg id="Layer_1" data-name="Layer 1" xmlns="http://www.w3.org/2000/svg" viewBox="0 0 41 26"><title>icons-fedict-expanded</title><rect x="4.54" y="9.17" width="8" height="2" rx="1" ry="1"/><rect x="16.29" y="9.17" width="8" height="2" rx="1" ry="1"/><rect x="28.04" y="9.17" width="8" height="2" rx="1" ry="1"/><rect x="4.54" y="12.88" width="8" height="2" rx="1" ry="1"/><rect x="16.29" y="12.88" width="8" height="2" rx="1" ry="1"/><rect x="28.04" y="12.88" width="8" height="2" rx="1" ry="1"/><rect x="4.58" y="16.58" width="8" height="2" rx="1" ry="1"/><rect x="16.32" y="16.58" width="8" height="2" rx="1" ry="1"/><rect x="28.07" y="16.58" width="8" height="2" rx="1" ry="1"/><rect x="4.58" y="20.29" width="8" height="2" rx="1" ry="1"/><rect x="16.32" y="20.29" width="8" height="2" rx="1" ry="1"/><rect x="28.07" y="20.29" width="8" height="2" rx="1" ry="1"/><path d="M38.5,0H2.5A2.5,2.5,0,0,0,0,2.5v21A2.5,2.5,0,0,0,2.5,26h36A2.5,2.5,0,0,0,41,23.5V2.5A2.5,2.5,0,0,0,38.5,0ZM40,2.41l0-.23A1.5,1.5,0,0,1,40,2.41ZM38.5,25H2.5A1.5,1.5,0,0,1,1,23.5V6.78H40V23.5A1.5,1.5,0,0,1,38.5,25Z"/></svg>