<svg width="56" height="56" viewBox="0 0 56 56" fill="none" xmlns="http://www.w3.org/2000/svg">
            <path d="M0 0H31.5L51 57H0V0Z" fill="#FFE615" />
            <path
                d="M31.5383 28.3825C30.142 27.3167 29.4881 28.3907 28.6101 28.3194C27.867 28.2605 27.1706 27.061 26.5955 27.3475C25.4981 27.9061 27.0356 29.8808 27.7025 30.2832C28.2968 30.6396 29.0446 30.9672 29.2242 31.0508C30.1064 31.4628 30.4574 32.0865 30.5684 33.0612C30.5965 33.2846 30.5684 33.7946 30.5136 34.0317C30.1112 35.7398 27.1185 37.2916 25.4 36.1174C24.5905 35.5636 23.8516 34.8474 23.5959 33.5793C23.1332 31.3346 21.5128 29.6834 20.9932 27.4867C20.6772 26.1522 20.4435 24.7436 20.0953 23.4009C19.7409 22.0129 19.3762 20.638 19.0856 19.3768C18.8203 18.2041 18.2631 16.4521 17.8593 15.3843C16.2176 11.099 15.476 11.4102 15.476 11.4102C15.476 11.4102 16.0737 12.6001 18.2473 23.1027C18.3371 23.5325 19.1274 28.1591 19.7039 29.6821C19.9102 30.2283 20.2708 31.3949 20.5072 31.9097C21.1989 33.4148 23.0242 35.6959 23.1449 37.7522C23.2141 38.9407 23.3498 39.9249 23.3779 40.8242C23.3951 41.0881 23.5116 42.1608 23.683 42.6371C24.1285 43.8914 27.7272 47.9381 31.5479 47.9381V44.8716C27.7519 44.8716 24.1758 42.7441 24.0874 42.5206C24.0326 42.4198 24.2848 40.9688 24.5419 40.3238C25.0395 39.075 25.9772 37.9331 27.6264 37.8111C29.4655 37.6788 30.5753 38.2128 31.5479 38.2128L31.5383 28.3825Z"
                fill="#363635" />
            <path
                d="M15.0523 17.2518C14.9131 19.5486 11.3586 22.6892 10.2448 24.7023C9.69917 25.6927 9.03294 27.3932 8.8609 28.3782C8.38796 31.1185 8.9877 32.8217 9.65599 34.4256C10.8322 37.2447 9.49697 38.2811 10.4161 37.7095C11.5546 36.7814 11.3819 34.6182 11.2976 33.2673C11.2318 32.1713 11.1577 30.9245 11.3243 29.6181C11.6396 27.1739 13.1201 24.5494 14.3833 22.716C15.8837 20.5281 15.3388 18.2655 15.0523 17.2518Z"
                fill="#363635" />
            <path
                d="M15.7693 23.7746C15.7693 23.7746 16.1483 25.5937 14.5431 30.2724C10.3449 42.5098 18.3643 43.6689 20.6474 46.5463C20.6474 46.5463 21.5309 45.2995 17.8941 41.3104C16.5657 39.8525 15.3676 36.6406 16.4115 32.0531C17.9208 25.4107 15.7693 23.7746 15.7693 23.7746Z"
                fill="#363635" />
            <path
                d="M7.82997 15.7518C7.63806 15.0287 7.5798 14.3824 7.62161 13.8052C7.81558 10.9299 10.427 9.76608 11.0775 9.33769C11.0775 9.33769 12.2516 8.53369 12.4031 7.72147C12.4031 7.72147 13.6053 10.7476 10.8486 12.4817C9.44961 13.3625 8.49963 14.3947 7.82997 15.7518Z"
                fill="#363635" />
            <path
                d="M14.415 12.9727C14.5638 13.2647 15.6461 14.8487 11.2135 18.5068C6.78978 22.16 8.17158 24.7722 8.17158 24.7722C8.17158 24.7722 3.44905 22.1456 8.88853 17.6075C14.3266 13.0728 13.2121 12.1536 13.2121 12.1536C13.2121 12.1536 13.9908 12.1159 14.415 12.9727"
                fill="#363635" />
            <path
                d="M22.5556 15.4479C22.62 15.2766 22.7126 15.4143 22.9065 15.2923C23.1128 15.097 23.3253 14.7769 23.6612 14.6693C23.9024 14.5953 24.2328 14.6302 24.4583 14.7173C24.6084 14.7543 24.5173 15.1402 24.4049 15.2389C24.1656 15.4157 23.4576 15.1244 23.4576 15.6549C23.4871 16.524 24.6331 15.6275 25.2322 15.6522C25.5248 17.7735 22.034 17.1896 22.5556 15.4479ZM20.1703 14.3732C20.936 14.4733 21.4233 16.8619 23.1944 17.3808C24.4967 17.7612 25.8812 17.5549 26.1883 18.3383C25.5906 18.6557 26.0615 19.7064 26.6626 19.5344C27.1589 18.1389 27.4084 12.7453 20.1703 14.3732Z"
                fill="#363635" />
        </svg>