<svg width="335" height="144" viewBox="0 0 335 144" fill="none" xmlns="http://www.w3.org/2000/svg">
<rect width="335" height="144" fill="#E8EBEE"/>
<rect x="20.5" y="20.5" width="21" height="21" rx="10.5" fill="#0055CC" stroke="#0055CC"/>
<path d="M27.371 25.9419L32.4855 30.9436L27.4838 36.0205L28.5744 37.0735L34.6291 30.906L28.424 24.8513L27.371 25.9419Z" fill="white"/>
<path fill-rule="evenodd" clip-rule="evenodd" d="M311.324 36.9893L297.653 23.2094C295.143 20.6784 290.285 19.3715 286.871 20.2979L268.195 25.3434C264.765 26.2698 261.22 29.8429 260.301 33.3003L255.296 52.1423C254.377 55.5996 255.673 60.4962 258.184 63.0107L271.855 76.7906C274.366 79.3216 279.223 80.6285 282.637 79.7021L301.313 74.6566C304.743 73.7302 308.288 70.1571 309.207 66.6997L314.213 47.8577C315.132 44.4004 313.835 39.5038 311.324 36.9893Z" fill="white"/>
<path fill-rule="evenodd" clip-rule="evenodd" d="M311.324 36.9893L297.653 23.2094C295.143 20.6784 290.285 19.3715 286.871 20.2979L268.195 25.3434C264.765 26.2698 261.22 29.8429 260.301 33.3003L255.296 52.1423C254.377 55.5996 255.673 60.4962 258.184 63.0107L271.855 76.7906C274.366 79.3216 279.223 80.6285 282.637 79.7021L301.313 74.6566C304.743 73.7302 308.288 70.1571 309.207 66.6997L314.213 47.8577C315.132 44.4004 313.835 39.5038 311.324 36.9893ZM269.574 30.0249C270.886 30.0249 271.92 31.0671 271.92 32.3905C271.92 33.6808 270.886 34.723 269.574 34.723C268.261 34.723 267.259 33.6808 267.259 32.3905C267.259 31.0671 268.326 30.0249 269.574 30.0249ZM267.342 37.4525C267.342 36.9893 267.719 36.6088 268.179 36.6088H270.772C271.247 36.6088 271.625 36.9893 271.609 37.469L271.526 44.9132C271.526 46.584 272.593 47.2126 273.791 47.2126C274.924 47.2126 275.925 46.6336 276.04 45.1779L276.122 33.383C276.122 32.6717 276.696 32.1093 277.402 32.1093H279.125C279.831 32.1093 280.405 32.6883 280.405 33.3996L280.389 35.4012C280.75 35.1862 281.144 35.0538 281.57 35.0538C282.883 35.0538 283.917 36.096 283.917 37.4194C283.917 38.7097 282.883 39.7685 281.57 39.7685C281.111 39.7685 280.7 39.6361 280.356 39.4211L280.323 44.9132C280.323 46.5509 281.357 47.1795 282.522 47.2126C284.13 47.2126 284.935 46.2862 284.935 46.2862C285.296 45.9223 285.788 45.6907 286.379 45.6907C287.101 45.7072 287.807 46.0712 288.135 46.7329C288.414 47.3118 289.021 47.7089 289.989 47.775C291.155 47.8577 291.926 47.4276 291.992 46.5343C292.057 45.6245 291.532 45.2771 289.366 44.5823C286.215 43.5071 284.13 42.6634 284.36 39.5369C284.59 36.6088 286.986 34.905 290.777 35.2027C292.943 35.3681 294.47 36.1622 295.405 37.3367C296.439 38.6436 295.438 40.579 293.78 40.546C293.042 40.5294 292.369 40.1158 292.057 39.4376C291.811 38.9082 291.302 38.5609 290.465 38.4947C289.333 38.412 288.709 38.8421 288.644 39.6527C288.562 40.7114 289.694 40.943 291.466 41.555C294.42 42.5807 296.488 43.689 296.275 46.4682C296.045 49.5616 293.633 51.3648 289.694 51.067C288.233 50.9512 287.035 50.6038 286.083 50.0414C284.721 50.8189 283.376 51.067 281.521 51.067C279.683 51.067 278.173 50.5707 277.205 49.512C276.45 50.4053 275.367 51.067 273.758 51.067C269.951 51.067 267.177 49.4624 267.21 45.9223L267.342 37.4525ZM304.251 60C304.251 60.7609 303.644 61.373 302.889 61.373H293.83C293.912 63.2588 295.06 64.483 296.997 64.483C298.129 64.483 298.95 64.1356 299.426 63.507C299.836 62.8949 300.575 62.5806 301.297 62.6798C302.938 62.8949 303.644 64.9793 302.413 66.1041C302.347 66.1703 302.282 66.2199 302.199 66.2696V66.2861C302.15 66.3192 302.101 66.3523 302.052 66.4019C302.003 66.435 301.97 66.4681 301.92 66.5012C300.657 67.4275 298.917 67.99 297.096 67.99C293.206 67.99 290.334 65.8395 289.513 62.2332V65.5252C289.513 66.6831 288.578 67.6261 287.429 67.6261C286.28 67.6261 285.345 66.6831 285.345 65.5252V59.3052C285.345 57.4028 284.492 56.3275 282.883 56.3275C281.39 56.3275 280.487 57.3035 280.307 58.8089V65.5086C280.307 66.6666 279.371 67.6095 278.222 67.6095C277.074 67.6095 276.138 66.6666 276.138 65.5086V59.3052C276.138 57.4028 275.252 56.3275 273.726 56.3275C272.068 56.3275 271.067 57.5351 271.067 59.3217V65.4921C271.067 66.65 270.131 67.593 268.983 67.593C267.834 67.593 266.898 66.65 266.898 65.4921V60.3308V60.3143V59.8676C266.898 52.1588 272.856 52.3904 274.743 52.3904C276.778 52.3904 278.403 53.2341 279.388 54.756C280.241 53.3995 281.702 52.3904 283.95 52.3904C287.15 52.3904 289.316 54.4417 289.546 57.8825C290.334 54.2101 293.206 52.043 297.03 52.043C301.395 52.043 304.284 54.8883 304.284 59.636V60H304.251ZM296.964 55.4342C295.143 55.4342 293.945 56.5591 293.83 58.5111H299.935C299.853 56.6418 298.901 55.4342 296.964 55.4342Z" fill="#FF4612"/>
<path d="M53.1484 26.0078C53.1484 25.2318 53.5807 24.8438 54.4453 24.8438C55.3099 24.8438 55.7422 25.2318 55.7422 26.0078C55.7422 26.3776 55.6328 26.6667 55.4141 26.875C55.2005 27.0781 54.8776 27.1797 54.4453 27.1797C53.5807 27.1797 53.1484 26.7891 53.1484 26.0078ZM55.6328 37H53.25V28.2656H55.6328V37ZM61.8203 35.2578C62.237 35.2578 62.737 35.1667 63.3203 34.9844V36.7578C62.7266 37.0234 61.9974 37.1562 61.1328 37.1562C60.1797 37.1562 59.4844 36.9167 59.0469 36.4375C58.6146 35.9531 58.3984 35.2292 58.3984 34.2656V30.0547H57.2578V29.0469L58.5703 28.25L59.2578 26.4062H60.7812V28.2656H63.2266V30.0547H60.7812V34.2656C60.7812 34.6042 60.875 34.8542 61.0625 35.0156C61.2552 35.1771 61.5078 35.2578 61.8203 35.2578ZM71.1875 34.4062C71.1875 35.3021 70.875 35.9844 70.25 36.4531C69.6302 36.9219 68.7005 37.1562 67.4609 37.1562C66.8255 37.1562 66.2839 37.112 65.8359 37.0234C65.388 36.9401 64.9688 36.8151 64.5781 36.6484V34.6797C65.0208 34.888 65.5182 35.0625 66.0703 35.2031C66.6276 35.3438 67.1172 35.4141 67.5391 35.4141C68.4036 35.4141 68.8359 35.1641 68.8359 34.6641C68.8359 34.4766 68.7786 34.3255 68.6641 34.2109C68.5495 34.0911 68.3516 33.9583 68.0703 33.8125C67.7891 33.6615 67.4141 33.487 66.9453 33.2891C66.2734 33.0078 65.7786 32.7474 65.4609 32.5078C65.1484 32.2682 64.9193 31.9948 64.7734 31.6875C64.6328 31.375 64.5625 30.9922 64.5625 30.5391C64.5625 29.763 64.862 29.1641 65.4609 28.7422C66.0651 28.3151 66.9193 28.1016 68.0234 28.1016C69.0755 28.1016 70.099 28.3307 71.0938 28.7891L70.375 30.5078C69.9375 30.3203 69.5286 30.1667 69.1484 30.0469C68.7682 29.9271 68.3802 29.8672 67.9844 29.8672C67.2812 29.8672 66.9297 30.0573 66.9297 30.4375C66.9297 30.651 67.0417 30.8359 67.2656 30.9922C67.4948 31.1484 67.9922 31.3802 68.7578 31.6875C69.4401 31.9635 69.9401 32.2214 70.2578 32.4609C70.5755 32.7005 70.8099 32.9766 70.9609 33.2891C71.112 33.6016 71.1875 33.974 71.1875 34.4062ZM80.8672 37H78.4844V31.8984C78.4844 31.2682 78.3776 30.7969 78.1641 30.4844C77.9557 30.1667 77.625 30.0078 77.1719 30.0078C76.5625 30.0078 76.1198 30.2318 75.8438 30.6797C75.5677 31.1276 75.4297 31.8646 75.4297 32.8906V37H73.0469V28.2656H74.8672L75.1875 29.3828H75.3203C75.5547 28.9818 75.8932 28.6693 76.3359 28.4453C76.7786 28.2161 77.2865 28.1016 77.8594 28.1016C79.1667 28.1016 80.0521 28.5286 80.5156 29.3828H80.7266C80.9609 28.9766 81.3047 28.6615 81.7578 28.4375C82.2161 28.2135 82.7318 28.1016 83.3047 28.1016C84.2943 28.1016 85.0417 28.3568 85.5469 28.8672C86.0573 29.3724 86.3125 30.1849 86.3125 31.3047V37H83.9219V31.8984C83.9219 31.2682 83.8151 30.7969 83.6016 30.4844C83.3932 30.1667 83.0625 30.0078 82.6094 30.0078C82.026 30.0078 81.5885 30.2161 81.2969 30.6328C81.0104 31.0495 80.8672 31.7109 80.8672 32.6172V37ZM92.3828 29.7969C91.8776 29.7969 91.4818 29.9583 91.1953 30.2812C90.9089 30.599 90.7448 31.0521 90.7031 31.6406H94.0469C94.0365 31.0521 93.8828 30.599 93.5859 30.2812C93.2891 29.9583 92.888 29.7969 92.3828 29.7969ZM92.7188 37.1562C91.3125 37.1562 90.2135 36.7682 89.4219 35.9922C88.6302 35.2161 88.2344 34.1172 88.2344 32.6953C88.2344 31.2318 88.599 30.1016 89.3281 29.3047C90.0625 28.5026 91.0755 28.1016 92.3672 28.1016C93.6016 28.1016 94.5625 28.4531 95.25 29.1562C95.9375 29.8594 96.2812 30.8307 96.2812 32.0703V33.2266H90.6484C90.6745 33.9036 90.875 34.4323 91.25 34.8125C91.625 35.1927 92.151 35.3828 92.8281 35.3828C93.3542 35.3828 93.8516 35.3281 94.3203 35.2188C94.7891 35.1094 95.2786 34.9349 95.7891 34.6953V36.5391C95.3724 36.7474 94.9271 36.901 94.4531 37C93.9792 37.1042 93.401 37.1562 92.7188 37.1562Z" fill="#0055CC"/>
</svg>
