<svg width="375" height="812" viewBox="0 0 375 812" fill="none" xmlns="http://www.w3.org/2000/svg">
<rect width="375" height="812" fill="white"/>
<rect x="20" y="241" width="335" height="36" fill="#0055CC"/>
<path d="M162.64 254.354L159.56 264H158.132L155.024 254.354H156.452L158.874 262.558L161.296 254.354H162.64ZM169.266 260.094C169.266 260.309 169.257 260.528 169.238 260.752H164.534C164.59 261.564 164.796 262.161 165.15 262.544C165.505 262.927 165.962 263.118 166.522 263.118C166.877 263.118 167.204 263.067 167.502 262.964C167.801 262.861 168.114 262.698 168.44 262.474L169 263.244C168.216 263.86 167.358 264.168 166.424 264.168C165.398 264.168 164.595 263.832 164.016 263.16C163.447 262.488 163.162 261.564 163.162 260.388C163.162 259.623 163.284 258.946 163.526 258.358C163.778 257.761 164.133 257.294 164.59 256.958C165.057 256.622 165.603 256.454 166.228 256.454C167.208 256.454 167.96 256.776 168.482 257.42C169.005 258.064 169.266 258.955 169.266 260.094ZM167.992 259.716C167.992 258.988 167.848 258.433 167.558 258.05C167.269 257.667 166.835 257.476 166.256 257.476C165.202 257.476 164.628 258.251 164.534 259.8H167.992V259.716ZM174.529 256.454C174.79 256.454 175.033 256.482 175.257 256.538L175.019 257.798C174.795 257.742 174.58 257.714 174.375 257.714C173.918 257.714 173.549 257.882 173.269 258.218C172.989 258.554 172.77 259.077 172.611 259.786V264H171.323V256.622H172.429L172.555 258.12C172.751 257.569 173.017 257.154 173.353 256.874C173.689 256.594 174.081 256.454 174.529 256.454ZM180.098 256.454C180.938 256.454 181.605 256.795 182.1 257.476C182.594 258.148 182.842 259.091 182.842 260.304C182.842 261.069 182.725 261.746 182.492 262.334C182.258 262.913 181.922 263.365 181.484 263.692C181.045 264.009 180.532 264.168 179.944 264.168C179.169 264.168 178.516 263.841 177.984 263.188L177.858 264H176.724V253.654L178.012 253.5V257.546C178.544 256.818 179.239 256.454 180.098 256.454ZM179.636 263.146C180.205 263.146 180.648 262.917 180.966 262.46C181.292 261.993 181.456 261.275 181.456 260.304C181.456 259.305 181.306 258.587 181.008 258.148C180.709 257.7 180.284 257.476 179.734 257.476C179.08 257.476 178.506 257.859 178.012 258.624V262.152C178.208 262.46 178.446 262.703 178.726 262.88C179.015 263.057 179.318 263.146 179.636 263.146ZM186.324 256.622V264H185.036V256.622H186.324ZM185.666 253.08C185.937 253.08 186.156 253.164 186.324 253.332C186.492 253.5 186.576 253.71 186.576 253.962C186.576 254.214 186.492 254.424 186.324 254.592C186.156 254.751 185.937 254.83 185.666 254.83C185.405 254.83 185.19 254.751 185.022 254.592C184.854 254.424 184.77 254.214 184.77 253.962C184.77 253.71 184.854 253.5 185.022 253.332C185.19 253.164 185.405 253.08 185.666 253.08ZM192.459 256.454C193.131 256.454 193.654 256.655 194.027 257.056C194.41 257.457 194.601 258.008 194.601 258.708V264H193.313V258.89C193.313 258.367 193.215 257.999 193.019 257.784C192.823 257.569 192.534 257.462 192.151 257.462C191.759 257.462 191.414 257.574 191.115 257.798C190.817 258.022 190.537 258.344 190.275 258.764V264H188.987V256.622H190.093L190.205 257.714C190.467 257.322 190.789 257.014 191.171 256.79C191.563 256.566 191.993 256.454 192.459 256.454ZM202.902 253.654V264H201.768L201.642 262.978C201.4 263.351 201.096 263.645 200.732 263.86C200.368 264.065 199.962 264.168 199.514 264.168C198.637 264.168 197.951 263.823 197.456 263.132C196.971 262.441 196.728 261.513 196.728 260.346C196.728 259.59 196.845 258.918 197.078 258.33C197.312 257.742 197.648 257.285 198.086 256.958C198.525 256.622 199.038 256.454 199.626 256.454C200.382 256.454 201.045 256.757 201.614 257.364V253.5L202.902 253.654ZM199.794 263.146C200.186 263.146 200.522 263.057 200.802 262.88C201.082 262.693 201.353 262.418 201.614 262.054V258.442C201.372 258.125 201.11 257.887 200.83 257.728C200.56 257.56 200.252 257.476 199.906 257.476C199.337 257.476 198.894 257.714 198.576 258.19C198.268 258.666 198.114 259.375 198.114 260.318C198.114 261.27 198.259 261.979 198.548 262.446C198.838 262.913 199.253 263.146 199.794 263.146ZM211.13 260.094C211.13 260.309 211.12 260.528 211.102 260.752H206.398C206.454 261.564 206.659 262.161 207.014 262.544C207.368 262.927 207.826 263.118 208.386 263.118C208.74 263.118 209.067 263.067 209.366 262.964C209.664 262.861 209.977 262.698 210.304 262.474L210.864 263.244C210.08 263.86 209.221 264.168 208.288 264.168C207.261 264.168 206.458 263.832 205.88 263.16C205.31 262.488 205.026 261.564 205.026 260.388C205.026 259.623 205.147 258.946 205.39 258.358C205.642 257.761 205.996 257.294 206.454 256.958C206.92 256.622 207.466 256.454 208.092 256.454C209.072 256.454 209.823 256.776 210.346 257.42C210.868 258.064 211.13 258.955 211.13 260.094ZM209.856 259.716C209.856 258.988 209.711 258.433 209.422 258.05C209.132 257.667 208.698 257.476 208.12 257.476C207.065 257.476 206.491 258.251 206.398 259.8H209.856V259.716ZM216.658 256.454C217.33 256.454 217.853 256.655 218.226 257.056C218.609 257.457 218.8 258.008 218.8 258.708V264H217.512V258.89C217.512 258.367 217.414 257.999 217.218 257.784C217.022 257.569 216.733 257.462 216.35 257.462C215.958 257.462 215.613 257.574 215.314 257.798C215.016 258.022 214.736 258.344 214.474 258.764V264H213.186V256.622H214.292L214.404 257.714C214.666 257.322 214.988 257.014 215.37 256.79C215.762 256.566 216.192 256.454 216.658 256.454Z" fill="white"/>
<path d="M49.4141 249.005C49.3011 249.022 49.1969 249.075 49.1178 249.157L46.6119 251.663L44.6184 249.67C44.32 249.371 43.9262 249.214 43.5295 249.213C43.1329 249.213 42.7426 249.374 42.4487 249.67L38.87 253.265C38.7751 253.36 38.7219 253.49 38.7219 253.625C38.7219 253.76 38.7751 253.889 38.87 253.985L45.0267 260.142C45.1226 260.237 45.2521 260.29 45.387 260.29C45.5219 260.29 45.6513 260.237 45.7472 260.142L49.326 256.547C49.9218 255.951 49.9218 254.973 49.326 254.377L47.3325 252.392L49.8384 249.886C49.9178 249.811 49.9714 249.713 49.9914 249.606C50.0113 249.499 49.9965 249.388 49.9492 249.29C49.9019 249.192 49.8245 249.111 49.7282 249.06C49.632 249.009 49.5219 248.99 49.4141 249.005ZM43.5295 250.238C43.6571 250.238 43.7948 250.287 43.8978 250.39L48.6054 255.098C48.8125 255.305 48.8125 255.619 48.6054 255.827L45.387 259.061L39.9508 253.625L43.1693 250.39C43.2756 250.283 43.4019 250.238 43.5295 250.238ZM37.8852 256.691C37.7723 256.708 37.668 256.761 37.589 256.843L35.7716 258.661L34.971 257.86C34.9229 257.811 34.8655 257.773 34.8022 257.747C34.739 257.721 34.6711 257.707 34.6027 257.708C34.4672 257.709 34.3377 257.764 34.2424 257.86L30.6557 261.447C30.0598 262.043 30.0598 263.029 30.6557 263.624L32.6572 265.618L30.1593 268.116C30.1099 268.163 30.0704 268.219 30.0431 268.282C30.0157 268.344 30.0011 268.411 30.0001 268.479C29.999 268.548 30.0116 268.615 30.037 268.678C30.0624 268.742 30.1002 268.799 30.1481 268.848C30.196 268.896 30.2531 268.934 30.316 268.961C30.379 268.987 30.4465 269 30.5146 269C30.5828 268.999 30.6502 268.986 30.7129 268.959C30.7756 268.932 30.8324 268.893 30.8799 268.844L33.3778 266.347L35.3713 268.332C35.9672 268.928 36.945 268.928 37.541 268.332L41.1277 264.745C41.1759 264.698 41.2141 264.641 41.2402 264.578C41.2663 264.516 41.2797 264.449 41.2797 264.381C41.2797 264.313 41.2663 264.246 41.2402 264.184C41.2141 264.121 41.1759 264.064 41.1277 264.017L40.3351 263.232L42.1525 261.415C42.232 261.34 42.2855 261.242 42.3055 261.135C42.3254 261.028 42.3106 260.917 42.2633 260.819C42.216 260.721 42.1386 260.64 42.0424 260.589C41.9461 260.538 41.8361 260.518 41.7282 260.534C41.6152 260.55 41.511 260.604 41.4319 260.686L39.6145 262.504L36.4922 259.389L38.3095 257.572C38.389 257.497 38.4426 257.399 38.4625 257.292C38.4825 257.185 38.4677 257.074 38.4204 256.976C38.3731 256.878 38.2957 256.797 38.1994 256.746C38.1032 256.695 37.9931 256.676 37.8852 256.691ZM34.6107 258.949L40.0389 264.385L36.8204 267.604C36.6134 267.811 36.2988 267.811 36.0918 267.604L31.3842 262.896C31.1772 262.689 31.1773 262.382 31.3842 262.175L34.6107 258.949Z" fill="white"/>
<line x1="20" y1="314.5" x2="355" y2="314.5" stroke="#EEEEEE"/>
<rect x="169" y="297" width="36" height="37" fill="white"/>
<path d="M183.259 310.186C184.071 310.186 184.78 310.382 185.387 310.774C186.003 311.157 186.479 311.721 186.815 312.468C187.16 313.215 187.333 314.12 187.333 315.184C187.333 316.229 187.16 317.125 186.815 317.872C186.479 318.619 186.003 319.188 185.387 319.58C184.78 319.972 184.071 320.168 183.259 320.168C182.447 320.168 181.733 319.977 181.117 319.594C180.51 319.211 180.034 318.647 179.689 317.9C179.353 317.153 179.185 316.253 179.185 315.198C179.185 314.162 179.353 313.266 179.689 312.51C180.034 311.754 180.515 311.18 181.131 310.788C181.747 310.387 182.456 310.186 183.259 310.186ZM183.259 311.278C182.419 311.278 181.766 311.595 181.299 312.23C180.832 312.865 180.599 313.854 180.599 315.198C180.599 316.533 180.832 317.513 181.299 318.138C181.775 318.763 182.428 319.076 183.259 319.076C185.032 319.076 185.919 317.779 185.919 315.184C185.919 312.58 185.032 311.278 183.259 311.278ZM192.336 315.912H190.838V320H189.508V310.354H192.042C193.246 310.354 194.156 310.583 194.772 311.04C195.398 311.497 195.71 312.179 195.71 313.084C195.71 313.756 195.538 314.302 195.192 314.722C194.847 315.142 194.324 315.459 193.624 315.674L196.228 320H194.646L192.336 315.912ZM192.182 314.89C192.882 314.89 193.41 314.75 193.764 314.47C194.119 314.181 194.296 313.719 194.296 313.084C194.296 312.487 194.114 312.057 193.75 311.796C193.396 311.525 192.822 311.39 192.028 311.39H190.838V314.89H192.182Z" fill="#001028"/>
<path d="M21.5703 172V160.578H22.8984V170.797H27.9375V172H21.5703ZM37.0781 167.711C37.0781 169.107 36.7266 170.198 36.0234 170.984C35.3203 171.766 34.349 172.156 33.1094 172.156C32.3438 172.156 31.6641 171.977 31.0703 171.617C30.4766 171.258 30.0182 170.742 29.6953 170.07C29.3724 169.398 29.2109 168.612 29.2109 167.711C29.2109 166.315 29.5599 165.229 30.2578 164.453C30.9557 163.672 31.9245 163.281 33.1641 163.281C34.362 163.281 35.3125 163.68 36.0156 164.477C36.724 165.273 37.0781 166.352 37.0781 167.711ZM30.5547 167.711C30.5547 168.805 30.7734 169.638 31.2109 170.211C31.6484 170.784 32.2917 171.07 33.1406 171.07C33.9896 171.07 34.6328 170.786 35.0703 170.219C35.513 169.646 35.7344 168.81 35.7344 167.711C35.7344 166.622 35.513 165.797 35.0703 165.234C34.6328 164.667 33.9844 164.383 33.125 164.383C32.276 164.383 31.6354 164.661 31.2031 165.219C30.7708 165.776 30.5547 166.607 30.5547 167.711ZM43.2656 163.281C43.6458 163.281 43.987 163.312 44.2891 163.375L44.1094 164.578C43.7552 164.5 43.4427 164.461 43.1719 164.461C42.4792 164.461 41.8854 164.742 41.3906 165.305C40.901 165.867 40.6562 166.568 40.6562 167.406V172H39.3594V163.438H40.4297L40.5781 165.023H40.6406C40.9583 164.466 41.3411 164.036 41.7891 163.734C42.237 163.432 42.7292 163.281 43.2656 163.281ZM49.5078 172.156C48.2422 172.156 47.2422 171.771 46.5078 171C45.7786 170.229 45.4141 169.159 45.4141 167.789C45.4141 166.409 45.7526 165.312 46.4297 164.5C47.112 163.688 48.026 163.281 49.1719 163.281C50.2448 163.281 51.0938 163.635 51.7188 164.344C52.3438 165.047 52.6562 165.977 52.6562 167.133V167.953H46.7578C46.7839 168.958 47.0365 169.721 47.5156 170.242C48 170.763 48.6797 171.023 49.5547 171.023C50.4766 171.023 51.388 170.831 52.2891 170.445V171.602C51.8307 171.799 51.3958 171.94 50.9844 172.023C50.5781 172.112 50.0859 172.156 49.5078 172.156ZM49.1562 164.367C48.4688 164.367 47.9193 164.591 47.5078 165.039C47.1016 165.487 46.862 166.107 46.7891 166.898H51.2656C51.2656 166.081 51.0833 165.456 50.7188 165.023C50.3542 164.586 49.8333 164.367 49.1562 164.367ZM65.7891 172V166.43C65.7891 165.747 65.6432 165.237 65.3516 164.898C65.0599 164.555 64.6068 164.383 63.9922 164.383C63.1849 164.383 62.5885 164.615 62.2031 165.078C61.8177 165.542 61.625 166.255 61.625 167.219V172H60.3281V166.43C60.3281 165.747 60.1823 165.237 59.8906 164.898C59.599 164.555 59.1432 164.383 58.5234 164.383C57.7109 164.383 57.1146 164.628 56.7344 165.117C56.3594 165.602 56.1719 166.398 56.1719 167.508V172H54.875V163.438H55.9297L56.1406 164.609H56.2031C56.4479 164.193 56.7917 163.867 57.2344 163.633C57.6823 163.398 58.1823 163.281 58.7344 163.281C60.0729 163.281 60.9479 163.766 61.3594 164.734H61.4219C61.6771 164.286 62.0469 163.932 62.5312 163.672C63.0156 163.411 63.5677 163.281 64.1875 163.281C65.1562 163.281 65.8802 163.531 66.3594 164.031C66.8438 164.526 67.0859 165.32 67.0859 166.414V172H65.7891ZM75.2188 172H73.9219V163.438H75.2188V172ZM73.8125 161.117C73.8125 160.82 73.8854 160.604 74.0312 160.469C74.1771 160.328 74.3594 160.258 74.5781 160.258C74.7865 160.258 74.9661 160.328 75.1172 160.469C75.2682 160.609 75.3438 160.826 75.3438 161.117C75.3438 161.409 75.2682 161.628 75.1172 161.773C74.9661 161.914 74.7865 161.984 74.5781 161.984C74.3594 161.984 74.1771 161.914 74.0312 161.773C73.8854 161.628 73.8125 161.409 73.8125 161.117ZM81.9531 172.156C81.3958 172.156 80.8854 172.055 80.4219 171.852C79.9635 171.643 79.5781 171.326 79.2656 170.898H79.1719C79.2344 171.398 79.2656 171.872 79.2656 172.32V175.844H77.9688V163.438H79.0234L79.2031 164.609H79.2656C79.599 164.141 79.987 163.802 80.4297 163.594C80.8724 163.385 81.3802 163.281 81.9531 163.281C83.0885 163.281 83.9635 163.669 84.5781 164.445C85.1979 165.221 85.5078 166.31 85.5078 167.711C85.5078 169.117 85.1927 170.211 84.5625 170.992C83.9375 171.768 83.0677 172.156 81.9531 172.156ZM81.7656 164.383C80.8906 164.383 80.2578 164.625 79.8672 165.109C79.4766 165.594 79.276 166.365 79.2656 167.422V167.711C79.2656 168.914 79.4661 169.776 79.8672 170.297C80.2682 170.812 80.9115 171.07 81.7969 171.07C82.5365 171.07 83.1146 170.771 83.5312 170.172C83.9531 169.573 84.1641 168.747 84.1641 167.695C84.1641 166.628 83.9531 165.81 83.5312 165.242C83.1146 164.669 82.526 164.383 81.7656 164.383ZM93.3047 169.664C93.3047 170.461 93.0078 171.076 92.4141 171.508C91.8203 171.94 90.987 172.156 89.9141 172.156C88.7786 172.156 87.8932 171.977 87.2578 171.617V170.414C87.6693 170.622 88.1094 170.786 88.5781 170.906C89.0521 171.026 89.5078 171.086 89.9453 171.086C90.6224 171.086 91.1432 170.979 91.5078 170.766C91.8724 170.547 92.0547 170.216 92.0547 169.773C92.0547 169.44 91.9089 169.156 91.6172 168.922C91.3307 168.682 90.7682 168.401 89.9297 168.078C89.1328 167.781 88.5651 167.523 88.2266 167.305C87.8932 167.081 87.6432 166.828 87.4766 166.547C87.3151 166.266 87.2344 165.93 87.2344 165.539C87.2344 164.841 87.5182 164.292 88.0859 163.891C88.6536 163.484 89.4323 163.281 90.4219 163.281C91.3438 163.281 92.2448 163.469 93.125 163.844L92.6641 164.898C91.8047 164.544 91.026 164.367 90.3281 164.367C89.7135 164.367 89.25 164.464 88.9375 164.656C88.625 164.849 88.4688 165.115 88.4688 165.453C88.4688 165.682 88.526 165.878 88.6406 166.039C88.7604 166.201 88.9505 166.354 89.2109 166.5C89.4714 166.646 89.9714 166.857 90.7109 167.133C91.7266 167.503 92.4115 167.875 92.7656 168.25C93.125 168.625 93.3047 169.096 93.3047 169.664ZM96.6406 163.438V168.992C96.6406 169.69 96.7995 170.211 97.1172 170.555C97.4349 170.898 97.9323 171.07 98.6094 171.07C99.5052 171.07 100.159 170.826 100.57 170.336C100.987 169.846 101.195 169.047 101.195 167.938V163.438H102.492V172H101.422L101.234 170.852H101.164C100.898 171.273 100.529 171.596 100.055 171.82C99.5859 172.044 99.0495 172.156 98.4453 172.156C97.4036 172.156 96.6224 171.909 96.1016 171.414C95.5859 170.919 95.3281 170.128 95.3281 169.039V163.438H96.6406ZM116.164 172V166.43C116.164 165.747 116.018 165.237 115.727 164.898C115.435 164.555 114.982 164.383 114.367 164.383C113.56 164.383 112.964 164.615 112.578 165.078C112.193 165.542 112 166.255 112 167.219V172H110.703V166.43C110.703 165.747 110.557 165.237 110.266 164.898C109.974 164.555 109.518 164.383 108.898 164.383C108.086 164.383 107.49 164.628 107.109 165.117C106.734 165.602 106.547 166.398 106.547 167.508V172H105.25V163.438H106.305L106.516 164.609H106.578C106.823 164.193 107.167 163.867 107.609 163.633C108.057 163.398 108.557 163.281 109.109 163.281C110.448 163.281 111.323 163.766 111.734 164.734H111.797C112.052 164.286 112.422 163.932 112.906 163.672C113.391 163.411 113.943 163.281 114.562 163.281C115.531 163.281 116.255 163.531 116.734 164.031C117.219 164.526 117.461 165.32 117.461 166.414V172H116.164ZM130.125 170.852H130.055C129.456 171.721 128.56 172.156 127.367 172.156C126.247 172.156 125.375 171.773 124.75 171.008C124.13 170.242 123.82 169.154 123.82 167.742C123.82 166.331 124.133 165.234 124.758 164.453C125.383 163.672 126.253 163.281 127.367 163.281C128.529 163.281 129.419 163.703 130.039 164.547H130.141L130.086 163.93L130.055 163.328V159.844H131.352V172H130.297L130.125 170.852ZM127.531 171.07C128.417 171.07 129.057 170.831 129.453 170.352C129.854 169.867 130.055 169.089 130.055 168.016V167.742C130.055 166.529 129.852 165.664 129.445 165.148C129.044 164.628 128.401 164.367 127.516 164.367C126.755 164.367 126.172 164.664 125.766 165.258C125.365 165.846 125.164 166.68 125.164 167.758C125.164 168.852 125.365 169.677 125.766 170.234C126.167 170.792 126.755 171.07 127.531 171.07ZM141.5 167.711C141.5 169.107 141.148 170.198 140.445 170.984C139.742 171.766 138.771 172.156 137.531 172.156C136.766 172.156 136.086 171.977 135.492 171.617C134.898 171.258 134.44 170.742 134.117 170.07C133.794 169.398 133.633 168.612 133.633 167.711C133.633 166.315 133.982 165.229 134.68 164.453C135.378 163.672 136.346 163.281 137.586 163.281C138.784 163.281 139.734 163.68 140.438 164.477C141.146 165.273 141.5 166.352 141.5 167.711ZM134.977 167.711C134.977 168.805 135.195 169.638 135.633 170.211C136.07 170.784 136.714 171.07 137.562 171.07C138.411 171.07 139.055 170.786 139.492 170.219C139.935 169.646 140.156 168.81 140.156 167.711C140.156 166.622 139.935 165.797 139.492 165.234C139.055 164.667 138.406 164.383 137.547 164.383C136.698 164.383 136.057 164.661 135.625 165.219C135.193 165.776 134.977 166.607 134.977 167.711ZM145.078 172H143.781V159.844H145.078V172ZM155.219 167.711C155.219 169.107 154.867 170.198 154.164 170.984C153.461 171.766 152.49 172.156 151.25 172.156C150.484 172.156 149.805 171.977 149.211 171.617C148.617 171.258 148.159 170.742 147.836 170.07C147.513 169.398 147.352 168.612 147.352 167.711C147.352 166.315 147.701 165.229 148.398 164.453C149.096 163.672 150.065 163.281 151.305 163.281C152.503 163.281 153.453 163.68 154.156 164.477C154.865 165.273 155.219 166.352 155.219 167.711ZM148.695 167.711C148.695 168.805 148.914 169.638 149.352 170.211C149.789 170.784 150.432 171.07 151.281 171.07C152.13 171.07 152.773 170.786 153.211 170.219C153.654 169.646 153.875 168.81 153.875 167.711C153.875 166.622 153.654 165.797 153.211 165.234C152.773 164.667 152.125 164.383 151.266 164.383C150.417 164.383 149.776 164.661 149.344 165.219C148.911 165.776 148.695 166.607 148.695 167.711ZM161.406 163.281C161.786 163.281 162.128 163.312 162.43 163.375L162.25 164.578C161.896 164.5 161.583 164.461 161.312 164.461C160.62 164.461 160.026 164.742 159.531 165.305C159.042 165.867 158.797 166.568 158.797 167.406V172H157.5V163.438H158.57L158.719 165.023H158.781C159.099 164.466 159.482 164.036 159.93 163.734C160.378 163.432 160.87 163.281 161.406 163.281ZM173.711 169.664C173.711 170.461 173.414 171.076 172.82 171.508C172.227 171.94 171.393 172.156 170.32 172.156C169.185 172.156 168.299 171.977 167.664 171.617V170.414C168.076 170.622 168.516 170.786 168.984 170.906C169.458 171.026 169.914 171.086 170.352 171.086C171.029 171.086 171.549 170.979 171.914 170.766C172.279 170.547 172.461 170.216 172.461 169.773C172.461 169.44 172.315 169.156 172.023 168.922C171.737 168.682 171.174 168.401 170.336 168.078C169.539 167.781 168.971 167.523 168.633 167.305C168.299 167.081 168.049 166.828 167.883 166.547C167.721 166.266 167.641 165.93 167.641 165.539C167.641 164.841 167.924 164.292 168.492 163.891C169.06 163.484 169.839 163.281 170.828 163.281C171.75 163.281 172.651 163.469 173.531 163.844L173.07 164.898C172.211 164.544 171.432 164.367 170.734 164.367C170.12 164.367 169.656 164.464 169.344 164.656C169.031 164.849 168.875 165.115 168.875 165.453C168.875 165.682 168.932 165.878 169.047 166.039C169.167 166.201 169.357 166.354 169.617 166.5C169.878 166.646 170.378 166.857 171.117 167.133C172.133 167.503 172.818 167.875 173.172 168.25C173.531 168.625 173.711 169.096 173.711 169.664ZM177.125 172H175.828V163.438H177.125V172ZM175.719 161.117C175.719 160.82 175.792 160.604 175.938 160.469C176.083 160.328 176.266 160.258 176.484 160.258C176.693 160.258 176.872 160.328 177.023 160.469C177.174 160.609 177.25 160.826 177.25 161.117C177.25 161.409 177.174 161.628 177.023 161.773C176.872 161.914 176.693 161.984 176.484 161.984C176.266 161.984 176.083 161.914 175.938 161.773C175.792 161.628 175.719 161.409 175.719 161.117ZM182.641 171.086C182.87 171.086 183.091 171.07 183.305 171.039C183.518 171.003 183.688 170.966 183.812 170.93V171.922C183.672 171.99 183.464 172.044 183.188 172.086C182.917 172.133 182.672 172.156 182.453 172.156C180.797 172.156 179.969 171.284 179.969 169.539V164.445H178.742V163.82L179.969 163.281L180.516 161.453H181.266V163.438H183.75V164.445H181.266V169.484C181.266 170 181.388 170.396 181.633 170.672C181.878 170.948 182.214 171.086 182.641 171.086ZM194.953 172L194.695 170.781H194.633C194.206 171.318 193.779 171.682 193.352 171.875C192.93 172.062 192.401 172.156 191.766 172.156C190.917 172.156 190.25 171.938 189.766 171.5C189.286 171.062 189.047 170.44 189.047 169.633C189.047 167.904 190.43 166.997 193.195 166.914L194.648 166.867V166.336C194.648 165.664 194.503 165.169 194.211 164.852C193.924 164.529 193.464 164.367 192.828 164.367C192.115 164.367 191.307 164.586 190.406 165.023L190.008 164.031C190.43 163.802 190.891 163.622 191.391 163.492C191.896 163.362 192.401 163.297 192.906 163.297C193.927 163.297 194.682 163.523 195.172 163.977C195.667 164.43 195.914 165.156 195.914 166.156V172H194.953ZM192.023 171.086C192.831 171.086 193.464 170.865 193.922 170.422C194.385 169.979 194.617 169.359 194.617 168.562V167.789L193.32 167.844C192.289 167.88 191.544 168.042 191.086 168.328C190.633 168.609 190.406 169.049 190.406 169.648C190.406 170.117 190.547 170.474 190.828 170.719C191.115 170.964 191.513 171.086 192.023 171.086ZM209.508 172V166.43C209.508 165.747 209.362 165.237 209.07 164.898C208.779 164.555 208.326 164.383 207.711 164.383C206.904 164.383 206.307 164.615 205.922 165.078C205.536 165.542 205.344 166.255 205.344 167.219V172H204.047V166.43C204.047 165.747 203.901 165.237 203.609 164.898C203.318 164.555 202.862 164.383 202.242 164.383C201.43 164.383 200.833 164.628 200.453 165.117C200.078 165.602 199.891 166.398 199.891 167.508V172H198.594V163.438H199.648L199.859 164.609H199.922C200.167 164.193 200.51 163.867 200.953 163.633C201.401 163.398 201.901 163.281 202.453 163.281C203.792 163.281 204.667 163.766 205.078 164.734H205.141C205.396 164.286 205.766 163.932 206.25 163.672C206.734 163.411 207.286 163.281 207.906 163.281C208.875 163.281 209.599 163.531 210.078 164.031C210.562 164.526 210.805 165.32 210.805 166.414V172H209.508ZM217.102 172.156C215.836 172.156 214.836 171.771 214.102 171C213.372 170.229 213.008 169.159 213.008 167.789C213.008 166.409 213.346 165.312 214.023 164.5C214.706 163.688 215.62 163.281 216.766 163.281C217.839 163.281 218.688 163.635 219.312 164.344C219.938 165.047 220.25 165.977 220.25 167.133V167.953H214.352C214.378 168.958 214.63 169.721 215.109 170.242C215.594 170.763 216.273 171.023 217.148 171.023C218.07 171.023 218.982 170.831 219.883 170.445V171.602C219.424 171.799 218.99 171.94 218.578 172.023C218.172 172.112 217.68 172.156 217.102 172.156ZM216.75 164.367C216.062 164.367 215.513 164.591 215.102 165.039C214.695 165.487 214.456 166.107 214.383 166.898H218.859C218.859 166.081 218.677 165.456 218.312 165.023C217.948 164.586 217.427 164.367 216.75 164.367ZM225.234 171.086C225.464 171.086 225.685 171.07 225.898 171.039C226.112 171.003 226.281 170.966 226.406 170.93V171.922C226.266 171.99 226.057 172.044 225.781 172.086C225.51 172.133 225.266 172.156 225.047 172.156C223.391 172.156 222.562 171.284 222.562 169.539V164.445H221.336V163.82L222.562 163.281L223.109 161.453H223.859V163.438H226.344V164.445H223.859V169.484C223.859 170 223.982 170.396 224.227 170.672C224.471 170.948 224.807 171.086 225.234 171.086ZM229.484 170.141L229.602 170.32C229.466 170.841 229.271 171.445 229.016 172.133C228.76 172.826 228.495 173.469 228.219 174.062H227.242C227.383 173.521 227.536 172.852 227.703 172.055C227.875 171.258 227.995 170.62 228.062 170.141H229.484ZM239.625 172.156C238.385 172.156 237.424 171.776 236.742 171.016C236.065 170.25 235.727 169.169 235.727 167.773C235.727 166.341 236.07 165.234 236.758 164.453C237.451 163.672 238.435 163.281 239.711 163.281C240.122 163.281 240.534 163.326 240.945 163.414C241.357 163.503 241.68 163.607 241.914 163.727L241.516 164.828C241.229 164.714 240.917 164.62 240.578 164.547C240.24 164.469 239.94 164.43 239.68 164.43C237.94 164.43 237.07 165.539 237.07 167.758C237.07 168.81 237.281 169.617 237.703 170.18C238.13 170.742 238.76 171.023 239.594 171.023C240.307 171.023 241.039 170.87 241.789 170.562V171.711C241.216 172.008 240.495 172.156 239.625 172.156ZM251.219 167.711C251.219 169.107 250.867 170.198 250.164 170.984C249.461 171.766 248.49 172.156 247.25 172.156C246.484 172.156 245.805 171.977 245.211 171.617C244.617 171.258 244.159 170.742 243.836 170.07C243.513 169.398 243.352 168.612 243.352 167.711C243.352 166.315 243.701 165.229 244.398 164.453C245.096 163.672 246.065 163.281 247.305 163.281C248.503 163.281 249.453 163.68 250.156 164.477C250.865 165.273 251.219 166.352 251.219 167.711ZM244.695 167.711C244.695 168.805 244.914 169.638 245.352 170.211C245.789 170.784 246.432 171.07 247.281 171.07C248.13 171.07 248.773 170.786 249.211 170.219C249.654 169.646 249.875 168.81 249.875 167.711C249.875 166.622 249.654 165.797 249.211 165.234C248.773 164.667 248.125 164.383 247.266 164.383C246.417 164.383 245.776 164.661 245.344 165.219C244.911 165.776 244.695 166.607 244.695 167.711ZM259.359 172V166.461C259.359 165.763 259.201 165.242 258.883 164.898C258.565 164.555 258.068 164.383 257.391 164.383C256.495 164.383 255.839 164.625 255.422 165.109C255.005 165.594 254.797 166.393 254.797 167.508V172H253.5V163.438H254.555L254.766 164.609H254.828C255.094 164.188 255.466 163.862 255.945 163.633C256.424 163.398 256.958 163.281 257.547 163.281C258.578 163.281 259.354 163.531 259.875 164.031C260.396 164.526 260.656 165.32 260.656 166.414V172H259.359ZM268.852 169.664C268.852 170.461 268.555 171.076 267.961 171.508C267.367 171.94 266.534 172.156 265.461 172.156C264.326 172.156 263.44 171.977 262.805 171.617V170.414C263.216 170.622 263.656 170.786 264.125 170.906C264.599 171.026 265.055 171.086 265.492 171.086C266.169 171.086 266.69 170.979 267.055 170.766C267.419 170.547 267.602 170.216 267.602 169.773C267.602 169.44 267.456 169.156 267.164 168.922C266.878 168.682 266.315 168.401 265.477 168.078C264.68 167.781 264.112 167.523 263.773 167.305C263.44 167.081 263.19 166.828 263.023 166.547C262.862 166.266 262.781 165.93 262.781 165.539C262.781 164.841 263.065 164.292 263.633 163.891C264.201 163.484 264.979 163.281 265.969 163.281C266.891 163.281 267.792 163.469 268.672 163.844L268.211 164.898C267.352 164.544 266.573 164.367 265.875 164.367C265.26 164.367 264.797 164.464 264.484 164.656C264.172 164.849 264.016 165.115 264.016 165.453C264.016 165.682 264.073 165.878 264.188 166.039C264.307 166.201 264.497 166.354 264.758 166.5C265.018 166.646 265.518 166.857 266.258 167.133C267.273 167.503 267.958 167.875 268.312 168.25C268.672 168.625 268.852 169.096 268.852 169.664ZM274.586 172.156C273.32 172.156 272.32 171.771 271.586 171C270.857 170.229 270.492 169.159 270.492 167.789C270.492 166.409 270.831 165.312 271.508 164.5C272.19 163.688 273.104 163.281 274.25 163.281C275.323 163.281 276.172 163.635 276.797 164.344C277.422 165.047 277.734 165.977 277.734 167.133V167.953H271.836C271.862 168.958 272.115 169.721 272.594 170.242C273.078 170.763 273.758 171.023 274.633 171.023C275.555 171.023 276.466 170.831 277.367 170.445V171.602C276.909 171.799 276.474 171.94 276.062 172.023C275.656 172.112 275.164 172.156 274.586 172.156ZM274.234 164.367C273.547 164.367 272.997 164.591 272.586 165.039C272.18 165.487 271.94 166.107 271.867 166.898H276.344C276.344 166.081 276.161 165.456 275.797 165.023C275.432 164.586 274.911 164.367 274.234 164.367ZM283.375 172.156C282.135 172.156 281.174 171.776 280.492 171.016C279.815 170.25 279.477 169.169 279.477 167.773C279.477 166.341 279.82 165.234 280.508 164.453C281.201 163.672 282.185 163.281 283.461 163.281C283.872 163.281 284.284 163.326 284.695 163.414C285.107 163.503 285.43 163.607 285.664 163.727L285.266 164.828C284.979 164.714 284.667 164.62 284.328 164.547C283.99 164.469 283.69 164.43 283.43 164.43C281.69 164.43 280.82 165.539 280.82 167.758C280.82 168.81 281.031 169.617 281.453 170.18C281.88 170.742 282.51 171.023 283.344 171.023C284.057 171.023 284.789 170.87 285.539 170.562V171.711C284.966 172.008 284.245 172.156 283.375 172.156ZM290.344 171.086C290.573 171.086 290.794 171.07 291.008 171.039C291.221 171.003 291.391 170.966 291.516 170.93V171.922C291.375 171.99 291.167 172.044 290.891 172.086C290.62 172.133 290.375 172.156 290.156 172.156C288.5 172.156 287.672 171.284 287.672 169.539V164.445H286.445V163.82L287.672 163.281L288.219 161.453H288.969V163.438H291.453V164.445H288.969V169.484C288.969 170 289.091 170.396 289.336 170.672C289.581 170.948 289.917 171.086 290.344 171.086ZM296.852 172.156C295.586 172.156 294.586 171.771 293.852 171C293.122 170.229 292.758 169.159 292.758 167.789C292.758 166.409 293.096 165.312 293.773 164.5C294.456 163.688 295.37 163.281 296.516 163.281C297.589 163.281 298.438 163.635 299.062 164.344C299.688 165.047 300 165.977 300 167.133V167.953H294.102C294.128 168.958 294.38 169.721 294.859 170.242C295.344 170.763 296.023 171.023 296.898 171.023C297.82 171.023 298.732 170.831 299.633 170.445V171.602C299.174 171.799 298.74 171.94 298.328 172.023C297.922 172.112 297.43 172.156 296.852 172.156ZM296.5 164.367C295.812 164.367 295.263 164.591 294.852 165.039C294.445 165.487 294.206 166.107 294.133 166.898H298.609C298.609 166.081 298.427 165.456 298.062 165.023C297.698 164.586 297.177 164.367 296.5 164.367ZM304.984 171.086C305.214 171.086 305.435 171.07 305.648 171.039C305.862 171.003 306.031 170.966 306.156 170.93V171.922C306.016 171.99 305.807 172.044 305.531 172.086C305.26 172.133 305.016 172.156 304.797 172.156C303.141 172.156 302.312 171.284 302.312 169.539V164.445H301.086V163.82L302.312 163.281L302.859 161.453H303.609V163.438H306.094V164.445H303.609V169.484C303.609 170 303.732 170.396 303.977 170.672C304.221 170.948 304.557 171.086 304.984 171.086ZM309.094 163.438V168.992C309.094 169.69 309.253 170.211 309.57 170.555C309.888 170.898 310.385 171.07 311.062 171.07C311.958 171.07 312.612 170.826 313.023 170.336C313.44 169.846 313.648 169.047 313.648 167.938V163.438H314.945V172H313.875L313.688 170.852H313.617C313.352 171.273 312.982 171.596 312.508 171.82C312.039 172.044 311.503 172.156 310.898 172.156C309.857 172.156 309.076 171.909 308.555 171.414C308.039 170.919 307.781 170.128 307.781 169.039V163.438H309.094ZM321.609 163.281C321.99 163.281 322.331 163.312 322.633 163.375L322.453 164.578C322.099 164.5 321.786 164.461 321.516 164.461C320.823 164.461 320.229 164.742 319.734 165.305C319.245 165.867 319 166.568 319 167.406V172H317.703V163.438H318.773L318.922 165.023H318.984C319.302 164.466 319.685 164.036 320.133 163.734C320.581 163.432 321.073 163.281 321.609 163.281ZM26.6406 194L26.3828 192.781H26.3203C25.8932 193.318 25.4661 193.682 25.0391 193.875C24.6172 194.062 24.0885 194.156 23.4531 194.156C22.6042 194.156 21.9375 193.938 21.4531 193.5C20.974 193.062 20.7344 192.44 20.7344 191.633C20.7344 189.904 22.1172 188.997 24.8828 188.914L26.3359 188.867V188.336C26.3359 187.664 26.1901 187.169 25.8984 186.852C25.612 186.529 25.151 186.367 24.5156 186.367C23.8021 186.367 22.9948 186.586 22.0938 187.023L21.6953 186.031C22.1172 185.802 22.5781 185.622 23.0781 185.492C23.5833 185.362 24.0885 185.297 24.5938 185.297C25.6146 185.297 26.3698 185.523 26.8594 185.977C27.3542 186.43 27.6016 187.156 27.6016 188.156V194H26.6406ZM23.7109 193.086C24.5182 193.086 25.151 192.865 25.6094 192.422C26.0729 191.979 26.3047 191.359 26.3047 190.562V189.789L25.0078 189.844C23.9766 189.88 23.2318 190.042 22.7734 190.328C22.3203 190.609 22.0938 191.049 22.0938 191.648C22.0938 192.117 22.2344 192.474 22.5156 192.719C22.8021 192.964 23.2005 193.086 23.7109 193.086ZM36.1094 192.852H36.0391C35.4401 193.721 34.5443 194.156 33.3516 194.156C32.2318 194.156 31.3594 193.773 30.7344 193.008C30.1146 192.242 29.8047 191.154 29.8047 189.742C29.8047 188.331 30.1172 187.234 30.7422 186.453C31.3672 185.672 32.237 185.281 33.3516 185.281C34.513 185.281 35.4036 185.703 36.0234 186.547H36.125L36.0703 185.93L36.0391 185.328V181.844H37.3359V194H36.2812L36.1094 192.852ZM33.5156 193.07C34.401 193.07 35.0417 192.831 35.4375 192.352C35.8385 191.867 36.0391 191.089 36.0391 190.016V189.742C36.0391 188.529 35.8359 187.664 35.4297 187.148C35.0286 186.628 34.3854 186.367 33.5 186.367C32.7396 186.367 32.1562 186.664 31.75 187.258C31.349 187.846 31.1484 188.68 31.1484 189.758C31.1484 190.852 31.349 191.677 31.75 192.234C32.151 192.792 32.7396 193.07 33.5156 193.07ZM41.3906 194H40.0938V185.438H41.3906V194ZM39.9844 183.117C39.9844 182.82 40.0573 182.604 40.2031 182.469C40.349 182.328 40.5312 182.258 40.75 182.258C40.9583 182.258 41.138 182.328 41.2891 182.469C41.4401 182.609 41.5156 182.826 41.5156 183.117C41.5156 183.409 41.4401 183.628 41.2891 183.773C41.138 183.914 40.9583 183.984 40.75 183.984C40.5312 183.984 40.349 183.914 40.2031 183.773C40.0573 183.628 39.9844 183.409 39.9844 183.117ZM48.125 194.156C47.5677 194.156 47.0573 194.055 46.5938 193.852C46.1354 193.643 45.75 193.326 45.4375 192.898H45.3438C45.4062 193.398 45.4375 193.872 45.4375 194.32V197.844H44.1406V185.438H45.1953L45.375 186.609H45.4375C45.7708 186.141 46.1589 185.802 46.6016 185.594C47.0443 185.385 47.5521 185.281 48.125 185.281C49.2604 185.281 50.1354 185.669 50.75 186.445C51.3698 187.221 51.6797 188.31 51.6797 189.711C51.6797 191.117 51.3646 192.211 50.7344 192.992C50.1094 193.768 49.2396 194.156 48.125 194.156ZM47.9375 186.383C47.0625 186.383 46.4297 186.625 46.0391 187.109C45.6484 187.594 45.4479 188.365 45.4375 189.422V189.711C45.4375 190.914 45.638 191.776 46.0391 192.297C46.4401 192.812 47.0833 193.07 47.9688 193.07C48.7083 193.07 49.2865 192.771 49.7031 192.172C50.125 191.573 50.3359 190.747 50.3359 189.695C50.3359 188.628 50.125 187.81 49.7031 187.242C49.2865 186.669 48.6979 186.383 47.9375 186.383ZM55.25 194H53.9531V185.438H55.25V194ZM53.8438 183.117C53.8438 182.82 53.9167 182.604 54.0625 182.469C54.2083 182.328 54.3906 182.258 54.6094 182.258C54.8177 182.258 54.9974 182.328 55.1484 182.469C55.2995 182.609 55.375 182.826 55.375 183.117C55.375 183.409 55.2995 183.628 55.1484 183.773C54.9974 183.914 54.8177 183.984 54.6094 183.984C54.3906 183.984 54.2083 183.914 54.0625 183.773C53.9167 183.628 53.8438 183.409 53.8438 183.117ZM63.5234 191.664C63.5234 192.461 63.2266 193.076 62.6328 193.508C62.0391 193.94 61.2057 194.156 60.1328 194.156C58.9974 194.156 58.112 193.977 57.4766 193.617V192.414C57.888 192.622 58.3281 192.786 58.7969 192.906C59.2708 193.026 59.7266 193.086 60.1641 193.086C60.8411 193.086 61.362 192.979 61.7266 192.766C62.0911 192.547 62.2734 192.216 62.2734 191.773C62.2734 191.44 62.1276 191.156 61.8359 190.922C61.5495 190.682 60.987 190.401 60.1484 190.078C59.3516 189.781 58.7839 189.523 58.4453 189.305C58.112 189.081 57.862 188.828 57.6953 188.547C57.5339 188.266 57.4531 187.93 57.4531 187.539C57.4531 186.841 57.737 186.292 58.3047 185.891C58.8724 185.484 59.651 185.281 60.6406 185.281C61.5625 185.281 62.4635 185.469 63.3438 185.844L62.8828 186.898C62.0234 186.544 61.2448 186.367 60.5469 186.367C59.9323 186.367 59.4688 186.464 59.1562 186.656C58.8438 186.849 58.6875 187.115 58.6875 187.453C58.6875 187.682 58.7448 187.878 58.8594 188.039C58.9792 188.201 59.1693 188.354 59.4297 188.5C59.6901 188.646 60.1901 188.857 60.9297 189.133C61.9453 189.503 62.6302 189.875 62.9844 190.25C63.3438 190.625 63.5234 191.096 63.5234 191.664ZM69.0625 194.156C67.8229 194.156 66.862 193.776 66.1797 193.016C65.5026 192.25 65.1641 191.169 65.1641 189.773C65.1641 188.341 65.5078 187.234 66.1953 186.453C66.888 185.672 67.8724 185.281 69.1484 185.281C69.5599 185.281 69.9714 185.326 70.3828 185.414C70.7943 185.503 71.1172 185.607 71.3516 185.727L70.9531 186.828C70.6667 186.714 70.3542 186.62 70.0156 186.547C69.6771 186.469 69.3776 186.43 69.1172 186.43C67.3776 186.43 66.5078 187.539 66.5078 189.758C66.5078 190.81 66.7188 191.617 67.1406 192.18C67.5677 192.742 68.1979 193.023 69.0312 193.023C69.7448 193.023 70.4766 192.87 71.2266 192.562V193.711C70.6536 194.008 69.9323 194.156 69.0625 194.156ZM74.5625 194H73.2656V185.438H74.5625V194ZM73.1562 183.117C73.1562 182.82 73.2292 182.604 73.375 182.469C73.5208 182.328 73.7031 182.258 73.9219 182.258C74.1302 182.258 74.3099 182.328 74.4609 182.469C74.612 182.609 74.6875 182.826 74.6875 183.117C74.6875 183.409 74.612 183.628 74.4609 183.773C74.3099 183.914 74.1302 183.984 73.9219 183.984C73.7031 183.984 73.5208 183.914 73.375 183.773C73.2292 183.628 73.1562 183.409 73.1562 183.117ZM83.1719 194V188.461C83.1719 187.763 83.013 187.242 82.6953 186.898C82.3776 186.555 81.8802 186.383 81.2031 186.383C80.3073 186.383 79.651 186.625 79.2344 187.109C78.8177 187.594 78.6094 188.393 78.6094 189.508V194H77.3125V185.438H78.3672L78.5781 186.609H78.6406C78.9062 186.188 79.2786 185.862 79.7578 185.633C80.237 185.398 80.7708 185.281 81.3594 185.281C82.3906 185.281 83.1667 185.531 83.6875 186.031C84.2083 186.526 84.4688 187.32 84.4688 188.414V194H83.1719ZM94.1484 185.438V186.258L92.5625 186.445C92.7083 186.628 92.8385 186.867 92.9531 187.164C93.0677 187.456 93.125 187.786 93.125 188.156C93.125 188.995 92.8385 189.664 92.2656 190.164C91.6927 190.664 90.9062 190.914 89.9062 190.914C89.651 190.914 89.4115 190.893 89.1875 190.852C88.6354 191.143 88.3594 191.51 88.3594 191.953C88.3594 192.188 88.4557 192.362 88.6484 192.477C88.8411 192.586 89.1719 192.641 89.6406 192.641H91.1562C92.0833 192.641 92.7943 192.836 93.2891 193.227C93.7891 193.617 94.0391 194.185 94.0391 194.93C94.0391 195.878 93.6589 196.599 92.8984 197.094C92.138 197.594 91.0286 197.844 89.5703 197.844C88.4505 197.844 87.5859 197.635 86.9766 197.219C86.3724 196.802 86.0703 196.214 86.0703 195.453C86.0703 194.932 86.237 194.482 86.5703 194.102C86.9036 193.721 87.3724 193.464 87.9766 193.328C87.7578 193.229 87.5729 193.076 87.4219 192.867C87.276 192.659 87.2031 192.417 87.2031 192.141C87.2031 191.828 87.2865 191.555 87.4531 191.32C87.6198 191.086 87.8828 190.859 88.2422 190.641C87.7995 190.458 87.4375 190.148 87.1562 189.711C86.8802 189.273 86.7422 188.773 86.7422 188.211C86.7422 187.273 87.0234 186.552 87.5859 186.047C88.1484 185.536 88.9453 185.281 89.9766 185.281C90.4245 185.281 90.8281 185.333 91.1875 185.438H94.1484ZM87.3203 195.438C87.3203 195.901 87.5156 196.253 87.9062 196.492C88.2969 196.732 88.8568 196.852 89.5859 196.852C90.6745 196.852 91.4792 196.688 92 196.359C92.526 196.036 92.7891 195.596 92.7891 195.039C92.7891 194.576 92.6458 194.253 92.3594 194.07C92.0729 193.893 91.5339 193.805 90.7422 193.805H89.1875C88.599 193.805 88.1406 193.945 87.8125 194.227C87.4844 194.508 87.3203 194.911 87.3203 195.438ZM88.0234 188.18C88.0234 188.779 88.1927 189.232 88.5312 189.539C88.8698 189.846 89.3411 190 89.9453 190C91.2109 190 91.8438 189.385 91.8438 188.156C91.8438 186.87 91.2031 186.227 89.9219 186.227C89.3125 186.227 88.8438 186.391 88.5156 186.719C88.1875 187.047 88.0234 187.534 88.0234 188.18ZM103.68 194.156C102.414 194.156 101.414 193.771 100.68 193C99.9505 192.229 99.5859 191.159 99.5859 189.789C99.5859 188.409 99.9245 187.312 100.602 186.5C101.284 185.688 102.198 185.281 103.344 185.281C104.417 185.281 105.266 185.635 105.891 186.344C106.516 187.047 106.828 187.977 106.828 189.133V189.953H100.93C100.956 190.958 101.208 191.721 101.688 192.242C102.172 192.763 102.852 193.023 103.727 193.023C104.648 193.023 105.56 192.831 106.461 192.445V193.602C106.003 193.799 105.568 193.94 105.156 194.023C104.75 194.112 104.258 194.156 103.68 194.156ZM103.328 186.367C102.641 186.367 102.091 186.591 101.68 187.039C101.273 187.487 101.034 188.107 100.961 188.898H105.438C105.438 188.081 105.255 187.456 104.891 187.023C104.526 186.586 104.005 186.367 103.328 186.367ZM110.344 194H109.047V181.844H110.344V194ZM114.391 194H113.094V185.438H114.391V194ZM112.984 183.117C112.984 182.82 113.057 182.604 113.203 182.469C113.349 182.328 113.531 182.258 113.75 182.258C113.958 182.258 114.138 182.328 114.289 182.469C114.44 182.609 114.516 182.826 114.516 183.117C114.516 183.409 114.44 183.628 114.289 183.773C114.138 183.914 113.958 183.984 113.75 183.984C113.531 183.984 113.349 183.914 113.203 183.773C113.057 183.628 112.984 183.409 112.984 183.117ZM119.906 193.086C120.135 193.086 120.357 193.07 120.57 193.039C120.784 193.003 120.953 192.966 121.078 192.93V193.922C120.938 193.99 120.729 194.044 120.453 194.086C120.182 194.133 119.938 194.156 119.719 194.156C118.062 194.156 117.234 193.284 117.234 191.539V186.445H116.008V185.82L117.234 185.281L117.781 183.453H118.531V185.438H121.016V186.445H118.531V191.484C118.531 192 118.654 192.396 118.898 192.672C119.143 192.948 119.479 193.086 119.906 193.086ZM122.609 193.172C122.609 192.823 122.688 192.56 122.844 192.383C123.005 192.201 123.234 192.109 123.531 192.109C123.833 192.109 124.068 192.201 124.234 192.383C124.406 192.56 124.492 192.823 124.492 193.172C124.492 193.51 124.406 193.771 124.234 193.953C124.062 194.135 123.828 194.227 123.531 194.227C123.266 194.227 123.044 194.146 122.867 193.984C122.695 193.818 122.609 193.547 122.609 193.172ZM137.938 182.578H139.367L135.25 194H133.938L129.844 182.578H131.25L133.875 189.969C134.177 190.818 134.417 191.643 134.594 192.445C134.781 191.602 135.026 190.76 135.328 189.922L137.938 182.578ZM142.047 194H140.75V185.438H142.047V194ZM140.641 183.117C140.641 182.82 140.714 182.604 140.859 182.469C141.005 182.328 141.188 182.258 141.406 182.258C141.615 182.258 141.794 182.328 141.945 182.469C142.096 182.609 142.172 182.826 142.172 183.117C142.172 183.409 142.096 183.628 141.945 183.773C141.794 183.914 141.615 183.984 141.406 183.984C141.188 183.984 141.005 183.914 140.859 183.773C140.714 183.628 140.641 183.409 140.641 183.117ZM146.672 194L143.422 185.438H144.812L146.656 190.516C147.073 191.703 147.318 192.474 147.391 192.828H147.453C147.51 192.552 147.69 191.982 147.992 191.117C148.299 190.247 148.984 188.354 150.047 185.438H151.438L148.188 194H146.672ZM158.078 194L157.82 192.781H157.758C157.331 193.318 156.904 193.682 156.477 193.875C156.055 194.062 155.526 194.156 154.891 194.156C154.042 194.156 153.375 193.938 152.891 193.5C152.411 193.062 152.172 192.44 152.172 191.633C152.172 189.904 153.555 188.997 156.32 188.914L157.773 188.867V188.336C157.773 187.664 157.628 187.169 157.336 186.852C157.049 186.529 156.589 186.367 155.953 186.367C155.24 186.367 154.432 186.586 153.531 187.023L153.133 186.031C153.555 185.802 154.016 185.622 154.516 185.492C155.021 185.362 155.526 185.297 156.031 185.297C157.052 185.297 157.807 185.523 158.297 185.977C158.792 186.43 159.039 187.156 159.039 188.156V194H158.078ZM155.148 193.086C155.956 193.086 156.589 192.865 157.047 192.422C157.51 191.979 157.742 191.359 157.742 190.562V189.789L156.445 189.844C155.414 189.88 154.669 190.042 154.211 190.328C153.758 190.609 153.531 191.049 153.531 191.648C153.531 192.117 153.672 192.474 153.953 192.719C154.24 192.964 154.638 193.086 155.148 193.086ZM172.633 194V188.43C172.633 187.747 172.487 187.237 172.195 186.898C171.904 186.555 171.451 186.383 170.836 186.383C170.029 186.383 169.432 186.615 169.047 187.078C168.661 187.542 168.469 188.255 168.469 189.219V194H167.172V188.43C167.172 187.747 167.026 187.237 166.734 186.898C166.443 186.555 165.987 186.383 165.367 186.383C164.555 186.383 163.958 186.628 163.578 187.117C163.203 187.602 163.016 188.398 163.016 189.508V194H161.719V185.438H162.773L162.984 186.609H163.047C163.292 186.193 163.635 185.867 164.078 185.633C164.526 185.398 165.026 185.281 165.578 185.281C166.917 185.281 167.792 185.766 168.203 186.734H168.266C168.521 186.286 168.891 185.932 169.375 185.672C169.859 185.411 170.411 185.281 171.031 185.281C172 185.281 172.724 185.531 173.203 186.031C173.688 186.526 173.93 187.32 173.93 188.414V194H172.633ZM177.828 185.438V190.992C177.828 191.69 177.987 192.211 178.305 192.555C178.622 192.898 179.12 193.07 179.797 193.07C180.693 193.07 181.346 192.826 181.758 192.336C182.174 191.846 182.383 191.047 182.383 189.938V185.438H183.68V194H182.609L182.422 192.852H182.352C182.086 193.273 181.716 193.596 181.242 193.82C180.773 194.044 180.237 194.156 179.633 194.156C178.591 194.156 177.81 193.909 177.289 193.414C176.773 192.919 176.516 192.128 176.516 191.039V185.438H177.828ZM191.961 191.664C191.961 192.461 191.664 193.076 191.07 193.508C190.477 193.94 189.643 194.156 188.57 194.156C187.435 194.156 186.549 193.977 185.914 193.617V192.414C186.326 192.622 186.766 192.786 187.234 192.906C187.708 193.026 188.164 193.086 188.602 193.086C189.279 193.086 189.799 192.979 190.164 192.766C190.529 192.547 190.711 192.216 190.711 191.773C190.711 191.44 190.565 191.156 190.273 190.922C189.987 190.682 189.424 190.401 188.586 190.078C187.789 189.781 187.221 189.523 186.883 189.305C186.549 189.081 186.299 188.828 186.133 188.547C185.971 188.266 185.891 187.93 185.891 187.539C185.891 186.841 186.174 186.292 186.742 185.891C187.31 185.484 188.089 185.281 189.078 185.281C190 185.281 190.901 185.469 191.781 185.844L191.32 186.898C190.461 186.544 189.682 186.367 188.984 186.367C188.37 186.367 187.906 186.464 187.594 186.656C187.281 186.849 187.125 187.115 187.125 187.453C187.125 187.682 187.182 187.878 187.297 188.039C187.417 188.201 187.607 188.354 187.867 188.5C188.128 188.646 188.628 188.857 189.367 189.133C190.383 189.503 191.068 189.875 191.422 190.25C191.781 190.625 191.961 191.096 191.961 191.664ZM202.141 185.281C202.521 185.281 202.862 185.312 203.164 185.375L202.984 186.578C202.63 186.5 202.318 186.461 202.047 186.461C201.354 186.461 200.76 186.742 200.266 187.305C199.776 187.867 199.531 188.568 199.531 189.406V194H198.234V185.438H199.305L199.453 187.023H199.516C199.833 186.466 200.216 186.036 200.664 185.734C201.112 185.432 201.604 185.281 202.141 185.281ZM210.625 194V188.461C210.625 187.763 210.466 187.242 210.148 186.898C209.831 186.555 209.333 186.383 208.656 186.383C207.755 186.383 207.096 186.628 206.68 187.117C206.268 187.607 206.062 188.409 206.062 189.523V194H204.766V181.844H206.062V185.523C206.062 185.966 206.042 186.333 206 186.625H206.078C206.333 186.214 206.695 185.891 207.164 185.656C207.638 185.417 208.177 185.297 208.781 185.297C209.828 185.297 210.612 185.547 211.133 186.047C211.659 186.542 211.922 187.331 211.922 188.414V194H210.625ZM221.984 189.711C221.984 191.107 221.633 192.198 220.93 192.984C220.227 193.766 219.255 194.156 218.016 194.156C217.25 194.156 216.57 193.977 215.977 193.617C215.383 193.258 214.924 192.742 214.602 192.07C214.279 191.398 214.117 190.612 214.117 189.711C214.117 188.315 214.466 187.229 215.164 186.453C215.862 185.672 216.831 185.281 218.07 185.281C219.268 185.281 220.219 185.68 220.922 186.477C221.63 187.273 221.984 188.352 221.984 189.711ZM215.461 189.711C215.461 190.805 215.68 191.638 216.117 192.211C216.555 192.784 217.198 193.07 218.047 193.07C218.896 193.07 219.539 192.786 219.977 192.219C220.419 191.646 220.641 190.81 220.641 189.711C220.641 188.622 220.419 187.797 219.977 187.234C219.539 186.667 218.891 186.383 218.031 186.383C217.182 186.383 216.542 186.661 216.109 187.219C215.677 187.776 215.461 188.607 215.461 189.711ZM230.125 194V188.461C230.125 187.763 229.966 187.242 229.648 186.898C229.331 186.555 228.833 186.383 228.156 186.383C227.26 186.383 226.604 186.625 226.188 187.109C225.771 187.594 225.562 188.393 225.562 189.508V194H224.266V185.438H225.32L225.531 186.609H225.594C225.859 186.188 226.232 185.862 226.711 185.633C227.19 185.398 227.724 185.281 228.312 185.281C229.344 185.281 230.12 185.531 230.641 186.031C231.161 186.526 231.422 187.32 231.422 188.414V194H230.125ZM237.516 194.156C236.276 194.156 235.315 193.776 234.633 193.016C233.956 192.25 233.617 191.169 233.617 189.773C233.617 188.341 233.961 187.234 234.648 186.453C235.341 185.672 236.326 185.281 237.602 185.281C238.013 185.281 238.424 185.326 238.836 185.414C239.247 185.503 239.57 185.607 239.805 185.727L239.406 186.828C239.12 186.714 238.807 186.62 238.469 186.547C238.13 186.469 237.831 186.43 237.57 186.43C235.831 186.43 234.961 187.539 234.961 189.758C234.961 190.81 235.172 191.617 235.594 192.18C236.021 192.742 236.651 193.023 237.484 193.023C238.198 193.023 238.93 192.87 239.68 192.562V193.711C239.107 194.008 238.385 194.156 237.516 194.156ZM242.938 185.438V190.992C242.938 191.69 243.096 192.211 243.414 192.555C243.732 192.898 244.229 193.07 244.906 193.07C245.802 193.07 246.456 192.826 246.867 192.336C247.284 191.846 247.492 191.047 247.492 189.938V185.438H248.789V194H247.719L247.531 192.852H247.461C247.195 193.273 246.826 193.596 246.352 193.82C245.883 194.044 245.346 194.156 244.742 194.156C243.701 194.156 242.919 193.909 242.398 193.414C241.883 192.919 241.625 192.128 241.625 191.039V185.438H242.938ZM257.07 191.664C257.07 192.461 256.773 193.076 256.18 193.508C255.586 193.94 254.753 194.156 253.68 194.156C252.544 194.156 251.659 193.977 251.023 193.617V192.414C251.435 192.622 251.875 192.786 252.344 192.906C252.818 193.026 253.273 193.086 253.711 193.086C254.388 193.086 254.909 192.979 255.273 192.766C255.638 192.547 255.82 192.216 255.82 191.773C255.82 191.44 255.674 191.156 255.383 190.922C255.096 190.682 254.534 190.401 253.695 190.078C252.898 189.781 252.331 189.523 251.992 189.305C251.659 189.081 251.409 188.828 251.242 188.547C251.081 188.266 251 187.93 251 187.539C251 186.841 251.284 186.292 251.852 185.891C252.419 185.484 253.198 185.281 254.188 185.281C255.109 185.281 256.01 185.469 256.891 185.844L256.43 186.898C255.57 186.544 254.792 186.367 254.094 186.367C253.479 186.367 253.016 186.464 252.703 186.656C252.391 186.849 252.234 187.115 252.234 187.453C252.234 187.682 252.292 187.878 252.406 188.039C252.526 188.201 252.716 188.354 252.977 188.5C253.237 188.646 253.737 188.857 254.477 189.133C255.492 189.503 256.177 189.875 256.531 190.25C256.891 190.625 257.07 191.096 257.07 191.664ZM266.961 194.156C265.695 194.156 264.695 193.771 263.961 193C263.232 192.229 262.867 191.159 262.867 189.789C262.867 188.409 263.206 187.312 263.883 186.5C264.565 185.688 265.479 185.281 266.625 185.281C267.698 185.281 268.547 185.635 269.172 186.344C269.797 187.047 270.109 187.977 270.109 189.133V189.953H264.211C264.237 190.958 264.49 191.721 264.969 192.242C265.453 192.763 266.133 193.023 267.008 193.023C267.93 193.023 268.841 192.831 269.742 192.445V193.602C269.284 193.799 268.849 193.94 268.438 194.023C268.031 194.112 267.539 194.156 266.961 194.156ZM266.609 186.367C265.922 186.367 265.372 186.591 264.961 187.039C264.555 187.487 264.315 188.107 264.242 188.898H268.719C268.719 188.081 268.536 187.456 268.172 187.023C267.807 186.586 267.286 186.367 266.609 186.367ZM275.094 193.086C275.323 193.086 275.544 193.07 275.758 193.039C275.971 193.003 276.141 192.966 276.266 192.93V193.922C276.125 193.99 275.917 194.044 275.641 194.086C275.37 194.133 275.125 194.156 274.906 194.156C273.25 194.156 272.422 193.284 272.422 191.539V186.445H271.195V185.82L272.422 185.281L272.969 183.453H273.719V185.438H276.203V186.445H273.719V191.484C273.719 192 273.841 192.396 274.086 192.672C274.331 192.948 274.667 193.086 275.094 193.086ZM284.906 193.086C285.135 193.086 285.357 193.07 285.57 193.039C285.784 193.003 285.953 192.966 286.078 192.93V193.922C285.938 193.99 285.729 194.044 285.453 194.086C285.182 194.133 284.938 194.156 284.719 194.156C283.062 194.156 282.234 193.284 282.234 191.539V186.445H281.008V185.82L282.234 185.281L282.781 183.453H283.531V185.438H286.016V186.445H283.531V191.484C283.531 192 283.654 192.396 283.898 192.672C284.143 192.948 284.479 193.086 284.906 193.086ZM291.414 194.156C290.148 194.156 289.148 193.771 288.414 193C287.685 192.229 287.32 191.159 287.32 189.789C287.32 188.409 287.659 187.312 288.336 186.5C289.018 185.688 289.932 185.281 291.078 185.281C292.151 185.281 293 185.635 293.625 186.344C294.25 187.047 294.562 187.977 294.562 189.133V189.953H288.664C288.69 190.958 288.943 191.721 289.422 192.242C289.906 192.763 290.586 193.023 291.461 193.023C292.383 193.023 293.294 192.831 294.195 192.445V193.602C293.737 193.799 293.302 193.94 292.891 194.023C292.484 194.112 291.992 194.156 291.414 194.156ZM291.062 186.367C290.375 186.367 289.826 186.591 289.414 187.039C289.008 187.487 288.768 188.107 288.695 188.898H293.172C293.172 188.081 292.99 187.456 292.625 187.023C292.26 186.586 291.74 186.367 291.062 186.367ZM298.078 194H296.781V181.844H298.078V194ZM302.125 194H300.828V181.844H302.125V194ZM306.094 185.438V190.992C306.094 191.69 306.253 192.211 306.57 192.555C306.888 192.898 307.385 193.07 308.062 193.07C308.958 193.07 309.612 192.826 310.023 192.336C310.44 191.846 310.648 191.047 310.648 189.938V185.438H311.945V194H310.875L310.688 192.852H310.617C310.352 193.273 309.982 193.596 309.508 193.82C309.039 194.044 308.503 194.156 307.898 194.156C306.857 194.156 306.076 193.909 305.555 193.414C305.039 192.919 304.781 192.128 304.781 191.039V185.438H306.094ZM320.227 191.664C320.227 192.461 319.93 193.076 319.336 193.508C318.742 193.94 317.909 194.156 316.836 194.156C315.701 194.156 314.815 193.977 314.18 193.617V192.414C314.591 192.622 315.031 192.786 315.5 192.906C315.974 193.026 316.43 193.086 316.867 193.086C317.544 193.086 318.065 192.979 318.43 192.766C318.794 192.547 318.977 192.216 318.977 191.773C318.977 191.44 318.831 191.156 318.539 190.922C318.253 190.682 317.69 190.401 316.852 190.078C316.055 189.781 315.487 189.523 315.148 189.305C314.815 189.081 314.565 188.828 314.398 188.547C314.237 188.266 314.156 187.93 314.156 187.539C314.156 186.841 314.44 186.292 315.008 185.891C315.576 185.484 316.354 185.281 317.344 185.281C318.266 185.281 319.167 185.469 320.047 185.844L319.586 186.898C318.727 186.544 317.948 186.367 317.25 186.367C316.635 186.367 316.172 186.464 315.859 186.656C315.547 186.849 315.391 187.115 315.391 187.453C315.391 187.682 315.448 187.878 315.562 188.039C315.682 188.201 315.872 188.354 316.133 188.5C316.393 188.646 316.893 188.857 317.633 189.133C318.648 189.503 319.333 189.875 319.688 190.25C320.047 190.625 320.227 191.096 320.227 191.664ZM327.797 194H326.5V185.438H327.797V194ZM326.391 183.117C326.391 182.82 326.464 182.604 326.609 182.469C326.755 182.328 326.938 182.258 327.156 182.258C327.365 182.258 327.544 182.328 327.695 182.469C327.846 182.609 327.922 182.826 327.922 183.117C327.922 183.409 327.846 183.628 327.695 183.773C327.544 183.914 327.365 183.984 327.156 183.984C326.938 183.984 326.755 183.914 326.609 183.773C326.464 183.628 326.391 183.409 326.391 183.117ZM336.406 194V188.461C336.406 187.763 336.247 187.242 335.93 186.898C335.612 186.555 335.115 186.383 334.438 186.383C333.542 186.383 332.885 186.625 332.469 187.109C332.052 187.594 331.844 188.393 331.844 189.508V194H330.547V185.438H331.602L331.812 186.609H331.875C332.141 186.188 332.513 185.862 332.992 185.633C333.471 185.398 334.005 185.281 334.594 185.281C335.625 185.281 336.401 185.531 336.922 186.031C337.443 186.526 337.703 187.32 337.703 188.414V194H336.406ZM32.2891 216V210.43C32.2891 209.747 32.1432 209.237 31.8516 208.898C31.5599 208.555 31.1068 208.383 30.4922 208.383C29.6849 208.383 29.0885 208.615 28.7031 209.078C28.3177 209.542 28.125 210.255 28.125 211.219V216H26.8281V210.43C26.8281 209.747 26.6823 209.237 26.3906 208.898C26.099 208.555 25.6432 208.383 25.0234 208.383C24.2109 208.383 23.6146 208.628 23.2344 209.117C22.8594 209.602 22.6719 210.398 22.6719 211.508V216H21.375V207.438H22.4297L22.6406 208.609H22.7031C22.9479 208.193 23.2917 207.867 23.7344 207.633C24.1823 207.398 24.6823 207.281 25.2344 207.281C26.5729 207.281 27.4479 207.766 27.8594 208.734H27.9219C28.1771 208.286 28.5469 207.932 29.0312 207.672C29.5156 207.411 30.0677 207.281 30.6875 207.281C31.6562 207.281 32.3802 207.531 32.8594 208.031C33.3438 208.526 33.5859 209.32 33.5859 210.414V216H32.2891ZM43.6562 211.711C43.6562 213.107 43.3047 214.198 42.6016 214.984C41.8984 215.766 40.9271 216.156 39.6875 216.156C38.9219 216.156 38.2422 215.977 37.6484 215.617C37.0547 215.258 36.5964 214.742 36.2734 214.07C35.9505 213.398 35.7891 212.612 35.7891 211.711C35.7891 210.315 36.138 209.229 36.8359 208.453C37.5339 207.672 38.5026 207.281 39.7422 207.281C40.9401 207.281 41.8906 207.68 42.5938 208.477C43.3021 209.273 43.6562 210.352 43.6562 211.711ZM37.1328 211.711C37.1328 212.805 37.3516 213.638 37.7891 214.211C38.2266 214.784 38.8698 215.07 39.7188 215.07C40.5677 215.07 41.2109 214.786 41.6484 214.219C42.0911 213.646 42.3125 212.81 42.3125 211.711C42.3125 210.622 42.0911 209.797 41.6484 209.234C41.2109 208.667 40.5625 208.383 39.7031 208.383C38.8542 208.383 38.2135 208.661 37.7812 209.219C37.349 209.776 37.1328 210.607 37.1328 211.711ZM47.2344 216H45.9375V203.844H47.2344V216ZM53.6016 216.156C52.3359 216.156 51.3359 215.771 50.6016 215C49.8724 214.229 49.5078 213.159 49.5078 211.789C49.5078 210.409 49.8464 209.312 50.5234 208.5C51.2057 207.688 52.1198 207.281 53.2656 207.281C54.3385 207.281 55.1875 207.635 55.8125 208.344C56.4375 209.047 56.75 209.977 56.75 211.133V211.953H50.8516C50.8776 212.958 51.1302 213.721 51.6094 214.242C52.0938 214.763 52.7734 215.023 53.6484 215.023C54.5703 215.023 55.4818 214.831 56.3828 214.445V215.602C55.9245 215.799 55.4896 215.94 55.0781 216.023C54.6719 216.112 54.1797 216.156 53.6016 216.156ZM53.25 208.367C52.5625 208.367 52.013 208.591 51.6016 209.039C51.1953 209.487 50.9557 210.107 50.8828 210.898H55.3594C55.3594 210.081 55.1771 209.456 54.8125 209.023C54.4479 208.586 53.9271 208.367 53.25 208.367ZM64.4922 213.664C64.4922 214.461 64.1953 215.076 63.6016 215.508C63.0078 215.94 62.1745 216.156 61.1016 216.156C59.9661 216.156 59.0807 215.977 58.4453 215.617V214.414C58.8568 214.622 59.2969 214.786 59.7656 214.906C60.2396 215.026 60.6953 215.086 61.1328 215.086C61.8099 215.086 62.3307 214.979 62.6953 214.766C63.0599 214.547 63.2422 214.216 63.2422 213.773C63.2422 213.44 63.0964 213.156 62.8047 212.922C62.5182 212.682 61.9557 212.401 61.1172 212.078C60.3203 211.781 59.7526 211.523 59.4141 211.305C59.0807 211.081 58.8307 210.828 58.6641 210.547C58.5026 210.266 58.4219 209.93 58.4219 209.539C58.4219 208.841 58.7057 208.292 59.2734 207.891C59.8411 207.484 60.6198 207.281 61.6094 207.281C62.5312 207.281 63.4323 207.469 64.3125 207.844L63.8516 208.898C62.9922 208.544 62.2135 208.367 61.5156 208.367C60.901 208.367 60.4375 208.464 60.125 208.656C59.8125 208.849 59.6562 209.115 59.6562 209.453C59.6562 209.682 59.7135 209.878 59.8281 210.039C59.9479 210.201 60.138 210.354 60.3984 210.5C60.6589 210.646 61.1589 210.857 61.8984 211.133C62.9141 211.503 63.599 211.875 63.9531 212.25C64.3125 212.625 64.4922 213.096 64.4922 213.664ZM69.375 215.086C69.6042 215.086 69.8255 215.07 70.0391 215.039C70.2526 215.003 70.4219 214.966 70.5469 214.93V215.922C70.4062 215.99 70.1979 216.044 69.9219 216.086C69.651 216.133 69.4062 216.156 69.1875 216.156C67.5312 216.156 66.7031 215.284 66.7031 213.539V208.445H65.4766V207.82L66.7031 207.281L67.25 205.453H68V207.438H70.4844V208.445H68V213.484C68 214 68.1224 214.396 68.3672 214.672C68.612 214.948 68.9479 215.086 69.375 215.086ZM73.5625 216H72.2656V207.438H73.5625V216ZM72.1562 205.117C72.1562 204.82 72.2292 204.604 72.375 204.469C72.5208 204.328 72.7031 204.258 72.9219 204.258C73.1302 204.258 73.3099 204.328 73.4609 204.469C73.612 204.609 73.6875 204.826 73.6875 205.117C73.6875 205.409 73.612 205.628 73.4609 205.773C73.3099 205.914 73.1302 205.984 72.9219 205.984C72.7031 205.984 72.5208 205.914 72.375 205.773C72.2292 205.628 72.1562 205.409 72.1562 205.117ZM79.9297 216.156C78.6641 216.156 77.6641 215.771 76.9297 215C76.2005 214.229 75.8359 213.159 75.8359 211.789C75.8359 210.409 76.1745 209.312 76.8516 208.5C77.5339 207.688 78.4479 207.281 79.5938 207.281C80.6667 207.281 81.5156 207.635 82.1406 208.344C82.7656 209.047 83.0781 209.977 83.0781 211.133V211.953H77.1797C77.2057 212.958 77.4583 213.721 77.9375 214.242C78.4219 214.763 79.1016 215.023 79.9766 215.023C80.8984 215.023 81.8099 214.831 82.7109 214.445V215.602C82.2526 215.799 81.8177 215.94 81.4062 216.023C81 216.112 80.5078 216.156 79.9297 216.156ZM79.5781 208.367C78.8906 208.367 78.3411 208.591 77.9297 209.039C77.5234 209.487 77.2839 210.107 77.2109 210.898H81.6875C81.6875 210.081 81.5052 209.456 81.1406 209.023C80.776 208.586 80.2552 208.367 79.5781 208.367ZM85.1094 215.172C85.1094 214.823 85.1875 214.56 85.3438 214.383C85.5052 214.201 85.7344 214.109 86.0312 214.109C86.3333 214.109 86.5677 214.201 86.7344 214.383C86.9062 214.56 86.9922 214.823 86.9922 215.172C86.9922 215.51 86.9062 215.771 86.7344 215.953C86.5625 216.135 86.3281 216.227 86.0312 216.227C85.7656 216.227 85.5443 216.146 85.3672 215.984C85.1953 215.818 85.1094 215.547 85.1094 215.172Z" fill="#001028"/>
<path d="M34.3145 121.449C34.3145 123.254 33.6628 124.676 32.3594 125.715C31.0651 126.754 29.2604 127.273 26.9453 127.273C24.8125 127.273 22.9258 126.872 21.2852 126.07V122.133C22.6341 122.734 23.7734 123.158 24.7031 123.404C25.6419 123.65 26.4987 123.773 27.2734 123.773C28.2031 123.773 28.9141 123.596 29.4062 123.24C29.9076 122.885 30.1582 122.356 30.1582 121.654C30.1582 121.262 30.0488 120.916 29.8301 120.615C29.6113 120.305 29.2878 120.009 28.8594 119.727C28.4401 119.444 27.5788 118.993 26.2754 118.373C25.054 117.799 24.138 117.247 23.5273 116.719C22.9167 116.19 22.429 115.575 22.0645 114.873C21.6999 114.171 21.5176 113.351 21.5176 112.412C21.5176 110.644 22.1146 109.254 23.3086 108.242C24.5117 107.23 26.1706 106.725 28.2852 106.725C29.3242 106.725 30.3132 106.848 31.252 107.094C32.1999 107.34 33.1888 107.686 34.2188 108.133L32.8516 111.428C31.7852 110.99 30.901 110.685 30.1992 110.512C29.5065 110.339 28.8229 110.252 28.1484 110.252C27.3464 110.252 26.7311 110.439 26.3027 110.812C25.8743 111.186 25.6602 111.674 25.6602 112.275C25.6602 112.649 25.7467 112.977 25.9199 113.26C26.0931 113.533 26.3665 113.802 26.7402 114.066C27.123 114.322 28.0208 114.786 29.4336 115.461C31.3021 116.354 32.5827 117.252 33.2754 118.154C33.9681 119.048 34.3145 120.146 34.3145 121.449ZM40.9316 119.33C40.9316 120.843 41.1777 121.987 41.6699 122.762C42.1712 123.536 42.9824 123.924 44.1035 123.924C45.2155 123.924 46.013 123.541 46.4961 122.775C46.9883 122.001 47.2344 120.852 47.2344 119.33C47.2344 117.817 46.9883 116.682 46.4961 115.926C46.0039 115.169 45.1973 114.791 44.0762 114.791C42.9642 114.791 42.1621 115.169 41.6699 115.926C41.1777 116.673 40.9316 117.808 40.9316 119.33ZM51.5 119.33C51.5 121.818 50.8438 123.764 49.5312 125.168C48.2188 126.572 46.3913 127.273 44.0488 127.273C42.5814 127.273 41.2871 126.954 40.166 126.316C39.0449 125.669 38.1836 124.744 37.582 123.541C36.9805 122.338 36.6797 120.934 36.6797 119.33C36.6797 116.833 37.3314 114.891 38.6348 113.506C39.9382 112.12 41.7702 111.428 44.1309 111.428C45.5983 111.428 46.8926 111.747 48.0137 112.385C49.1348 113.023 49.9961 113.939 50.5977 115.133C51.1992 116.327 51.5 117.726 51.5 119.33ZM61.1523 127.273C56.3945 127.273 54.0156 124.662 54.0156 119.439C54.0156 116.842 54.6628 114.859 55.957 113.492C57.2513 112.116 59.1061 111.428 61.5215 111.428C63.2897 111.428 64.8757 111.774 66.2793 112.467L65.0488 115.693C64.3926 115.429 63.7819 115.215 63.2168 115.051C62.6517 114.878 62.0866 114.791 61.5215 114.791C59.3522 114.791 58.2676 116.331 58.2676 119.412C58.2676 122.402 59.3522 123.896 61.5215 123.896C62.3236 123.896 63.0664 123.792 63.75 123.582C64.4336 123.363 65.1172 123.026 65.8008 122.57V126.139C65.1263 126.567 64.4427 126.863 63.75 127.027C63.0664 127.191 62.2005 127.273 61.1523 127.273ZM69.1777 107.764C69.1777 106.406 69.9342 105.727 71.4473 105.727C72.9603 105.727 73.7168 106.406 73.7168 107.764C73.7168 108.411 73.5254 108.917 73.1426 109.281C72.7689 109.637 72.2038 109.814 71.4473 109.814C69.9342 109.814 69.1777 109.131 69.1777 107.764ZM73.5254 127H69.3555V111.715H73.5254V127ZM87.6211 127L86.8145 124.922H86.7051C86.0033 125.806 85.2786 126.421 84.5312 126.768C83.793 127.105 82.8268 127.273 81.6328 127.273C80.1654 127.273 79.0078 126.854 78.1602 126.016C77.3216 125.177 76.9023 123.983 76.9023 122.434C76.9023 120.811 77.4674 119.617 78.5977 118.852C79.737 118.077 81.4505 117.648 83.7383 117.566L86.3906 117.484V116.814C86.3906 115.265 85.5977 114.49 84.0117 114.49C82.7904 114.49 81.3548 114.859 79.7051 115.598L78.3242 112.781C80.0833 111.861 82.0339 111.4 84.1758 111.4C86.2266 111.4 87.7988 111.847 88.8926 112.74C89.9863 113.633 90.5332 114.992 90.5332 116.814V127H87.6211ZM86.3906 119.918L84.7773 119.973C83.5651 120.009 82.6628 120.228 82.0703 120.629C81.4779 121.03 81.1816 121.641 81.1816 122.461C81.1816 123.637 81.8561 124.225 83.2051 124.225C84.1712 124.225 84.9414 123.947 85.5156 123.391C86.099 122.835 86.3906 122.096 86.3906 121.176V119.918ZM99.0098 127H94.8398V105.727H99.0098V127ZM109.729 114.395C108.844 114.395 108.152 114.677 107.65 115.242C107.149 115.798 106.862 116.591 106.789 117.621H112.641C112.622 116.591 112.354 115.798 111.834 115.242C111.314 114.677 110.613 114.395 109.729 114.395ZM110.316 127.273C107.855 127.273 105.932 126.594 104.547 125.236C103.161 123.878 102.469 121.955 102.469 119.467C102.469 116.906 103.107 114.928 104.383 113.533C105.668 112.13 107.441 111.428 109.701 111.428C111.861 111.428 113.543 112.043 114.746 113.273C115.949 114.504 116.551 116.204 116.551 118.373V120.396H106.693C106.739 121.581 107.09 122.507 107.746 123.172C108.402 123.837 109.323 124.17 110.508 124.17C111.428 124.17 112.299 124.074 113.119 123.883C113.939 123.691 114.796 123.386 115.689 122.967V126.193C114.96 126.558 114.181 126.827 113.352 127C112.522 127.182 111.51 127.273 110.316 127.273ZM133.654 123.951C134.383 123.951 135.258 123.792 136.279 123.473V126.576C135.24 127.041 133.964 127.273 132.451 127.273C130.783 127.273 129.566 126.854 128.801 126.016C128.044 125.168 127.666 123.901 127.666 122.215V114.846H125.67V113.082L127.967 111.688L129.17 108.461H131.836V111.715H136.115V114.846H131.836V122.215C131.836 122.807 132 123.245 132.328 123.527C132.665 123.81 133.107 123.951 133.654 123.951ZM142.705 119.33C142.705 120.843 142.951 121.987 143.443 122.762C143.945 123.536 144.756 123.924 145.877 123.924C146.989 123.924 147.786 123.541 148.27 122.775C148.762 122.001 149.008 120.852 149.008 119.33C149.008 117.817 148.762 116.682 148.27 115.926C147.777 115.169 146.971 114.791 145.85 114.791C144.738 114.791 143.936 115.169 143.443 115.926C142.951 116.673 142.705 117.808 142.705 119.33ZM153.273 119.33C153.273 121.818 152.617 123.764 151.305 125.168C149.992 126.572 148.165 127.273 145.822 127.273C144.355 127.273 143.061 126.954 141.939 126.316C140.818 125.669 139.957 124.744 139.355 123.541C138.754 122.338 138.453 120.934 138.453 119.33C138.453 116.833 139.105 114.891 140.408 113.506C141.712 112.12 143.544 111.428 145.904 111.428C147.372 111.428 148.666 111.747 149.787 112.385C150.908 113.023 151.77 113.939 152.371 115.133C152.973 116.327 153.273 117.726 153.273 119.33ZM163.049 114.395C162.165 114.395 161.472 114.677 160.971 115.242C160.469 115.798 160.182 116.591 160.109 117.621H165.961C165.943 116.591 165.674 115.798 165.154 115.242C164.635 114.677 163.933 114.395 163.049 114.395ZM163.637 127.273C161.176 127.273 159.253 126.594 157.867 125.236C156.482 123.878 155.789 121.955 155.789 119.467C155.789 116.906 156.427 114.928 157.703 113.533C158.988 112.13 160.761 111.428 163.021 111.428C165.182 111.428 166.863 112.043 168.066 113.273C169.27 114.504 169.871 116.204 169.871 118.373V120.396H160.014C160.059 121.581 160.41 122.507 161.066 123.172C161.723 123.837 162.643 124.17 163.828 124.17C164.749 124.17 165.619 124.074 166.439 123.883C167.26 123.691 168.117 123.386 169.01 122.967V126.193C168.281 126.558 167.501 126.827 166.672 127C165.842 127.182 164.831 127.273 163.637 127.273ZM177.432 127H173.262V105.727H177.432V127ZM191.527 127L190.721 124.922H190.611C189.91 125.806 189.185 126.421 188.438 126.768C187.699 127.105 186.733 127.273 185.539 127.273C184.072 127.273 182.914 126.854 182.066 126.016C181.228 125.177 180.809 123.983 180.809 122.434C180.809 120.811 181.374 119.617 182.504 118.852C183.643 118.077 185.357 117.648 187.645 117.566L190.297 117.484V116.814C190.297 115.265 189.504 114.49 187.918 114.49C186.697 114.49 185.261 114.859 183.611 115.598L182.23 112.781C183.99 111.861 185.94 111.4 188.082 111.4C190.133 111.4 191.705 111.847 192.799 112.74C193.893 113.633 194.439 114.992 194.439 116.814V127H191.527ZM190.297 119.918L188.684 119.973C187.471 120.009 186.569 120.228 185.977 120.629C185.384 121.03 185.088 121.641 185.088 122.461C185.088 123.637 185.762 124.225 187.111 124.225C188.077 124.225 188.848 123.947 189.422 123.391C190.005 122.835 190.297 122.096 190.297 121.176V119.918ZM212.049 111.715V113.834L209.656 114.449C210.094 115.133 210.312 115.898 210.312 116.746C210.312 118.387 209.738 119.667 208.59 120.588C207.451 121.499 205.865 121.955 203.832 121.955L203.08 121.914L202.465 121.846C202.036 122.174 201.822 122.538 201.822 122.939C201.822 123.541 202.588 123.842 204.119 123.842H206.717C208.394 123.842 209.67 124.202 210.545 124.922C211.429 125.642 211.871 126.699 211.871 128.094C211.871 129.88 211.124 131.266 209.629 132.25C208.143 133.234 206.006 133.727 203.217 133.727C201.084 133.727 199.452 133.353 198.322 132.605C197.201 131.867 196.641 130.828 196.641 129.488C196.641 128.568 196.928 127.798 197.502 127.178C198.076 126.558 198.919 126.116 200.031 125.852C199.603 125.669 199.229 125.373 198.91 124.963C198.591 124.544 198.432 124.102 198.432 123.637C198.432 123.053 198.6 122.57 198.938 122.188C199.275 121.796 199.762 121.413 200.4 121.039C199.598 120.693 198.96 120.137 198.486 119.371C198.021 118.605 197.789 117.703 197.789 116.664C197.789 114.996 198.331 113.706 199.416 112.795C200.501 111.883 202.05 111.428 204.064 111.428C204.493 111.428 204.999 111.469 205.582 111.551C206.174 111.624 206.553 111.678 206.717 111.715H212.049ZM200.25 129.16C200.25 129.734 200.523 130.186 201.07 130.514C201.626 130.842 202.401 131.006 203.395 131.006C204.889 131.006 206.061 130.801 206.908 130.391C207.756 129.98 208.18 129.42 208.18 128.709C208.18 128.135 207.929 127.738 207.428 127.52C206.926 127.301 206.152 127.191 205.104 127.191H202.943C202.178 127.191 201.535 127.369 201.016 127.725C200.505 128.089 200.25 128.568 200.25 129.16ZM201.768 116.719C201.768 117.548 201.954 118.204 202.328 118.688C202.711 119.171 203.29 119.412 204.064 119.412C204.848 119.412 205.423 119.171 205.787 118.688C206.152 118.204 206.334 117.548 206.334 116.719C206.334 114.878 205.577 113.957 204.064 113.957C202.533 113.957 201.768 114.878 201.768 116.719ZM220.908 114.395C220.024 114.395 219.331 114.677 218.83 115.242C218.329 115.798 218.042 116.591 217.969 117.621H223.82C223.802 116.591 223.533 115.798 223.014 115.242C222.494 114.677 221.792 114.395 220.908 114.395ZM221.496 127.273C219.035 127.273 217.112 126.594 215.727 125.236C214.341 123.878 213.648 121.955 213.648 119.467C213.648 116.906 214.286 114.928 215.562 113.533C216.848 112.13 218.62 111.428 220.881 111.428C223.041 111.428 224.723 112.043 225.926 113.273C227.129 114.504 227.73 116.204 227.73 118.373V120.396H217.873C217.919 121.581 218.27 122.507 218.926 123.172C219.582 123.837 220.503 124.17 221.688 124.17C222.608 124.17 223.479 124.074 224.299 123.883C225.119 123.691 225.976 123.386 226.869 122.967V126.193C226.14 126.558 225.361 126.827 224.531 127C223.702 127.182 222.69 127.273 221.496 127.273Z" fill="#333332"/>
<rect x="20" y="354" width="335" height="36" fill="#0055CC"/>
<path d="M109.793 367.186C110.605 367.186 111.315 367.382 111.921 367.774C112.537 368.157 113.013 368.721 113.349 369.468C113.695 370.215 113.867 371.12 113.867 372.184C113.867 373.229 113.695 374.125 113.349 374.872C113.013 375.619 112.537 376.188 111.921 376.58C111.315 376.972 110.605 377.168 109.793 377.168C108.981 377.168 108.267 376.977 107.651 376.594C107.045 376.211 106.569 375.647 106.223 374.9C105.887 374.153 105.719 373.253 105.719 372.198C105.719 371.162 105.887 370.266 106.223 369.51C106.569 368.754 107.049 368.18 107.665 367.788C108.281 367.387 108.991 367.186 109.793 367.186ZM109.793 368.278C108.953 368.278 108.3 368.595 107.833 369.23C107.367 369.865 107.133 370.854 107.133 372.198C107.133 373.533 107.367 374.513 107.833 375.138C108.309 375.763 108.963 376.076 109.793 376.076C111.567 376.076 112.453 374.779 112.453 372.184C112.453 369.58 111.567 368.278 109.793 368.278ZM119.361 369.454C120.303 369.454 120.994 369.79 121.433 370.462C121.871 371.134 122.091 372.081 122.091 373.304C122.091 374.461 121.839 375.395 121.335 376.104C120.831 376.813 120.117 377.168 119.193 377.168C118.371 377.168 117.727 376.888 117.261 376.328V379.828L115.973 379.982V369.622H117.079L117.177 370.616C117.447 370.243 117.774 369.958 118.157 369.762C118.539 369.557 118.941 369.454 119.361 369.454ZM118.885 376.118C120.098 376.118 120.705 375.18 120.705 373.304C120.705 371.419 120.149 370.476 119.039 370.476C118.675 370.476 118.343 370.583 118.045 370.798C117.746 371.013 117.485 371.288 117.261 371.624V375.222C117.447 375.511 117.681 375.735 117.961 375.894C118.241 376.043 118.549 376.118 118.885 376.118ZM129.857 373.094C129.857 373.309 129.848 373.528 129.829 373.752H125.125C125.181 374.564 125.386 375.161 125.741 375.544C126.096 375.927 126.553 376.118 127.113 376.118C127.468 376.118 127.794 376.067 128.093 375.964C128.392 375.861 128.704 375.698 129.031 375.474L129.591 376.244C128.807 376.86 127.948 377.168 127.015 377.168C125.988 377.168 125.186 376.832 124.607 376.16C124.038 375.488 123.753 374.564 123.753 373.388C123.753 372.623 123.874 371.946 124.117 371.358C124.369 370.761 124.724 370.294 125.181 369.958C125.648 369.622 126.194 369.454 126.819 369.454C127.799 369.454 128.55 369.776 129.073 370.42C129.596 371.064 129.857 371.955 129.857 373.094ZM128.583 372.716C128.583 371.988 128.438 371.433 128.149 371.05C127.86 370.667 127.426 370.476 126.847 370.476C125.792 370.476 125.218 371.251 125.125 372.8H128.583V372.716ZM135.386 369.454C136.058 369.454 136.581 369.655 136.954 370.056C137.337 370.457 137.528 371.008 137.528 371.708V377H136.24V371.89C136.24 371.367 136.142 370.999 135.946 370.784C135.75 370.569 135.461 370.462 135.078 370.462C134.686 370.462 134.341 370.574 134.042 370.798C133.743 371.022 133.463 371.344 133.202 371.764V377H131.914V369.622H133.02L133.132 370.714C133.393 370.322 133.715 370.014 134.098 369.79C134.49 369.566 134.919 369.454 135.386 369.454ZM145.689 373.094C145.689 373.309 145.68 373.528 145.661 373.752H140.957C141.013 374.564 141.218 375.161 141.573 375.544C141.928 375.927 142.385 376.118 142.945 376.118C143.3 376.118 143.626 376.067 143.925 375.964C144.224 375.861 144.536 375.698 144.863 375.474L145.423 376.244C144.639 376.86 143.78 377.168 142.847 377.168C141.82 377.168 141.018 376.832 140.439 376.16C139.87 375.488 139.585 374.564 139.585 373.388C139.585 372.623 139.706 371.946 139.949 371.358C140.201 370.761 140.556 370.294 141.013 369.958C141.48 369.622 142.026 369.454 142.651 369.454C143.631 369.454 144.382 369.776 144.905 370.42C145.428 371.064 145.689 371.955 145.689 373.094ZM144.415 372.716C144.415 371.988 144.27 371.433 143.981 371.05C143.692 370.667 143.258 370.476 142.679 370.476C141.624 370.476 141.05 371.251 140.957 372.8H144.415V372.716ZM151.218 369.454C151.89 369.454 152.413 369.655 152.786 370.056C153.169 370.457 153.36 371.008 153.36 371.708V377H152.072V371.89C152.072 371.367 151.974 370.999 151.778 370.784C151.582 370.569 151.293 370.462 150.91 370.462C150.518 370.462 150.173 370.574 149.874 370.798C149.575 371.022 149.295 371.344 149.034 371.764V377H147.746V369.622H148.852L148.964 370.714C149.225 370.322 149.547 370.014 149.93 369.79C150.322 369.566 150.751 369.454 151.218 369.454ZM167.06 369.454C167.667 369.454 168.152 369.659 168.516 370.07C168.88 370.471 169.062 371.017 169.062 371.708V377H167.774V371.89C167.774 370.938 167.429 370.462 166.738 370.462C166.374 370.462 166.066 370.569 165.814 370.784C165.562 370.989 165.292 371.316 165.002 371.764V377H163.714V371.89C163.714 370.938 163.369 370.462 162.678 370.462C162.305 370.462 161.992 370.569 161.74 370.784C161.488 370.999 161.222 371.325 160.942 371.764V377H159.654V369.622H160.76L160.872 370.7C161.423 369.869 162.132 369.454 163 369.454C163.458 369.454 163.845 369.571 164.162 369.804C164.489 370.037 164.722 370.364 164.862 370.784C165.152 370.355 165.469 370.028 165.814 369.804C166.169 369.571 166.584 369.454 167.06 369.454ZM177.23 373.094C177.23 373.309 177.221 373.528 177.202 373.752H172.498C172.554 374.564 172.759 375.161 173.114 375.544C173.469 375.927 173.926 376.118 174.486 376.118C174.841 376.118 175.167 376.067 175.466 375.964C175.765 375.861 176.077 375.698 176.404 375.474L176.964 376.244C176.18 376.86 175.321 377.168 174.388 377.168C173.361 377.168 172.559 376.832 171.98 376.16C171.411 375.488 171.126 374.564 171.126 373.388C171.126 372.623 171.247 371.946 171.49 371.358C171.742 370.761 172.097 370.294 172.554 369.958C173.021 369.622 173.567 369.454 174.192 369.454C175.172 369.454 175.923 369.776 176.446 370.42C176.969 371.064 177.23 371.955 177.23 373.094ZM175.956 372.716C175.956 371.988 175.811 371.433 175.522 371.05C175.233 370.667 174.799 370.476 174.22 370.476C173.165 370.476 172.591 371.251 172.498 372.8H175.956V372.716ZM183.011 376.664C182.526 377 181.975 377.168 181.359 377.168C180.734 377.168 180.244 376.991 179.889 376.636C179.544 376.272 179.371 375.749 179.371 375.068V370.616H178.083V369.622H179.371V367.956L180.659 367.802V369.622H182.409L182.269 370.616H180.659V375.012C180.659 375.395 180.724 375.675 180.855 375.852C180.995 376.02 181.224 376.104 181.541 376.104C181.83 376.104 182.157 376.006 182.521 375.81L183.011 376.664ZM193.763 366.654V377H192.629L192.503 375.978C192.26 376.351 191.957 376.645 191.593 376.86C191.229 377.065 190.823 377.168 190.375 377.168C189.497 377.168 188.811 376.823 188.317 376.132C187.831 375.441 187.589 374.513 187.589 373.346C187.589 372.59 187.705 371.918 187.939 371.33C188.172 370.742 188.508 370.285 188.947 369.958C189.385 369.622 189.899 369.454 190.487 369.454C191.243 369.454 191.905 369.757 192.475 370.364V366.5L193.763 366.654ZM190.655 376.146C191.047 376.146 191.383 376.057 191.663 375.88C191.943 375.693 192.213 375.418 192.475 375.054V371.442C192.232 371.125 191.971 370.887 191.691 370.728C191.42 370.56 191.112 370.476 190.767 370.476C190.197 370.476 189.754 370.714 189.437 371.19C189.129 371.666 188.975 372.375 188.975 373.318C188.975 374.27 189.119 374.979 189.409 375.446C189.698 375.913 190.113 376.146 190.655 376.146ZM201.388 375.278C201.388 375.577 201.439 375.801 201.542 375.95C201.645 376.09 201.799 376.197 202.004 376.272L201.71 377.168C201.327 377.121 201.019 377.014 200.786 376.846C200.553 376.678 200.38 376.417 200.268 376.062C199.773 376.799 199.041 377.168 198.07 377.168C197.342 377.168 196.768 376.963 196.348 376.552C195.928 376.141 195.718 375.605 195.718 374.942C195.718 374.158 195.998 373.556 196.558 373.136C197.127 372.716 197.93 372.506 198.966 372.506H200.1V371.96C200.1 371.437 199.974 371.064 199.722 370.84C199.47 370.616 199.083 370.504 198.56 370.504C198.019 370.504 197.356 370.635 196.572 370.896L196.25 369.958C197.165 369.622 198.014 369.454 198.798 369.454C199.666 369.454 200.315 369.669 200.744 370.098C201.173 370.518 201.388 371.12 201.388 371.904V375.278ZM198.364 376.202C199.101 376.202 199.68 375.819 200.1 375.054V373.36H199.134C197.771 373.36 197.09 373.864 197.09 374.872C197.09 375.311 197.197 375.642 197.412 375.866C197.627 376.09 197.944 376.202 198.364 376.202ZM207.757 376.664C207.272 377 206.721 377.168 206.105 377.168C205.48 377.168 204.99 376.991 204.635 376.636C204.29 376.272 204.117 375.749 204.117 375.068V370.616H202.829V369.622H204.117V367.956L205.405 367.802V369.622H207.155L207.015 370.616H205.405V375.012C205.405 375.395 205.47 375.675 205.601 375.852C205.741 376.02 205.97 376.104 206.287 376.104C206.576 376.104 206.903 376.006 207.267 375.81L207.757 376.664ZM213.966 375.278C213.966 375.577 214.017 375.801 214.12 375.95C214.223 376.09 214.377 376.197 214.582 376.272L214.288 377.168C213.905 377.121 213.597 377.014 213.364 376.846C213.131 376.678 212.958 376.417 212.846 376.062C212.351 376.799 211.619 377.168 210.648 377.168C209.92 377.168 209.346 376.963 208.926 376.552C208.506 376.141 208.296 375.605 208.296 374.942C208.296 374.158 208.576 373.556 209.136 373.136C209.705 372.716 210.508 372.506 211.544 372.506H212.678V371.96C212.678 371.437 212.552 371.064 212.3 370.84C212.048 370.616 211.661 370.504 211.138 370.504C210.597 370.504 209.934 370.635 209.15 370.896L208.828 369.958C209.743 369.622 210.592 369.454 211.376 369.454C212.244 369.454 212.893 369.669 213.322 370.098C213.751 370.518 213.966 371.12 213.966 371.904V375.278ZM210.942 376.202C211.679 376.202 212.258 375.819 212.678 375.054V373.36H211.712C210.349 373.36 209.668 373.864 209.668 374.872C209.668 375.311 209.775 375.642 209.99 375.866C210.205 376.09 210.522 376.202 210.942 376.202ZM223.69 369.454C224.53 369.454 225.198 369.795 225.692 370.476C226.187 371.148 226.434 372.091 226.434 373.304C226.434 374.069 226.318 374.746 226.084 375.334C225.851 375.913 225.515 376.365 225.076 376.692C224.638 377.009 224.124 377.168 223.536 377.168C222.762 377.168 222.108 376.841 221.576 376.188L221.45 377H220.316V366.654L221.604 366.5V370.546C222.136 369.818 222.832 369.454 223.69 369.454ZM223.228 376.146C223.798 376.146 224.241 375.917 224.558 375.46C224.885 374.993 225.048 374.275 225.048 373.304C225.048 372.305 224.899 371.587 224.6 371.148C224.302 370.7 223.877 370.476 223.326 370.476C222.673 370.476 222.099 370.859 221.604 371.624V375.152C221.8 375.46 222.038 375.703 222.318 375.88C222.608 376.057 222.911 376.146 223.228 376.146ZM231.835 369.454C232.096 369.454 232.339 369.482 232.563 369.538L232.325 370.798C232.101 370.742 231.886 370.714 231.681 370.714C231.223 370.714 230.855 370.882 230.575 371.218C230.295 371.554 230.075 372.077 229.917 372.786V377H228.629V369.622H229.735L229.861 371.12C230.057 370.569 230.323 370.154 230.659 369.874C230.995 369.594 231.387 369.454 231.835 369.454ZM236.377 369.454C237.413 369.454 238.216 369.799 238.785 370.49C239.364 371.181 239.653 372.119 239.653 373.304C239.653 374.069 239.523 374.746 239.261 375.334C239 375.913 238.622 376.365 238.127 376.692C237.633 377.009 237.045 377.168 236.363 377.168C235.327 377.168 234.52 376.823 233.941 376.132C233.363 375.441 233.073 374.503 233.073 373.318C233.073 372.553 233.204 371.881 233.465 371.302C233.727 370.714 234.105 370.261 234.599 369.944C235.094 369.617 235.687 369.454 236.377 369.454ZM236.377 370.49C235.099 370.49 234.459 371.433 234.459 373.318C234.459 375.194 235.094 376.132 236.363 376.132C237.633 376.132 238.267 375.189 238.267 373.304C238.267 371.428 237.637 370.49 236.377 370.49ZM250.209 369.622L248.529 377H246.779L245.491 370.784L244.161 377H242.453L240.731 369.622H242.019L243.349 376.104L244.805 369.622H246.247L247.633 376.104L248.977 369.622H250.209ZM253.818 369.454C254.322 369.454 254.775 369.524 255.176 369.664C255.578 369.804 255.96 370.014 256.324 370.294L255.778 371.106C255.442 370.891 255.12 370.733 254.812 370.63C254.514 370.527 254.196 370.476 253.86 370.476C253.44 370.476 253.109 370.565 252.866 370.742C252.624 370.91 252.502 371.143 252.502 371.442C252.502 371.741 252.614 371.974 252.838 372.142C253.072 372.31 253.487 372.473 254.084 372.632C254.906 372.837 255.517 373.117 255.918 373.472C256.329 373.827 256.534 374.312 256.534 374.928C256.534 375.656 256.25 376.211 255.68 376.594C255.12 376.977 254.434 377.168 253.622 377.168C252.502 377.168 251.574 376.846 250.836 376.202L251.522 375.418C252.148 375.894 252.838 376.132 253.594 376.132C254.08 376.132 254.462 376.034 254.742 375.838C255.032 375.633 255.176 375.357 255.176 375.012C255.176 374.76 255.125 374.559 255.022 374.41C254.92 374.251 254.742 374.116 254.49 374.004C254.238 373.883 253.87 373.757 253.384 373.626C252.6 373.421 252.031 373.145 251.676 372.8C251.331 372.455 251.158 372.016 251.158 371.484C251.158 371.101 251.27 370.756 251.494 370.448C251.728 370.131 252.045 369.888 252.446 369.72C252.857 369.543 253.314 369.454 253.818 369.454ZM263.923 373.094C263.923 373.309 263.914 373.528 263.895 373.752H259.191C259.247 374.564 259.453 375.161 259.807 375.544C260.162 375.927 260.619 376.118 261.179 376.118C261.534 376.118 261.861 376.067 262.159 375.964C262.458 375.861 262.771 375.698 263.097 375.474L263.657 376.244C262.873 376.86 262.015 377.168 261.081 377.168C260.055 377.168 259.252 376.832 258.673 376.16C258.104 375.488 257.819 374.564 257.819 373.388C257.819 372.623 257.941 371.946 258.183 371.358C258.435 370.761 258.79 370.294 259.247 369.958C259.714 369.622 260.26 369.454 260.885 369.454C261.865 369.454 262.617 369.776 263.139 370.42C263.662 371.064 263.923 371.955 263.923 373.094ZM262.649 372.716C262.649 371.988 262.505 371.433 262.215 371.05C261.926 370.667 261.492 370.476 260.913 370.476C259.859 370.476 259.285 371.251 259.191 372.8H262.649V372.716ZM269.186 369.454C269.448 369.454 269.69 369.482 269.914 369.538L269.676 370.798C269.452 370.742 269.238 370.714 269.032 370.714C268.575 370.714 268.206 370.882 267.926 371.218C267.646 371.554 267.427 372.077 267.268 372.786V377H265.98V369.622H267.086L267.212 371.12C267.408 370.569 267.674 370.154 268.01 369.874C268.346 369.594 268.738 369.454 269.186 369.454Z" fill="white"/>
<path d="M47.8661 363.25H41.875C41.5298 363.25 41.25 362.97 41.25 362.625C41.25 362.28 41.5298 362 41.875 362H49.375C49.7202 362 50 362.28 50 362.625V370.125C50 370.47 49.7202 370.75 49.375 370.75C49.0298 370.75 48.75 370.47 48.75 370.125V364.134L37.3169 375.567C37.0729 375.811 36.6771 375.811 36.4331 375.567C36.189 375.323 36.189 374.927 36.4331 374.683L47.8661 363.25ZM45 380.75V371.375C45 371.03 45.2798 370.75 45.625 370.75C45.9702 370.75 46.25 371.03 46.25 371.375V381.375C46.25 381.72 45.9702 382 45.625 382H30.625C30.2798 382 30 381.72 30 381.375V366.375C30 366.03 30.2798 365.75 30.625 365.75H40.625C40.9702 365.75 41.25 366.03 41.25 366.375C41.25 366.72 40.9702 367 40.625 367H31.25V380.75H45Z" fill="white"/>
<rect width="375" height="57" fill="white"/>
<path d="M80.9531 23.5781H83.3984L79.5156 35H76.875L73 23.5781H75.4453L77.5938 30.375C77.7135 30.776 77.8359 31.2448 77.9609 31.7812C78.0911 32.3125 78.1719 32.6823 78.2031 32.8906C78.2604 32.4115 78.4557 31.5729 78.7891 30.375L80.9531 23.5781ZM87.0391 35H84.6562V22.8438H87.0391V35ZM95.0938 35L94.6328 33.8125H94.5703C94.1693 34.3177 93.7552 34.6693 93.3281 34.8672C92.9062 35.0599 92.3542 35.1562 91.6719 35.1562C90.8333 35.1562 90.1719 34.9167 89.6875 34.4375C89.2083 33.9583 88.9688 33.276 88.9688 32.3906C88.9688 31.4635 89.2917 30.7812 89.9375 30.3438C90.5885 29.901 91.5677 29.6562 92.875 29.6094L94.3906 29.5625V29.1797C94.3906 28.2943 93.9375 27.8516 93.0312 27.8516C92.3333 27.8516 91.513 28.0625 90.5703 28.4844L89.7812 26.875C90.7865 26.349 91.901 26.0859 93.125 26.0859C94.2969 26.0859 95.1953 26.3411 95.8203 26.8516C96.4453 27.362 96.7578 28.138 96.7578 29.1797V35H95.0938ZM94.3906 30.9531L93.4688 30.9844C92.776 31.0052 92.2604 31.1302 91.9219 31.3594C91.5833 31.5885 91.4141 31.9375 91.4141 32.4062C91.4141 33.0781 91.7995 33.4141 92.5703 33.4141C93.1224 33.4141 93.5625 33.2552 93.8906 32.9375C94.224 32.6198 94.3906 32.1979 94.3906 31.6719V30.9531ZM104.766 35L104.305 33.8125H104.242C103.841 34.3177 103.427 34.6693 103 34.8672C102.578 35.0599 102.026 35.1562 101.344 35.1562C100.505 35.1562 99.8438 34.9167 99.3594 34.4375C98.8802 33.9583 98.6406 33.276 98.6406 32.3906C98.6406 31.4635 98.9635 30.7812 99.6094 30.3438C100.26 29.901 101.24 29.6562 102.547 29.6094L104.062 29.5625V29.1797C104.062 28.2943 103.609 27.8516 102.703 27.8516C102.005 27.8516 101.185 28.0625 100.242 28.4844L99.4531 26.875C100.458 26.349 101.573 26.0859 102.797 26.0859C103.969 26.0859 104.867 26.3411 105.492 26.8516C106.117 27.362 106.43 28.138 106.43 29.1797V35H104.766ZM104.062 30.9531L103.141 30.9844C102.448 31.0052 101.932 31.1302 101.594 31.3594C101.255 31.5885 101.086 31.9375 101.086 32.4062C101.086 33.0781 101.471 33.4141 102.242 33.4141C102.794 33.4141 103.234 33.2552 103.562 32.9375C103.896 32.6198 104.062 32.1979 104.062 31.6719V30.9531ZM116.953 35H114.57V29.8984C114.57 29.2682 114.458 28.7969 114.234 28.4844C114.01 28.1667 113.654 28.0078 113.164 28.0078C112.497 28.0078 112.016 28.2318 111.719 28.6797C111.422 29.1224 111.273 29.8594 111.273 30.8906V35H108.891V26.2656H110.711L111.031 27.3828H111.164C111.43 26.9609 111.794 26.6432 112.258 26.4297C112.727 26.2109 113.258 26.1016 113.852 26.1016C114.867 26.1016 115.638 26.3776 116.164 26.9297C116.69 27.4766 116.953 28.2682 116.953 29.3047V35ZM122.172 35.1562C121.146 35.1562 120.339 34.7578 119.75 33.9609C119.167 33.1641 118.875 32.0599 118.875 30.6484C118.875 29.2161 119.172 28.1016 119.766 27.3047C120.365 26.5026 121.188 26.1016 122.234 26.1016C123.333 26.1016 124.172 26.5286 124.75 27.3828H124.828C124.708 26.7318 124.648 26.151 124.648 25.6406V22.8438H127.039V35H125.211L124.75 33.8672H124.648C124.107 34.7266 123.281 35.1562 122.172 35.1562ZM123.008 33.2578C123.617 33.2578 124.062 33.0807 124.344 32.7266C124.63 32.3724 124.786 31.7708 124.812 30.9219V30.6641C124.812 29.7266 124.667 29.0547 124.375 28.6484C124.089 28.2422 123.62 28.0391 122.969 28.0391C122.438 28.0391 122.023 28.2656 121.727 28.7188C121.435 29.1667 121.289 29.8203 121.289 30.6797C121.289 31.5391 121.438 32.1849 121.734 32.6172C122.031 33.0443 122.456 33.2578 123.008 33.2578ZM133.148 27.7969C132.643 27.7969 132.247 27.9583 131.961 28.2812C131.674 28.599 131.51 29.0521 131.469 29.6406H134.812C134.802 29.0521 134.648 28.599 134.352 28.2812C134.055 27.9583 133.654 27.7969 133.148 27.7969ZM133.484 35.1562C132.078 35.1562 130.979 34.7682 130.188 33.9922C129.396 33.2161 129 32.1172 129 30.6953C129 29.2318 129.365 28.1016 130.094 27.3047C130.828 26.5026 131.841 26.1016 133.133 26.1016C134.367 26.1016 135.328 26.4531 136.016 27.1562C136.703 27.8594 137.047 28.8307 137.047 30.0703V31.2266H131.414C131.44 31.9036 131.641 32.4323 132.016 32.8125C132.391 33.1927 132.917 33.3828 133.594 33.3828C134.12 33.3828 134.617 33.3281 135.086 33.2188C135.555 33.1094 136.044 32.9349 136.555 32.6953V34.5391C136.138 34.7474 135.693 34.901 135.219 35C134.745 35.1042 134.167 35.1562 133.484 35.1562ZM143.859 26.1016C144.182 26.1016 144.451 26.125 144.664 26.1719L144.484 28.4062C144.292 28.3542 144.057 28.3281 143.781 28.3281C143.021 28.3281 142.427 28.5234 142 28.9141C141.578 29.3047 141.367 29.8516 141.367 30.5547V35H138.984V26.2656H140.789L141.141 27.7344H141.258C141.529 27.2448 141.893 26.8516 142.352 26.5547C142.815 26.2526 143.318 26.1016 143.859 26.1016ZM149.867 27.7969C149.362 27.7969 148.966 27.9583 148.68 28.2812C148.393 28.599 148.229 29.0521 148.188 29.6406H151.531C151.521 29.0521 151.367 28.599 151.07 28.2812C150.773 27.9583 150.372 27.7969 149.867 27.7969ZM150.203 35.1562C148.797 35.1562 147.698 34.7682 146.906 33.9922C146.115 33.2161 145.719 32.1172 145.719 30.6953C145.719 29.2318 146.083 28.1016 146.812 27.3047C147.547 26.5026 148.56 26.1016 149.852 26.1016C151.086 26.1016 152.047 26.4531 152.734 27.1562C153.422 27.8594 153.766 28.8307 153.766 30.0703V31.2266H148.133C148.159 31.9036 148.359 32.4323 148.734 32.8125C149.109 33.1927 149.635 33.3828 150.312 33.3828C150.839 33.3828 151.336 33.3281 151.805 33.2188C152.273 33.1094 152.763 32.9349 153.273 32.6953V34.5391C152.857 34.7474 152.411 34.901 151.938 35C151.464 35.1042 150.885 35.1562 150.203 35.1562ZM163.766 35H161.383V29.8984C161.383 29.2682 161.271 28.7969 161.047 28.4844C160.823 28.1667 160.466 28.0078 159.977 28.0078C159.31 28.0078 158.828 28.2318 158.531 28.6797C158.234 29.1224 158.086 29.8594 158.086 30.8906V35H155.703V26.2656H157.523L157.844 27.3828H157.977C158.242 26.9609 158.607 26.6432 159.07 26.4297C159.539 26.2109 160.07 26.1016 160.664 26.1016C161.68 26.1016 162.451 26.3776 162.977 26.9297C163.503 27.4766 163.766 28.2682 163.766 29.3047V35Z" fill="#333332"/>
<path d="M0 0H31.5L51 57H0V0Z" fill="#FFE615"/>
<path d="M31.5384 28.3825C30.1421 27.3167 29.4882 28.3907 28.6101 28.3194C27.867 28.2605 27.1706 27.061 26.5955 27.3475C25.4981 27.9061 27.0356 29.8808 27.7025 30.2832C28.2968 30.6396 29.0447 30.9672 29.2243 31.0508C30.1064 31.4628 30.4574 32.0865 30.5684 33.0612C30.5965 33.2846 30.5684 33.7946 30.5136 34.0317C30.1112 35.7398 27.1185 37.2916 25.4001 36.1174C24.5906 35.5636 23.8516 34.8474 23.596 33.5793C23.1333 31.3346 21.5128 29.6834 20.9933 27.4867C20.6773 26.1522 20.4435 24.7436 20.0953 23.4009C19.7409 22.0129 19.3763 20.638 19.0856 19.3768C18.8204 18.2041 18.2631 16.4521 17.8594 15.3843C16.2177 11.099 15.476 11.4102 15.476 11.4102C15.476 11.4102 16.0737 12.6001 18.2473 23.1027C18.3371 23.5325 19.1275 28.1591 19.7039 29.6821C19.9102 30.2283 20.2708 31.3949 20.5073 31.9097C21.1989 33.4148 23.0243 35.6959 23.1449 37.7522C23.2142 38.9407 23.3499 39.9249 23.378 40.8242C23.3951 41.0881 23.5116 42.1608 23.683 42.6371C24.1286 43.8914 27.7272 47.9381 31.548 47.9381V44.8716C27.7519 44.8716 24.1759 42.7441 24.0874 42.5206C24.0326 42.4198 24.2848 40.9688 24.5419 40.3238C25.0395 39.075 25.9772 37.9331 27.6264 37.8111C29.4655 37.6788 30.5753 38.2128 31.548 38.2128L31.5384 28.3825Z" fill="#363635"/>
<path d="M15.0523 17.2518C14.9132 19.5486 11.3586 22.6892 10.2448 24.7023C9.69918 25.6927 9.03296 27.3932 8.86092 28.3782C8.38798 31.1185 8.98772 32.8217 9.656 34.4256C10.8322 37.2447 9.49698 38.2811 10.4161 37.7095C11.5546 36.7814 11.3819 34.6182 11.2976 33.2673C11.2318 32.1713 11.1577 30.9245 11.3243 29.6181C11.6396 27.1739 13.1201 24.5494 14.3833 22.716C15.8837 20.5281 15.3388 18.2655 15.0523 17.2518Z" fill="#363635"/>
<path d="M15.7693 23.7746C15.7693 23.7746 16.1483 25.5937 14.5431 30.2724C10.3449 42.5098 18.3643 43.6689 20.6474 46.5463C20.6474 46.5463 21.5309 45.2995 17.8941 41.3104C16.5657 39.8525 15.3676 36.6406 16.4115 32.0531C17.9208 25.4107 15.7693 23.7746 15.7693 23.7746Z" fill="#363635"/>
<path d="M7.83 15.7518C7.63809 15.0287 7.57983 14.3824 7.62164 13.8052C7.81561 10.9299 10.4271 9.76608 11.0775 9.33769C11.0775 9.33769 12.2516 8.53369 12.4031 7.72147C12.4031 7.72147 13.6053 10.7476 10.8486 12.4817C9.44964 13.3625 8.49966 14.3947 7.83 15.7518Z" fill="#363635"/>
<path d="M14.4151 12.9727C14.5638 13.2647 15.6461 14.8487 11.2135 18.5068C6.78979 22.16 8.17159 24.7722 8.17159 24.7722C8.17159 24.7722 3.44907 22.1456 8.88854 17.6075C14.3266 13.0728 13.2122 12.1536 13.2122 12.1536C13.2122 12.1536 13.9908 12.1159 14.4151 12.9727Z" fill="#363635"/>
<path d="M22.5556 15.4479C22.62 15.2766 22.7126 15.4143 22.9065 15.2923C23.1128 15.097 23.3253 14.7769 23.6612 14.6693C23.9024 14.5953 24.2328 14.6302 24.4583 14.7173C24.6084 14.7543 24.5173 15.1402 24.4049 15.2389C24.1656 15.4157 23.4576 15.1244 23.4576 15.6549C23.4871 16.524 24.6331 15.6275 25.2322 15.6522C25.5248 17.7735 22.034 17.1896 22.5556 15.4479ZM20.1703 14.3732C20.936 14.4733 21.4233 16.8619 23.1944 17.3808C24.4967 17.7612 25.8812 17.5549 26.1883 18.3383C25.5906 18.6557 26.0615 19.7064 26.6626 19.5344C27.1589 18.1389 27.4084 12.7453 20.1703 14.3732Z" fill="#363635"/>
<line y1="56.5" x2="375" y2="56.5" stroke="#858597"/>
</svg>
