<svg width="335" height="38" viewBox="0 0 335 38" fill="none" xmlns="http://www.w3.org/2000/svg">
<path d="M139.572 19.912H138.074V24H136.744V14.354H139.278C140.482 14.354 141.392 14.5827 142.008 15.04C142.633 15.4973 142.946 16.1787 142.946 17.084C142.946 17.756 142.773 18.302 142.428 18.722C142.082 19.142 141.56 19.4593 140.86 19.674L143.464 24H141.882L139.572 19.912ZM139.418 18.89C140.118 18.89 140.645 18.75 141 18.47C141.354 18.1807 141.532 17.7187 141.532 17.084C141.532 16.4867 141.35 16.0573 140.986 15.796C140.631 15.5253 140.057 15.39 139.264 15.39H138.074V18.89H139.418ZM150.442 14.354L150.288 15.418H146.55V18.568H149.798V19.632H146.55V22.936H150.554V24H145.22V14.354H150.442ZM155.922 14.186C156.501 14.186 156.986 14.2607 157.378 14.41C157.78 14.5593 158.186 14.802 158.596 15.138L157.868 15.992C157.28 15.516 156.66 15.278 156.006 15.278C155.204 15.278 154.555 15.586 154.06 16.202C153.575 16.818 153.332 17.8073 153.332 19.17C153.332 20.4953 153.575 21.4753 154.06 22.11C154.546 22.7353 155.19 23.048 155.992 23.048C156.403 23.048 156.762 22.978 157.07 22.838C157.378 22.698 157.705 22.502 158.05 22.25L158.708 23.09C158.41 23.398 158.027 23.6547 157.56 23.86C157.094 24.0653 156.557 24.168 155.95 24.168C155.166 24.168 154.466 23.9767 153.85 23.594C153.244 23.202 152.768 22.6327 152.422 21.886C152.086 21.13 151.918 20.2247 151.918 19.17C151.918 18.1153 152.096 17.2147 152.45 16.468C152.805 15.712 153.286 15.1427 153.892 14.76C154.499 14.3773 155.176 14.186 155.922 14.186ZM161.712 14.354V24H160.382V14.354H161.712ZM167.045 14.354C168.24 14.354 169.164 14.606 169.817 15.11C170.471 15.6047 170.797 16.3467 170.797 17.336C170.797 18.3907 170.457 19.1747 169.775 19.688C169.094 20.2013 168.189 20.458 167.059 20.458H165.841V24H164.511V14.354H167.045ZM167.003 19.408C167.778 19.408 168.366 19.2587 168.767 18.96C169.178 18.6613 169.383 18.1247 169.383 17.35C169.383 16.6593 169.178 16.16 168.767 15.852C168.366 15.544 167.787 15.39 167.031 15.39H165.841V19.408H167.003ZM173.976 14.354V24H172.646V14.354H173.976ZM181.997 14.354L181.843 15.418H178.105V18.568H181.353V19.632H178.105V22.936H182.109V24H176.775V14.354H181.997ZM191.029 24H189.251L185.331 15.81C185.387 16.454 185.429 17.0513 185.457 17.602C185.495 18.1433 185.513 18.8013 185.513 19.576V24H184.267V14.354H186.003L189.965 22.558C189.937 22.3153 189.9 21.8907 189.853 21.284C189.807 20.6773 189.783 20.122 189.783 19.618V14.354H191.029V24ZM199.522 14.354L199.382 15.488H196.708V24H195.378V15.488H192.634V14.354H199.522Z" fill="#001028"/>
<line y1="0.5" x2="335" y2="0.5" stroke="#EEEEEE"/>
</svg>
