<svg width="375" height="812" viewBox="0 0 375 812" fill="none" xmlns="http://www.w3.org/2000/svg">
<rect width="375" height="812" fill="white"/>
<rect width="375" height="57" fill="white"/>
<path d="M80.9531 23.5781H83.3984L79.5156 35H76.875L73 23.5781H75.4453L77.5938 30.375C77.7135 30.776 77.8359 31.2448 77.9609 31.7812C78.0911 32.3125 78.1719 32.6823 78.2031 32.8906C78.2604 32.4115 78.4557 31.5729 78.7891 30.375L80.9531 23.5781ZM87.0391 35H84.6562V22.8438H87.0391V35ZM95.0938 35L94.6328 33.8125H94.5703C94.1693 34.3177 93.7552 34.6693 93.3281 34.8672C92.9062 35.0599 92.3542 35.1562 91.6719 35.1562C90.8333 35.1562 90.1719 34.9167 89.6875 34.4375C89.2083 33.9583 88.9688 33.276 88.9688 32.3906C88.9688 31.4635 89.2917 30.7812 89.9375 30.3438C90.5885 29.901 91.5677 29.6562 92.875 29.6094L94.3906 29.5625V29.1797C94.3906 28.2943 93.9375 27.8516 93.0312 27.8516C92.3333 27.8516 91.513 28.0625 90.5703 28.4844L89.7812 26.875C90.7865 26.349 91.901 26.0859 93.125 26.0859C94.2969 26.0859 95.1953 26.3411 95.8203 26.8516C96.4453 27.362 96.7578 28.138 96.7578 29.1797V35H95.0938ZM94.3906 30.9531L93.4688 30.9844C92.776 31.0052 92.2604 31.1302 91.9219 31.3594C91.5833 31.5885 91.4141 31.9375 91.4141 32.4062C91.4141 33.0781 91.7995 33.4141 92.5703 33.4141C93.1224 33.4141 93.5625 33.2552 93.8906 32.9375C94.224 32.6198 94.3906 32.1979 94.3906 31.6719V30.9531ZM104.766 35L104.305 33.8125H104.242C103.841 34.3177 103.427 34.6693 103 34.8672C102.578 35.0599 102.026 35.1562 101.344 35.1562C100.505 35.1562 99.8438 34.9167 99.3594 34.4375C98.8802 33.9583 98.6406 33.276 98.6406 32.3906C98.6406 31.4635 98.9635 30.7812 99.6094 30.3438C100.26 29.901 101.24 29.6562 102.547 29.6094L104.062 29.5625V29.1797C104.062 28.2943 103.609 27.8516 102.703 27.8516C102.005 27.8516 101.185 28.0625 100.242 28.4844L99.4531 26.875C100.458 26.349 101.573 26.0859 102.797 26.0859C103.969 26.0859 104.867 26.3411 105.492 26.8516C106.117 27.362 106.43 28.138 106.43 29.1797V35H104.766ZM104.062 30.9531L103.141 30.9844C102.448 31.0052 101.932 31.1302 101.594 31.3594C101.255 31.5885 101.086 31.9375 101.086 32.4062C101.086 33.0781 101.471 33.4141 102.242 33.4141C102.794 33.4141 103.234 33.2552 103.562 32.9375C103.896 32.6198 104.062 32.1979 104.062 31.6719V30.9531ZM116.953 35H114.57V29.8984C114.57 29.2682 114.458 28.7969 114.234 28.4844C114.01 28.1667 113.654 28.0078 113.164 28.0078C112.497 28.0078 112.016 28.2318 111.719 28.6797C111.422 29.1224 111.273 29.8594 111.273 30.8906V35H108.891V26.2656H110.711L111.031 27.3828H111.164C111.43 26.9609 111.794 26.6432 112.258 26.4297C112.727 26.2109 113.258 26.1016 113.852 26.1016C114.867 26.1016 115.638 26.3776 116.164 26.9297C116.69 27.4766 116.953 28.2682 116.953 29.3047V35ZM122.172 35.1562C121.146 35.1562 120.339 34.7578 119.75 33.9609C119.167 33.1641 118.875 32.0599 118.875 30.6484C118.875 29.2161 119.172 28.1016 119.766 27.3047C120.365 26.5026 121.188 26.1016 122.234 26.1016C123.333 26.1016 124.172 26.5286 124.75 27.3828H124.828C124.708 26.7318 124.648 26.151 124.648 25.6406V22.8438H127.039V35H125.211L124.75 33.8672H124.648C124.107 34.7266 123.281 35.1562 122.172 35.1562ZM123.008 33.2578C123.617 33.2578 124.062 33.0807 124.344 32.7266C124.63 32.3724 124.786 31.7708 124.812 30.9219V30.6641C124.812 29.7266 124.667 29.0547 124.375 28.6484C124.089 28.2422 123.62 28.0391 122.969 28.0391C122.438 28.0391 122.023 28.2656 121.727 28.7188C121.435 29.1667 121.289 29.8203 121.289 30.6797C121.289 31.5391 121.438 32.1849 121.734 32.6172C122.031 33.0443 122.456 33.2578 123.008 33.2578ZM133.148 27.7969C132.643 27.7969 132.247 27.9583 131.961 28.2812C131.674 28.599 131.51 29.0521 131.469 29.6406H134.812C134.802 29.0521 134.648 28.599 134.352 28.2812C134.055 27.9583 133.654 27.7969 133.148 27.7969ZM133.484 35.1562C132.078 35.1562 130.979 34.7682 130.188 33.9922C129.396 33.2161 129 32.1172 129 30.6953C129 29.2318 129.365 28.1016 130.094 27.3047C130.828 26.5026 131.841 26.1016 133.133 26.1016C134.367 26.1016 135.328 26.4531 136.016 27.1562C136.703 27.8594 137.047 28.8307 137.047 30.0703V31.2266H131.414C131.44 31.9036 131.641 32.4323 132.016 32.8125C132.391 33.1927 132.917 33.3828 133.594 33.3828C134.12 33.3828 134.617 33.3281 135.086 33.2188C135.555 33.1094 136.044 32.9349 136.555 32.6953V34.5391C136.138 34.7474 135.693 34.901 135.219 35C134.745 35.1042 134.167 35.1562 133.484 35.1562ZM143.859 26.1016C144.182 26.1016 144.451 26.125 144.664 26.1719L144.484 28.4062C144.292 28.3542 144.057 28.3281 143.781 28.3281C143.021 28.3281 142.427 28.5234 142 28.9141C141.578 29.3047 141.367 29.8516 141.367 30.5547V35H138.984V26.2656H140.789L141.141 27.7344H141.258C141.529 27.2448 141.893 26.8516 142.352 26.5547C142.815 26.2526 143.318 26.1016 143.859 26.1016ZM149.867 27.7969C149.362 27.7969 148.966 27.9583 148.68 28.2812C148.393 28.599 148.229 29.0521 148.188 29.6406H151.531C151.521 29.0521 151.367 28.599 151.07 28.2812C150.773 27.9583 150.372 27.7969 149.867 27.7969ZM150.203 35.1562C148.797 35.1562 147.698 34.7682 146.906 33.9922C146.115 33.2161 145.719 32.1172 145.719 30.6953C145.719 29.2318 146.083 28.1016 146.812 27.3047C147.547 26.5026 148.56 26.1016 149.852 26.1016C151.086 26.1016 152.047 26.4531 152.734 27.1562C153.422 27.8594 153.766 28.8307 153.766 30.0703V31.2266H148.133C148.159 31.9036 148.359 32.4323 148.734 32.8125C149.109 33.1927 149.635 33.3828 150.312 33.3828C150.839 33.3828 151.336 33.3281 151.805 33.2188C152.273 33.1094 152.763 32.9349 153.273 32.6953V34.5391C152.857 34.7474 152.411 34.901 151.938 35C151.464 35.1042 150.885 35.1562 150.203 35.1562ZM163.766 35H161.383V29.8984C161.383 29.2682 161.271 28.7969 161.047 28.4844C160.823 28.1667 160.466 28.0078 159.977 28.0078C159.31 28.0078 158.828 28.2318 158.531 28.6797C158.234 29.1224 158.086 29.8594 158.086 30.8906V35H155.703V26.2656H157.523L157.844 27.3828H157.977C158.242 26.9609 158.607 26.6432 159.07 26.4297C159.539 26.2109 160.07 26.1016 160.664 26.1016C161.68 26.1016 162.451 26.3776 162.977 26.9297C163.503 27.4766 163.766 28.2682 163.766 29.3047V35Z" fill="#333332"/>
<path d="M0 0H31.5L51 57H0V0Z" fill="#FFE615"/>
<path d="M31.5383 28.3825C30.142 27.3167 29.4881 28.3907 28.61 28.3194C27.867 28.2605 27.1706 27.061 26.5955 27.3475C25.498 27.9061 27.0355 29.8808 27.7025 30.2832C28.2968 30.6396 29.0446 30.9672 29.2242 31.0508C30.1064 31.4628 30.4573 32.0865 30.5684 33.0612C30.5965 33.2846 30.5684 33.7946 30.5135 34.0317C30.1112 35.7398 27.1185 37.2916 25.4 36.1174C24.5905 35.5636 23.8516 34.8474 23.5959 33.5793C23.1332 31.3346 21.5128 29.6834 20.9932 27.4867C20.6772 26.1522 20.4435 24.7436 20.0953 23.4009C19.7409 22.0129 19.3762 20.638 19.0856 19.3768C18.8203 18.2041 18.263 16.4521 17.8593 15.3843C16.2176 11.099 15.476 11.4102 15.476 11.4102C15.476 11.4102 16.0737 12.6001 18.2473 23.1027C18.3371 23.5325 19.1274 28.1591 19.7039 29.6821C19.9102 30.2283 20.2707 31.3949 20.5072 31.9097C21.1988 33.4148 23.0242 35.6959 23.1449 37.7522C23.2141 38.9407 23.3498 39.9249 23.3779 40.8242C23.3951 41.0881 23.5116 42.1608 23.6829 42.6371C24.1285 43.8914 27.7271 47.9381 31.5479 47.9381V44.8716C27.7518 44.8716 24.1758 42.7441 24.0874 42.5206C24.0325 42.4198 24.2848 40.9688 24.5418 40.3238C25.0395 39.075 25.9772 37.9331 27.6264 37.8111C29.4655 37.6788 30.5752 38.2128 31.5479 38.2128L31.5383 28.3825Z" fill="#363635"/>
<path d="M15.0523 17.2518C14.9132 19.5486 11.3586 22.6892 10.2448 24.7023C9.69918 25.6927 9.03296 27.3932 8.86092 28.3782C8.38798 31.1185 8.98772 32.8217 9.656 34.4256C10.8322 37.2447 9.49698 38.2811 10.4161 37.7095C11.5546 36.7814 11.3819 34.6182 11.2976 33.2673C11.2318 32.1713 11.1577 30.9245 11.3243 29.6181C11.6396 27.1739 13.1201 24.5494 14.3833 22.716C15.8837 20.5281 15.3388 18.2655 15.0523 17.2518Z" fill="#363635"/>
<path d="M15.7693 23.7746C15.7693 23.7746 16.1483 25.5937 14.5431 30.2724C10.3449 42.5098 18.3643 43.6689 20.6474 46.5463C20.6474 46.5463 21.5309 45.2995 17.8941 41.3104C16.5657 39.8525 15.3676 36.6406 16.4115 32.0531C17.9208 25.4107 15.7693 23.7746 15.7693 23.7746Z" fill="#363635"/>
<path d="M7.82994 15.7518C7.63803 15.0287 7.57976 14.3824 7.62158 13.8052C7.81555 10.9299 10.427 9.76608 11.0775 9.33769C11.0775 9.33769 12.2516 8.53369 12.403 7.72147C12.403 7.72147 13.6053 10.7476 10.8485 12.4817C9.44958 13.3625 8.4996 14.3947 7.82994 15.7518Z" fill="#363635"/>
<path d="M14.4151 12.9727C14.5638 13.2647 15.6461 14.8487 11.2135 18.5068C6.78979 22.16 8.17159 24.7722 8.17159 24.7722C8.17159 24.7722 3.44907 22.1456 8.88854 17.6075C14.3266 13.0728 13.2122 12.1536 13.2122 12.1536C13.2122 12.1536 13.9908 12.1159 14.4151 12.9727Z" fill="#363635"/>
<path d="M22.5557 15.4479C22.6201 15.2766 22.7126 15.4143 22.9066 15.2923C23.1129 15.097 23.3254 14.7769 23.6612 14.6693C23.9025 14.5953 24.2329 14.6302 24.4584 14.7173C24.6085 14.7543 24.5173 15.1402 24.4049 15.2389C24.1657 15.4157 23.4577 15.1244 23.4577 15.6549C23.4871 16.524 24.6332 15.6275 25.2322 15.6522C25.5249 17.7735 22.0341 17.1896 22.5557 15.4479ZM20.1704 14.3732C20.936 14.4733 21.4234 16.8619 23.1945 17.3808C24.4968 17.7612 25.8813 17.5549 26.1884 18.3383C25.5907 18.6557 26.0616 19.7064 26.6627 19.5344C27.1589 18.1389 27.4084 12.7453 20.1704 14.3732Z" fill="#363635"/>
<line y1="56.5" x2="375" y2="56.5" stroke="#858597"/>
</svg>
