<svg width="375" height="812" viewBox="0 0 375 812" fill="none" xmlns="http://www.w3.org/2000/svg">
<rect width="375" height="812" fill="white"/>
<path d="M21.5703 172V160.578H22.8984V170.797H27.9375V172H21.5703ZM37.0781 167.711C37.0781 169.107 36.7266 170.198 36.0234 170.984C35.3203 171.766 34.349 172.156 33.1094 172.156C32.3438 172.156 31.6641 171.977 31.0703 171.617C30.4766 171.258 30.0182 170.742 29.6953 170.07C29.3724 169.398 29.2109 168.612 29.2109 167.711C29.2109 166.315 29.5599 165.229 30.2578 164.453C30.9557 163.672 31.9245 163.281 33.1641 163.281C34.362 163.281 35.3125 163.68 36.0156 164.477C36.724 165.273 37.0781 166.352 37.0781 167.711ZM30.5547 167.711C30.5547 168.805 30.7734 169.638 31.2109 170.211C31.6484 170.784 32.2917 171.07 33.1406 171.07C33.9896 171.07 34.6328 170.786 35.0703 170.219C35.513 169.646 35.7344 168.81 35.7344 167.711C35.7344 166.622 35.513 165.797 35.0703 165.234C34.6328 164.667 33.9844 164.383 33.125 164.383C32.276 164.383 31.6354 164.661 31.2031 165.219C30.7708 165.776 30.5547 166.607 30.5547 167.711ZM43.2656 163.281C43.6458 163.281 43.987 163.312 44.2891 163.375L44.1094 164.578C43.7552 164.5 43.4427 164.461 43.1719 164.461C42.4792 164.461 41.8854 164.742 41.3906 165.305C40.901 165.867 40.6562 166.568 40.6562 167.406V172H39.3594V163.438H40.4297L40.5781 165.023H40.6406C40.9583 164.466 41.3411 164.036 41.7891 163.734C42.237 163.432 42.7292 163.281 43.2656 163.281ZM49.5078 172.156C48.2422 172.156 47.2422 171.771 46.5078 171C45.7786 170.229 45.4141 169.159 45.4141 167.789C45.4141 166.409 45.7526 165.312 46.4297 164.5C47.112 163.688 48.026 163.281 49.1719 163.281C50.2448 163.281 51.0938 163.635 51.7188 164.344C52.3438 165.047 52.6562 165.977 52.6562 167.133V167.953H46.7578C46.7839 168.958 47.0365 169.721 47.5156 170.242C48 170.763 48.6797 171.023 49.5547 171.023C50.4766 171.023 51.388 170.831 52.2891 170.445V171.602C51.8307 171.799 51.3958 171.94 50.9844 172.023C50.5781 172.112 50.0859 172.156 49.5078 172.156ZM49.1562 164.367C48.4688 164.367 47.9193 164.591 47.5078 165.039C47.1016 165.487 46.862 166.107 46.7891 166.898H51.2656C51.2656 166.081 51.0833 165.456 50.7188 165.023C50.3542 164.586 49.8333 164.367 49.1562 164.367ZM65.7891 172V166.43C65.7891 165.747 65.6432 165.237 65.3516 164.898C65.0599 164.555 64.6068 164.383 63.9922 164.383C63.1849 164.383 62.5885 164.615 62.2031 165.078C61.8177 165.542 61.625 166.255 61.625 167.219V172H60.3281V166.43C60.3281 165.747 60.1823 165.237 59.8906 164.898C59.599 164.555 59.1432 164.383 58.5234 164.383C57.7109 164.383 57.1146 164.628 56.7344 165.117C56.3594 165.602 56.1719 166.398 56.1719 167.508V172H54.875V163.438H55.9297L56.1406 164.609H56.2031C56.4479 164.193 56.7917 163.867 57.2344 163.633C57.6823 163.398 58.1823 163.281 58.7344 163.281C60.0729 163.281 60.9479 163.766 61.3594 164.734H61.4219C61.6771 164.286 62.0469 163.932 62.5312 163.672C63.0156 163.411 63.5677 163.281 64.1875 163.281C65.1562 163.281 65.8802 163.531 66.3594 164.031C66.8438 164.526 67.0859 165.32 67.0859 166.414V172H65.7891ZM75.2188 172H73.9219V163.438H75.2188V172ZM73.8125 161.117C73.8125 160.82 73.8854 160.604 74.0312 160.469C74.1771 160.328 74.3594 160.258 74.5781 160.258C74.7865 160.258 74.9661 160.328 75.1172 160.469C75.2682 160.609 75.3438 160.826 75.3438 161.117C75.3438 161.409 75.2682 161.628 75.1172 161.773C74.9661 161.914 74.7865 161.984 74.5781 161.984C74.3594 161.984 74.1771 161.914 74.0312 161.773C73.8854 161.628 73.8125 161.409 73.8125 161.117ZM81.9531 172.156C81.3958 172.156 80.8854 172.055 80.4219 171.852C79.9635 171.643 79.5781 171.326 79.2656 170.898H79.1719C79.2344 171.398 79.2656 171.872 79.2656 172.32V175.844H77.9688V163.438H79.0234L79.2031 164.609H79.2656C79.599 164.141 79.987 163.802 80.4297 163.594C80.8724 163.385 81.3802 163.281 81.9531 163.281C83.0885 163.281 83.9635 163.669 84.5781 164.445C85.1979 165.221 85.5078 166.31 85.5078 167.711C85.5078 169.117 85.1927 170.211 84.5625 170.992C83.9375 171.768 83.0677 172.156 81.9531 172.156ZM81.7656 164.383C80.8906 164.383 80.2578 164.625 79.8672 165.109C79.4766 165.594 79.276 166.365 79.2656 167.422V167.711C79.2656 168.914 79.4661 169.776 79.8672 170.297C80.2682 170.812 80.9115 171.07 81.7969 171.07C82.5365 171.07 83.1146 170.771 83.5312 170.172C83.9531 169.573 84.1641 168.747 84.1641 167.695C84.1641 166.628 83.9531 165.81 83.5312 165.242C83.1146 164.669 82.526 164.383 81.7656 164.383ZM93.3047 169.664C93.3047 170.461 93.0078 171.076 92.4141 171.508C91.8203 171.94 90.987 172.156 89.9141 172.156C88.7786 172.156 87.8932 171.977 87.2578 171.617V170.414C87.6693 170.622 88.1094 170.786 88.5781 170.906C89.0521 171.026 89.5078 171.086 89.9453 171.086C90.6224 171.086 91.1432 170.979 91.5078 170.766C91.8724 170.547 92.0547 170.216 92.0547 169.773C92.0547 169.44 91.9089 169.156 91.6172 168.922C91.3307 168.682 90.7682 168.401 89.9297 168.078C89.1328 167.781 88.5651 167.523 88.2266 167.305C87.8932 167.081 87.6432 166.828 87.4766 166.547C87.3151 166.266 87.2344 165.93 87.2344 165.539C87.2344 164.841 87.5182 164.292 88.0859 163.891C88.6536 163.484 89.4323 163.281 90.4219 163.281C91.3438 163.281 92.2448 163.469 93.125 163.844L92.6641 164.898C91.8047 164.544 91.026 164.367 90.3281 164.367C89.7135 164.367 89.25 164.464 88.9375 164.656C88.625 164.849 88.4688 165.115 88.4688 165.453C88.4688 165.682 88.526 165.878 88.6406 166.039C88.7604 166.201 88.9505 166.354 89.2109 166.5C89.4714 166.646 89.9714 166.857 90.7109 167.133C91.7266 167.503 92.4115 167.875 92.7656 168.25C93.125 168.625 93.3047 169.096 93.3047 169.664ZM96.6406 163.438V168.992C96.6406 169.69 96.7995 170.211 97.1172 170.555C97.4349 170.898 97.9323 171.07 98.6094 171.07C99.5052 171.07 100.159 170.826 100.57 170.336C100.987 169.846 101.195 169.047 101.195 167.938V163.438H102.492V172H101.422L101.234 170.852H101.164C100.898 171.273 100.529 171.596 100.055 171.82C99.5859 172.044 99.0495 172.156 98.4453 172.156C97.4036 172.156 96.6224 171.909 96.1016 171.414C95.5859 170.919 95.3281 170.128 95.3281 169.039V163.438H96.6406ZM116.164 172V166.43C116.164 165.747 116.018 165.237 115.727 164.898C115.435 164.555 114.982 164.383 114.367 164.383C113.56 164.383 112.964 164.615 112.578 165.078C112.193 165.542 112 166.255 112 167.219V172H110.703V166.43C110.703 165.747 110.557 165.237 110.266 164.898C109.974 164.555 109.518 164.383 108.898 164.383C108.086 164.383 107.49 164.628 107.109 165.117C106.734 165.602 106.547 166.398 106.547 167.508V172H105.25V163.438H106.305L106.516 164.609H106.578C106.823 164.193 107.167 163.867 107.609 163.633C108.057 163.398 108.557 163.281 109.109 163.281C110.448 163.281 111.323 163.766 111.734 164.734H111.797C112.052 164.286 112.422 163.932 112.906 163.672C113.391 163.411 113.943 163.281 114.562 163.281C115.531 163.281 116.255 163.531 116.734 164.031C117.219 164.526 117.461 165.32 117.461 166.414V172H116.164ZM130.125 170.852H130.055C129.456 171.721 128.56 172.156 127.367 172.156C126.247 172.156 125.375 171.773 124.75 171.008C124.13 170.242 123.82 169.154 123.82 167.742C123.82 166.331 124.133 165.234 124.758 164.453C125.383 163.672 126.253 163.281 127.367 163.281C128.529 163.281 129.419 163.703 130.039 164.547H130.141L130.086 163.93L130.055 163.328V159.844H131.352V172H130.297L130.125 170.852ZM127.531 171.07C128.417 171.07 129.057 170.831 129.453 170.352C129.854 169.867 130.055 169.089 130.055 168.016V167.742C130.055 166.529 129.852 165.664 129.445 165.148C129.044 164.628 128.401 164.367 127.516 164.367C126.755 164.367 126.172 164.664 125.766 165.258C125.365 165.846 125.164 166.68 125.164 167.758C125.164 168.852 125.365 169.677 125.766 170.234C126.167 170.792 126.755 171.07 127.531 171.07ZM141.5 167.711C141.5 169.107 141.148 170.198 140.445 170.984C139.742 171.766 138.771 172.156 137.531 172.156C136.766 172.156 136.086 171.977 135.492 171.617C134.898 171.258 134.44 170.742 134.117 170.07C133.794 169.398 133.633 168.612 133.633 167.711C133.633 166.315 133.982 165.229 134.68 164.453C135.378 163.672 136.346 163.281 137.586 163.281C138.784 163.281 139.734 163.68 140.438 164.477C141.146 165.273 141.5 166.352 141.5 167.711ZM134.977 167.711C134.977 168.805 135.195 169.638 135.633 170.211C136.07 170.784 136.714 171.07 137.562 171.07C138.411 171.07 139.055 170.786 139.492 170.219C139.935 169.646 140.156 168.81 140.156 167.711C140.156 166.622 139.935 165.797 139.492 165.234C139.055 164.667 138.406 164.383 137.547 164.383C136.698 164.383 136.057 164.661 135.625 165.219C135.193 165.776 134.977 166.607 134.977 167.711ZM145.078 172H143.781V159.844H145.078V172ZM155.219 167.711C155.219 169.107 154.867 170.198 154.164 170.984C153.461 171.766 152.49 172.156 151.25 172.156C150.484 172.156 149.805 171.977 149.211 171.617C148.617 171.258 148.159 170.742 147.836 170.07C147.513 169.398 147.352 168.612 147.352 167.711C147.352 166.315 147.701 165.229 148.398 164.453C149.096 163.672 150.065 163.281 151.305 163.281C152.503 163.281 153.453 163.68 154.156 164.477C154.865 165.273 155.219 166.352 155.219 167.711ZM148.695 167.711C148.695 168.805 148.914 169.638 149.352 170.211C149.789 170.784 150.432 171.07 151.281 171.07C152.13 171.07 152.773 170.786 153.211 170.219C153.654 169.646 153.875 168.81 153.875 167.711C153.875 166.622 153.654 165.797 153.211 165.234C152.773 164.667 152.125 164.383 151.266 164.383C150.417 164.383 149.776 164.661 149.344 165.219C148.911 165.776 148.695 166.607 148.695 167.711ZM161.406 163.281C161.786 163.281 162.128 163.312 162.43 163.375L162.25 164.578C161.896 164.5 161.583 164.461 161.312 164.461C160.62 164.461 160.026 164.742 159.531 165.305C159.042 165.867 158.797 166.568 158.797 167.406V172H157.5V163.438H158.57L158.719 165.023H158.781C159.099 164.466 159.482 164.036 159.93 163.734C160.378 163.432 160.87 163.281 161.406 163.281ZM173.711 169.664C173.711 170.461 173.414 171.076 172.82 171.508C172.227 171.94 171.393 172.156 170.32 172.156C169.185 172.156 168.299 171.977 167.664 171.617V170.414C168.076 170.622 168.516 170.786 168.984 170.906C169.458 171.026 169.914 171.086 170.352 171.086C171.029 171.086 171.549 170.979 171.914 170.766C172.279 170.547 172.461 170.216 172.461 169.773C172.461 169.44 172.315 169.156 172.023 168.922C171.737 168.682 171.174 168.401 170.336 168.078C169.539 167.781 168.971 167.523 168.633 167.305C168.299 167.081 168.049 166.828 167.883 166.547C167.721 166.266 167.641 165.93 167.641 165.539C167.641 164.841 167.924 164.292 168.492 163.891C169.06 163.484 169.839 163.281 170.828 163.281C171.75 163.281 172.651 163.469 173.531 163.844L173.07 164.898C172.211 164.544 171.432 164.367 170.734 164.367C170.12 164.367 169.656 164.464 169.344 164.656C169.031 164.849 168.875 165.115 168.875 165.453C168.875 165.682 168.932 165.878 169.047 166.039C169.167 166.201 169.357 166.354 169.617 166.5C169.878 166.646 170.378 166.857 171.117 167.133C172.133 167.503 172.818 167.875 173.172 168.25C173.531 168.625 173.711 169.096 173.711 169.664ZM177.125 172H175.828V163.438H177.125V172ZM175.719 161.117C175.719 160.82 175.792 160.604 175.938 160.469C176.083 160.328 176.266 160.258 176.484 160.258C176.693 160.258 176.872 160.328 177.023 160.469C177.174 160.609 177.25 160.826 177.25 161.117C177.25 161.409 177.174 161.628 177.023 161.773C176.872 161.914 176.693 161.984 176.484 161.984C176.266 161.984 176.083 161.914 175.938 161.773C175.792 161.628 175.719 161.409 175.719 161.117ZM182.641 171.086C182.87 171.086 183.091 171.07 183.305 171.039C183.518 171.003 183.688 170.966 183.812 170.93V171.922C183.672 171.99 183.464 172.044 183.188 172.086C182.917 172.133 182.672 172.156 182.453 172.156C180.797 172.156 179.969 171.284 179.969 169.539V164.445H178.742V163.82L179.969 163.281L180.516 161.453H181.266V163.438H183.75V164.445H181.266V169.484C181.266 170 181.388 170.396 181.633 170.672C181.878 170.948 182.214 171.086 182.641 171.086ZM194.953 172L194.695 170.781H194.633C194.206 171.318 193.779 171.682 193.352 171.875C192.93 172.062 192.401 172.156 191.766 172.156C190.917 172.156 190.25 171.938 189.766 171.5C189.286 171.062 189.047 170.44 189.047 169.633C189.047 167.904 190.43 166.997 193.195 166.914L194.648 166.867V166.336C194.648 165.664 194.503 165.169 194.211 164.852C193.924 164.529 193.464 164.367 192.828 164.367C192.115 164.367 191.307 164.586 190.406 165.023L190.008 164.031C190.43 163.802 190.891 163.622 191.391 163.492C191.896 163.362 192.401 163.297 192.906 163.297C193.927 163.297 194.682 163.523 195.172 163.977C195.667 164.43 195.914 165.156 195.914 166.156V172H194.953ZM192.023 171.086C192.831 171.086 193.464 170.865 193.922 170.422C194.385 169.979 194.617 169.359 194.617 168.562V167.789L193.32 167.844C192.289 167.88 191.544 168.042 191.086 168.328C190.633 168.609 190.406 169.049 190.406 169.648C190.406 170.117 190.547 170.474 190.828 170.719C191.115 170.964 191.513 171.086 192.023 171.086ZM209.508 172V166.43C209.508 165.747 209.362 165.237 209.07 164.898C208.779 164.555 208.326 164.383 207.711 164.383C206.904 164.383 206.307 164.615 205.922 165.078C205.536 165.542 205.344 166.255 205.344 167.219V172H204.047V166.43C204.047 165.747 203.901 165.237 203.609 164.898C203.318 164.555 202.862 164.383 202.242 164.383C201.43 164.383 200.833 164.628 200.453 165.117C200.078 165.602 199.891 166.398 199.891 167.508V172H198.594V163.438H199.648L199.859 164.609H199.922C200.167 164.193 200.51 163.867 200.953 163.633C201.401 163.398 201.901 163.281 202.453 163.281C203.792 163.281 204.667 163.766 205.078 164.734H205.141C205.396 164.286 205.766 163.932 206.25 163.672C206.734 163.411 207.286 163.281 207.906 163.281C208.875 163.281 209.599 163.531 210.078 164.031C210.562 164.526 210.805 165.32 210.805 166.414V172H209.508ZM217.102 172.156C215.836 172.156 214.836 171.771 214.102 171C213.372 170.229 213.008 169.159 213.008 167.789C213.008 166.409 213.346 165.312 214.023 164.5C214.706 163.688 215.62 163.281 216.766 163.281C217.839 163.281 218.688 163.635 219.312 164.344C219.938 165.047 220.25 165.977 220.25 167.133V167.953H214.352C214.378 168.958 214.63 169.721 215.109 170.242C215.594 170.763 216.273 171.023 217.148 171.023C218.07 171.023 218.982 170.831 219.883 170.445V171.602C219.424 171.799 218.99 171.94 218.578 172.023C218.172 172.112 217.68 172.156 217.102 172.156ZM216.75 164.367C216.062 164.367 215.513 164.591 215.102 165.039C214.695 165.487 214.456 166.107 214.383 166.898H218.859C218.859 166.081 218.677 165.456 218.312 165.023C217.948 164.586 217.427 164.367 216.75 164.367ZM225.234 171.086C225.464 171.086 225.685 171.07 225.898 171.039C226.112 171.003 226.281 170.966 226.406 170.93V171.922C226.266 171.99 226.057 172.044 225.781 172.086C225.51 172.133 225.266 172.156 225.047 172.156C223.391 172.156 222.562 171.284 222.562 169.539V164.445H221.336V163.82L222.562 163.281L223.109 161.453H223.859V163.438H226.344V164.445H223.859V169.484C223.859 170 223.982 170.396 224.227 170.672C224.471 170.948 224.807 171.086 225.234 171.086ZM229.484 170.141L229.602 170.32C229.466 170.841 229.271 171.445 229.016 172.133C228.76 172.826 228.495 173.469 228.219 174.062H227.242C227.383 173.521 227.536 172.852 227.703 172.055C227.875 171.258 227.995 170.62 228.062 170.141H229.484ZM239.625 172.156C238.385 172.156 237.424 171.776 236.742 171.016C236.065 170.25 235.727 169.169 235.727 167.773C235.727 166.341 236.07 165.234 236.758 164.453C237.451 163.672 238.435 163.281 239.711 163.281C240.122 163.281 240.534 163.326 240.945 163.414C241.357 163.503 241.68 163.607 241.914 163.727L241.516 164.828C241.229 164.714 240.917 164.62 240.578 164.547C240.24 164.469 239.94 164.43 239.68 164.43C237.94 164.43 237.07 165.539 237.07 167.758C237.07 168.81 237.281 169.617 237.703 170.18C238.13 170.742 238.76 171.023 239.594 171.023C240.307 171.023 241.039 170.87 241.789 170.562V171.711C241.216 172.008 240.495 172.156 239.625 172.156ZM251.219 167.711C251.219 169.107 250.867 170.198 250.164 170.984C249.461 171.766 248.49 172.156 247.25 172.156C246.484 172.156 245.805 171.977 245.211 171.617C244.617 171.258 244.159 170.742 243.836 170.07C243.513 169.398 243.352 168.612 243.352 167.711C243.352 166.315 243.701 165.229 244.398 164.453C245.096 163.672 246.065 163.281 247.305 163.281C248.503 163.281 249.453 163.68 250.156 164.477C250.865 165.273 251.219 166.352 251.219 167.711ZM244.695 167.711C244.695 168.805 244.914 169.638 245.352 170.211C245.789 170.784 246.432 171.07 247.281 171.07C248.13 171.07 248.773 170.786 249.211 170.219C249.654 169.646 249.875 168.81 249.875 167.711C249.875 166.622 249.654 165.797 249.211 165.234C248.773 164.667 248.125 164.383 247.266 164.383C246.417 164.383 245.776 164.661 245.344 165.219C244.911 165.776 244.695 166.607 244.695 167.711ZM259.359 172V166.461C259.359 165.763 259.201 165.242 258.883 164.898C258.565 164.555 258.068 164.383 257.391 164.383C256.495 164.383 255.839 164.625 255.422 165.109C255.005 165.594 254.797 166.393 254.797 167.508V172H253.5V163.438H254.555L254.766 164.609H254.828C255.094 164.188 255.466 163.862 255.945 163.633C256.424 163.398 256.958 163.281 257.547 163.281C258.578 163.281 259.354 163.531 259.875 164.031C260.396 164.526 260.656 165.32 260.656 166.414V172H259.359ZM268.852 169.664C268.852 170.461 268.555 171.076 267.961 171.508C267.367 171.94 266.534 172.156 265.461 172.156C264.326 172.156 263.44 171.977 262.805 171.617V170.414C263.216 170.622 263.656 170.786 264.125 170.906C264.599 171.026 265.055 171.086 265.492 171.086C266.169 171.086 266.69 170.979 267.055 170.766C267.419 170.547 267.602 170.216 267.602 169.773C267.602 169.44 267.456 169.156 267.164 168.922C266.878 168.682 266.315 168.401 265.477 168.078C264.68 167.781 264.112 167.523 263.773 167.305C263.44 167.081 263.19 166.828 263.023 166.547C262.862 166.266 262.781 165.93 262.781 165.539C262.781 164.841 263.065 164.292 263.633 163.891C264.201 163.484 264.979 163.281 265.969 163.281C266.891 163.281 267.792 163.469 268.672 163.844L268.211 164.898C267.352 164.544 266.573 164.367 265.875 164.367C265.26 164.367 264.797 164.464 264.484 164.656C264.172 164.849 264.016 165.115 264.016 165.453C264.016 165.682 264.073 165.878 264.188 166.039C264.307 166.201 264.497 166.354 264.758 166.5C265.018 166.646 265.518 166.857 266.258 167.133C267.273 167.503 267.958 167.875 268.312 168.25C268.672 168.625 268.852 169.096 268.852 169.664ZM274.586 172.156C273.32 172.156 272.32 171.771 271.586 171C270.857 170.229 270.492 169.159 270.492 167.789C270.492 166.409 270.831 165.312 271.508 164.5C272.19 163.688 273.104 163.281 274.25 163.281C275.323 163.281 276.172 163.635 276.797 164.344C277.422 165.047 277.734 165.977 277.734 167.133V167.953H271.836C271.862 168.958 272.115 169.721 272.594 170.242C273.078 170.763 273.758 171.023 274.633 171.023C275.555 171.023 276.466 170.831 277.367 170.445V171.602C276.909 171.799 276.474 171.94 276.062 172.023C275.656 172.112 275.164 172.156 274.586 172.156ZM274.234 164.367C273.547 164.367 272.997 164.591 272.586 165.039C272.18 165.487 271.94 166.107 271.867 166.898H276.344C276.344 166.081 276.161 165.456 275.797 165.023C275.432 164.586 274.911 164.367 274.234 164.367ZM283.375 172.156C282.135 172.156 281.174 171.776 280.492 171.016C279.815 170.25 279.477 169.169 279.477 167.773C279.477 166.341 279.82 165.234 280.508 164.453C281.201 163.672 282.185 163.281 283.461 163.281C283.872 163.281 284.284 163.326 284.695 163.414C285.107 163.503 285.43 163.607 285.664 163.727L285.266 164.828C284.979 164.714 284.667 164.62 284.328 164.547C283.99 164.469 283.69 164.43 283.43 164.43C281.69 164.43 280.82 165.539 280.82 167.758C280.82 168.81 281.031 169.617 281.453 170.18C281.88 170.742 282.51 171.023 283.344 171.023C284.057 171.023 284.789 170.87 285.539 170.562V171.711C284.966 172.008 284.245 172.156 283.375 172.156ZM290.344 171.086C290.573 171.086 290.794 171.07 291.008 171.039C291.221 171.003 291.391 170.966 291.516 170.93V171.922C291.375 171.99 291.167 172.044 290.891 172.086C290.62 172.133 290.375 172.156 290.156 172.156C288.5 172.156 287.672 171.284 287.672 169.539V164.445H286.445V163.82L287.672 163.281L288.219 161.453H288.969V163.438H291.453V164.445H288.969V169.484C288.969 170 289.091 170.396 289.336 170.672C289.581 170.948 289.917 171.086 290.344 171.086ZM296.852 172.156C295.586 172.156 294.586 171.771 293.852 171C293.122 170.229 292.758 169.159 292.758 167.789C292.758 166.409 293.096 165.312 293.773 164.5C294.456 163.688 295.37 163.281 296.516 163.281C297.589 163.281 298.438 163.635 299.062 164.344C299.688 165.047 300 165.977 300 167.133V167.953H294.102C294.128 168.958 294.38 169.721 294.859 170.242C295.344 170.763 296.023 171.023 296.898 171.023C297.82 171.023 298.732 170.831 299.633 170.445V171.602C299.174 171.799 298.74 171.94 298.328 172.023C297.922 172.112 297.43 172.156 296.852 172.156ZM296.5 164.367C295.812 164.367 295.263 164.591 294.852 165.039C294.445 165.487 294.206 166.107 294.133 166.898H298.609C298.609 166.081 298.427 165.456 298.062 165.023C297.698 164.586 297.177 164.367 296.5 164.367ZM304.984 171.086C305.214 171.086 305.435 171.07 305.648 171.039C305.862 171.003 306.031 170.966 306.156 170.93V171.922C306.016 171.99 305.807 172.044 305.531 172.086C305.26 172.133 305.016 172.156 304.797 172.156C303.141 172.156 302.312 171.284 302.312 169.539V164.445H301.086V163.82L302.312 163.281L302.859 161.453H303.609V163.438H306.094V164.445H303.609V169.484C303.609 170 303.732 170.396 303.977 170.672C304.221 170.948 304.557 171.086 304.984 171.086ZM309.094 163.438V168.992C309.094 169.69 309.253 170.211 309.57 170.555C309.888 170.898 310.385 171.07 311.062 171.07C311.958 171.07 312.612 170.826 313.023 170.336C313.44 169.846 313.648 169.047 313.648 167.938V163.438H314.945V172H313.875L313.688 170.852H313.617C313.352 171.273 312.982 171.596 312.508 171.82C312.039 172.044 311.503 172.156 310.898 172.156C309.857 172.156 309.076 171.909 308.555 171.414C308.039 170.919 307.781 170.128 307.781 169.039V163.438H309.094ZM321.609 163.281C321.99 163.281 322.331 163.312 322.633 163.375L322.453 164.578C322.099 164.5 321.786 164.461 321.516 164.461C320.823 164.461 320.229 164.742 319.734 165.305C319.245 165.867 319 166.568 319 167.406V172H317.703V163.438H318.773L318.922 165.023H318.984C319.302 164.466 319.685 164.036 320.133 163.734C320.581 163.432 321.073 163.281 321.609 163.281ZM26.6406 194L26.3828 192.781H26.3203C25.8932 193.318 25.4661 193.682 25.0391 193.875C24.6172 194.062 24.0885 194.156 23.4531 194.156C22.6042 194.156 21.9375 193.938 21.4531 193.5C20.974 193.062 20.7344 192.44 20.7344 191.633C20.7344 189.904 22.1172 188.997 24.8828 188.914L26.3359 188.867V188.336C26.3359 187.664 26.1901 187.169 25.8984 186.852C25.612 186.529 25.151 186.367 24.5156 186.367C23.8021 186.367 22.9948 186.586 22.0938 187.023L21.6953 186.031C22.1172 185.802 22.5781 185.622 23.0781 185.492C23.5833 185.362 24.0885 185.297 24.5938 185.297C25.6146 185.297 26.3698 185.523 26.8594 185.977C27.3542 186.43 27.6016 187.156 27.6016 188.156V194H26.6406ZM23.7109 193.086C24.5182 193.086 25.151 192.865 25.6094 192.422C26.0729 191.979 26.3047 191.359 26.3047 190.562V189.789L25.0078 189.844C23.9766 189.88 23.2318 190.042 22.7734 190.328C22.3203 190.609 22.0938 191.049 22.0938 191.648C22.0938 192.117 22.2344 192.474 22.5156 192.719C22.8021 192.964 23.2005 193.086 23.7109 193.086ZM36.1094 192.852H36.0391C35.4401 193.721 34.5443 194.156 33.3516 194.156C32.2318 194.156 31.3594 193.773 30.7344 193.008C30.1146 192.242 29.8047 191.154 29.8047 189.742C29.8047 188.331 30.1172 187.234 30.7422 186.453C31.3672 185.672 32.237 185.281 33.3516 185.281C34.513 185.281 35.4036 185.703 36.0234 186.547H36.125L36.0703 185.93L36.0391 185.328V181.844H37.3359V194H36.2812L36.1094 192.852ZM33.5156 193.07C34.401 193.07 35.0417 192.831 35.4375 192.352C35.8385 191.867 36.0391 191.089 36.0391 190.016V189.742C36.0391 188.529 35.8359 187.664 35.4297 187.148C35.0286 186.628 34.3854 186.367 33.5 186.367C32.7396 186.367 32.1562 186.664 31.75 187.258C31.349 187.846 31.1484 188.68 31.1484 189.758C31.1484 190.852 31.349 191.677 31.75 192.234C32.151 192.792 32.7396 193.07 33.5156 193.07ZM41.3906 194H40.0938V185.438H41.3906V194ZM39.9844 183.117C39.9844 182.82 40.0573 182.604 40.2031 182.469C40.349 182.328 40.5312 182.258 40.75 182.258C40.9583 182.258 41.138 182.328 41.2891 182.469C41.4401 182.609 41.5156 182.826 41.5156 183.117C41.5156 183.409 41.4401 183.628 41.2891 183.773C41.138 183.914 40.9583 183.984 40.75 183.984C40.5312 183.984 40.349 183.914 40.2031 183.773C40.0573 183.628 39.9844 183.409 39.9844 183.117ZM48.125 194.156C47.5677 194.156 47.0573 194.055 46.5938 193.852C46.1354 193.643 45.75 193.326 45.4375 192.898H45.3438C45.4062 193.398 45.4375 193.872 45.4375 194.32V197.844H44.1406V185.438H45.1953L45.375 186.609H45.4375C45.7708 186.141 46.1589 185.802 46.6016 185.594C47.0443 185.385 47.5521 185.281 48.125 185.281C49.2604 185.281 50.1354 185.669 50.75 186.445C51.3698 187.221 51.6797 188.31 51.6797 189.711C51.6797 191.117 51.3646 192.211 50.7344 192.992C50.1094 193.768 49.2396 194.156 48.125 194.156ZM47.9375 186.383C47.0625 186.383 46.4297 186.625 46.0391 187.109C45.6484 187.594 45.4479 188.365 45.4375 189.422V189.711C45.4375 190.914 45.638 191.776 46.0391 192.297C46.4401 192.812 47.0833 193.07 47.9688 193.07C48.7083 193.07 49.2865 192.771 49.7031 192.172C50.125 191.573 50.3359 190.747 50.3359 189.695C50.3359 188.628 50.125 187.81 49.7031 187.242C49.2865 186.669 48.6979 186.383 47.9375 186.383ZM55.25 194H53.9531V185.438H55.25V194ZM53.8438 183.117C53.8438 182.82 53.9167 182.604 54.0625 182.469C54.2083 182.328 54.3906 182.258 54.6094 182.258C54.8177 182.258 54.9974 182.328 55.1484 182.469C55.2995 182.609 55.375 182.826 55.375 183.117C55.375 183.409 55.2995 183.628 55.1484 183.773C54.9974 183.914 54.8177 183.984 54.6094 183.984C54.3906 183.984 54.2083 183.914 54.0625 183.773C53.9167 183.628 53.8438 183.409 53.8438 183.117ZM63.5234 191.664C63.5234 192.461 63.2266 193.076 62.6328 193.508C62.0391 193.94 61.2057 194.156 60.1328 194.156C58.9974 194.156 58.112 193.977 57.4766 193.617V192.414C57.888 192.622 58.3281 192.786 58.7969 192.906C59.2708 193.026 59.7266 193.086 60.1641 193.086C60.8411 193.086 61.362 192.979 61.7266 192.766C62.0911 192.547 62.2734 192.216 62.2734 191.773C62.2734 191.44 62.1276 191.156 61.8359 190.922C61.5495 190.682 60.987 190.401 60.1484 190.078C59.3516 189.781 58.7839 189.523 58.4453 189.305C58.112 189.081 57.862 188.828 57.6953 188.547C57.5339 188.266 57.4531 187.93 57.4531 187.539C57.4531 186.841 57.737 186.292 58.3047 185.891C58.8724 185.484 59.651 185.281 60.6406 185.281C61.5625 185.281 62.4635 185.469 63.3438 185.844L62.8828 186.898C62.0234 186.544 61.2448 186.367 60.5469 186.367C59.9323 186.367 59.4688 186.464 59.1562 186.656C58.8438 186.849 58.6875 187.115 58.6875 187.453C58.6875 187.682 58.7448 187.878 58.8594 188.039C58.9792 188.201 59.1693 188.354 59.4297 188.5C59.6901 188.646 60.1901 188.857 60.9297 189.133C61.9453 189.503 62.6302 189.875 62.9844 190.25C63.3438 190.625 63.5234 191.096 63.5234 191.664ZM69.0625 194.156C67.8229 194.156 66.862 193.776 66.1797 193.016C65.5026 192.25 65.1641 191.169 65.1641 189.773C65.1641 188.341 65.5078 187.234 66.1953 186.453C66.888 185.672 67.8724 185.281 69.1484 185.281C69.5599 185.281 69.9714 185.326 70.3828 185.414C70.7943 185.503 71.1172 185.607 71.3516 185.727L70.9531 186.828C70.6667 186.714 70.3542 186.62 70.0156 186.547C69.6771 186.469 69.3776 186.43 69.1172 186.43C67.3776 186.43 66.5078 187.539 66.5078 189.758C66.5078 190.81 66.7188 191.617 67.1406 192.18C67.5677 192.742 68.1979 193.023 69.0312 193.023C69.7448 193.023 70.4766 192.87 71.2266 192.562V193.711C70.6536 194.008 69.9323 194.156 69.0625 194.156ZM74.5625 194H73.2656V185.438H74.5625V194ZM73.1562 183.117C73.1562 182.82 73.2292 182.604 73.375 182.469C73.5208 182.328 73.7031 182.258 73.9219 182.258C74.1302 182.258 74.3099 182.328 74.4609 182.469C74.612 182.609 74.6875 182.826 74.6875 183.117C74.6875 183.409 74.612 183.628 74.4609 183.773C74.3099 183.914 74.1302 183.984 73.9219 183.984C73.7031 183.984 73.5208 183.914 73.375 183.773C73.2292 183.628 73.1562 183.409 73.1562 183.117ZM83.1719 194V188.461C83.1719 187.763 83.013 187.242 82.6953 186.898C82.3776 186.555 81.8802 186.383 81.2031 186.383C80.3073 186.383 79.651 186.625 79.2344 187.109C78.8177 187.594 78.6094 188.393 78.6094 189.508V194H77.3125V185.438H78.3672L78.5781 186.609H78.6406C78.9062 186.188 79.2786 185.862 79.7578 185.633C80.237 185.398 80.7708 185.281 81.3594 185.281C82.3906 185.281 83.1667 185.531 83.6875 186.031C84.2083 186.526 84.4688 187.32 84.4688 188.414V194H83.1719ZM94.1484 185.438V186.258L92.5625 186.445C92.7083 186.628 92.8385 186.867 92.9531 187.164C93.0677 187.456 93.125 187.786 93.125 188.156C93.125 188.995 92.8385 189.664 92.2656 190.164C91.6927 190.664 90.9062 190.914 89.9062 190.914C89.651 190.914 89.4115 190.893 89.1875 190.852C88.6354 191.143 88.3594 191.51 88.3594 191.953C88.3594 192.188 88.4557 192.362 88.6484 192.477C88.8411 192.586 89.1719 192.641 89.6406 192.641H91.1562C92.0833 192.641 92.7943 192.836 93.2891 193.227C93.7891 193.617 94.0391 194.185 94.0391 194.93C94.0391 195.878 93.6589 196.599 92.8984 197.094C92.138 197.594 91.0286 197.844 89.5703 197.844C88.4505 197.844 87.5859 197.635 86.9766 197.219C86.3724 196.802 86.0703 196.214 86.0703 195.453C86.0703 194.932 86.237 194.482 86.5703 194.102C86.9036 193.721 87.3724 193.464 87.9766 193.328C87.7578 193.229 87.5729 193.076 87.4219 192.867C87.276 192.659 87.2031 192.417 87.2031 192.141C87.2031 191.828 87.2865 191.555 87.4531 191.32C87.6198 191.086 87.8828 190.859 88.2422 190.641C87.7995 190.458 87.4375 190.148 87.1562 189.711C86.8802 189.273 86.7422 188.773 86.7422 188.211C86.7422 187.273 87.0234 186.552 87.5859 186.047C88.1484 185.536 88.9453 185.281 89.9766 185.281C90.4245 185.281 90.8281 185.333 91.1875 185.438H94.1484ZM87.3203 195.438C87.3203 195.901 87.5156 196.253 87.9062 196.492C88.2969 196.732 88.8568 196.852 89.5859 196.852C90.6745 196.852 91.4792 196.688 92 196.359C92.526 196.036 92.7891 195.596 92.7891 195.039C92.7891 194.576 92.6458 194.253 92.3594 194.07C92.0729 193.893 91.5339 193.805 90.7422 193.805H89.1875C88.599 193.805 88.1406 193.945 87.8125 194.227C87.4844 194.508 87.3203 194.911 87.3203 195.438ZM88.0234 188.18C88.0234 188.779 88.1927 189.232 88.5312 189.539C88.8698 189.846 89.3411 190 89.9453 190C91.2109 190 91.8438 189.385 91.8438 188.156C91.8438 186.87 91.2031 186.227 89.9219 186.227C89.3125 186.227 88.8438 186.391 88.5156 186.719C88.1875 187.047 88.0234 187.534 88.0234 188.18ZM103.68 194.156C102.414 194.156 101.414 193.771 100.68 193C99.9505 192.229 99.5859 191.159 99.5859 189.789C99.5859 188.409 99.9245 187.312 100.602 186.5C101.284 185.688 102.198 185.281 103.344 185.281C104.417 185.281 105.266 185.635 105.891 186.344C106.516 187.047 106.828 187.977 106.828 189.133V189.953H100.93C100.956 190.958 101.208 191.721 101.688 192.242C102.172 192.763 102.852 193.023 103.727 193.023C104.648 193.023 105.56 192.831 106.461 192.445V193.602C106.003 193.799 105.568 193.94 105.156 194.023C104.75 194.112 104.258 194.156 103.68 194.156ZM103.328 186.367C102.641 186.367 102.091 186.591 101.68 187.039C101.273 187.487 101.034 188.107 100.961 188.898H105.438C105.438 188.081 105.255 187.456 104.891 187.023C104.526 186.586 104.005 186.367 103.328 186.367ZM110.344 194H109.047V181.844H110.344V194ZM114.391 194H113.094V185.438H114.391V194ZM112.984 183.117C112.984 182.82 113.057 182.604 113.203 182.469C113.349 182.328 113.531 182.258 113.75 182.258C113.958 182.258 114.138 182.328 114.289 182.469C114.44 182.609 114.516 182.826 114.516 183.117C114.516 183.409 114.44 183.628 114.289 183.773C114.138 183.914 113.958 183.984 113.75 183.984C113.531 183.984 113.349 183.914 113.203 183.773C113.057 183.628 112.984 183.409 112.984 183.117ZM119.906 193.086C120.135 193.086 120.357 193.07 120.57 193.039C120.784 193.003 120.953 192.966 121.078 192.93V193.922C120.938 193.99 120.729 194.044 120.453 194.086C120.182 194.133 119.938 194.156 119.719 194.156C118.062 194.156 117.234 193.284 117.234 191.539V186.445H116.008V185.82L117.234 185.281L117.781 183.453H118.531V185.438H121.016V186.445H118.531V191.484C118.531 192 118.654 192.396 118.898 192.672C119.143 192.948 119.479 193.086 119.906 193.086ZM122.609 193.172C122.609 192.823 122.688 192.56 122.844 192.383C123.005 192.201 123.234 192.109 123.531 192.109C123.833 192.109 124.068 192.201 124.234 192.383C124.406 192.56 124.492 192.823 124.492 193.172C124.492 193.51 124.406 193.771 124.234 193.953C124.062 194.135 123.828 194.227 123.531 194.227C123.266 194.227 123.044 194.146 122.867 193.984C122.695 193.818 122.609 193.547 122.609 193.172ZM137.938 182.578H139.367L135.25 194H133.938L129.844 182.578H131.25L133.875 189.969C134.177 190.818 134.417 191.643 134.594 192.445C134.781 191.602 135.026 190.76 135.328 189.922L137.938 182.578ZM142.047 194H140.75V185.438H142.047V194ZM140.641 183.117C140.641 182.82 140.714 182.604 140.859 182.469C141.005 182.328 141.188 182.258 141.406 182.258C141.615 182.258 141.794 182.328 141.945 182.469C142.096 182.609 142.172 182.826 142.172 183.117C142.172 183.409 142.096 183.628 141.945 183.773C141.794 183.914 141.615 183.984 141.406 183.984C141.188 183.984 141.005 183.914 140.859 183.773C140.714 183.628 140.641 183.409 140.641 183.117ZM146.672 194L143.422 185.438H144.812L146.656 190.516C147.073 191.703 147.318 192.474 147.391 192.828H147.453C147.51 192.552 147.69 191.982 147.992 191.117C148.299 190.247 148.984 188.354 150.047 185.438H151.438L148.188 194H146.672ZM158.078 194L157.82 192.781H157.758C157.331 193.318 156.904 193.682 156.477 193.875C156.055 194.062 155.526 194.156 154.891 194.156C154.042 194.156 153.375 193.938 152.891 193.5C152.411 193.062 152.172 192.44 152.172 191.633C152.172 189.904 153.555 188.997 156.32 188.914L157.773 188.867V188.336C157.773 187.664 157.628 187.169 157.336 186.852C157.049 186.529 156.589 186.367 155.953 186.367C155.24 186.367 154.432 186.586 153.531 187.023L153.133 186.031C153.555 185.802 154.016 185.622 154.516 185.492C155.021 185.362 155.526 185.297 156.031 185.297C157.052 185.297 157.807 185.523 158.297 185.977C158.792 186.43 159.039 187.156 159.039 188.156V194H158.078ZM155.148 193.086C155.956 193.086 156.589 192.865 157.047 192.422C157.51 191.979 157.742 191.359 157.742 190.562V189.789L156.445 189.844C155.414 189.88 154.669 190.042 154.211 190.328C153.758 190.609 153.531 191.049 153.531 191.648C153.531 192.117 153.672 192.474 153.953 192.719C154.24 192.964 154.638 193.086 155.148 193.086ZM172.633 194V188.43C172.633 187.747 172.487 187.237 172.195 186.898C171.904 186.555 171.451 186.383 170.836 186.383C170.029 186.383 169.432 186.615 169.047 187.078C168.661 187.542 168.469 188.255 168.469 189.219V194H167.172V188.43C167.172 187.747 167.026 187.237 166.734 186.898C166.443 186.555 165.987 186.383 165.367 186.383C164.555 186.383 163.958 186.628 163.578 187.117C163.203 187.602 163.016 188.398 163.016 189.508V194H161.719V185.438H162.773L162.984 186.609H163.047C163.292 186.193 163.635 185.867 164.078 185.633C164.526 185.398 165.026 185.281 165.578 185.281C166.917 185.281 167.792 185.766 168.203 186.734H168.266C168.521 186.286 168.891 185.932 169.375 185.672C169.859 185.411 170.411 185.281 171.031 185.281C172 185.281 172.724 185.531 173.203 186.031C173.688 186.526 173.93 187.32 173.93 188.414V194H172.633ZM177.828 185.438V190.992C177.828 191.69 177.987 192.211 178.305 192.555C178.622 192.898 179.12 193.07 179.797 193.07C180.693 193.07 181.346 192.826 181.758 192.336C182.174 191.846 182.383 191.047 182.383 189.938V185.438H183.68V194H182.609L182.422 192.852H182.352C182.086 193.273 181.716 193.596 181.242 193.82C180.773 194.044 180.237 194.156 179.633 194.156C178.591 194.156 177.81 193.909 177.289 193.414C176.773 192.919 176.516 192.128 176.516 191.039V185.438H177.828ZM191.961 191.664C191.961 192.461 191.664 193.076 191.07 193.508C190.477 193.94 189.643 194.156 188.57 194.156C187.435 194.156 186.549 193.977 185.914 193.617V192.414C186.326 192.622 186.766 192.786 187.234 192.906C187.708 193.026 188.164 193.086 188.602 193.086C189.279 193.086 189.799 192.979 190.164 192.766C190.529 192.547 190.711 192.216 190.711 191.773C190.711 191.44 190.565 191.156 190.273 190.922C189.987 190.682 189.424 190.401 188.586 190.078C187.789 189.781 187.221 189.523 186.883 189.305C186.549 189.081 186.299 188.828 186.133 188.547C185.971 188.266 185.891 187.93 185.891 187.539C185.891 186.841 186.174 186.292 186.742 185.891C187.31 185.484 188.089 185.281 189.078 185.281C190 185.281 190.901 185.469 191.781 185.844L191.32 186.898C190.461 186.544 189.682 186.367 188.984 186.367C188.37 186.367 187.906 186.464 187.594 186.656C187.281 186.849 187.125 187.115 187.125 187.453C187.125 187.682 187.182 187.878 187.297 188.039C187.417 188.201 187.607 188.354 187.867 188.5C188.128 188.646 188.628 188.857 189.367 189.133C190.383 189.503 191.068 189.875 191.422 190.25C191.781 190.625 191.961 191.096 191.961 191.664ZM202.141 185.281C202.521 185.281 202.862 185.312 203.164 185.375L202.984 186.578C202.63 186.5 202.318 186.461 202.047 186.461C201.354 186.461 200.76 186.742 200.266 187.305C199.776 187.867 199.531 188.568 199.531 189.406V194H198.234V185.438H199.305L199.453 187.023H199.516C199.833 186.466 200.216 186.036 200.664 185.734C201.112 185.432 201.604 185.281 202.141 185.281ZM210.625 194V188.461C210.625 187.763 210.466 187.242 210.148 186.898C209.831 186.555 209.333 186.383 208.656 186.383C207.755 186.383 207.096 186.628 206.68 187.117C206.268 187.607 206.062 188.409 206.062 189.523V194H204.766V181.844H206.062V185.523C206.062 185.966 206.042 186.333 206 186.625H206.078C206.333 186.214 206.695 185.891 207.164 185.656C207.638 185.417 208.177 185.297 208.781 185.297C209.828 185.297 210.612 185.547 211.133 186.047C211.659 186.542 211.922 187.331 211.922 188.414V194H210.625ZM221.984 189.711C221.984 191.107 221.633 192.198 220.93 192.984C220.227 193.766 219.255 194.156 218.016 194.156C217.25 194.156 216.57 193.977 215.977 193.617C215.383 193.258 214.924 192.742 214.602 192.07C214.279 191.398 214.117 190.612 214.117 189.711C214.117 188.315 214.466 187.229 215.164 186.453C215.862 185.672 216.831 185.281 218.07 185.281C219.268 185.281 220.219 185.68 220.922 186.477C221.63 187.273 221.984 188.352 221.984 189.711ZM215.461 189.711C215.461 190.805 215.68 191.638 216.117 192.211C216.555 192.784 217.198 193.07 218.047 193.07C218.896 193.07 219.539 192.786 219.977 192.219C220.419 191.646 220.641 190.81 220.641 189.711C220.641 188.622 220.419 187.797 219.977 187.234C219.539 186.667 218.891 186.383 218.031 186.383C217.182 186.383 216.542 186.661 216.109 187.219C215.677 187.776 215.461 188.607 215.461 189.711ZM230.125 194V188.461C230.125 187.763 229.966 187.242 229.648 186.898C229.331 186.555 228.833 186.383 228.156 186.383C227.26 186.383 226.604 186.625 226.188 187.109C225.771 187.594 225.562 188.393 225.562 189.508V194H224.266V185.438H225.32L225.531 186.609H225.594C225.859 186.188 226.232 185.862 226.711 185.633C227.19 185.398 227.724 185.281 228.312 185.281C229.344 185.281 230.12 185.531 230.641 186.031C231.161 186.526 231.422 187.32 231.422 188.414V194H230.125ZM237.516 194.156C236.276 194.156 235.315 193.776 234.633 193.016C233.956 192.25 233.617 191.169 233.617 189.773C233.617 188.341 233.961 187.234 234.648 186.453C235.341 185.672 236.326 185.281 237.602 185.281C238.013 185.281 238.424 185.326 238.836 185.414C239.247 185.503 239.57 185.607 239.805 185.727L239.406 186.828C239.12 186.714 238.807 186.62 238.469 186.547C238.13 186.469 237.831 186.43 237.57 186.43C235.831 186.43 234.961 187.539 234.961 189.758C234.961 190.81 235.172 191.617 235.594 192.18C236.021 192.742 236.651 193.023 237.484 193.023C238.198 193.023 238.93 192.87 239.68 192.562V193.711C239.107 194.008 238.385 194.156 237.516 194.156ZM242.938 185.438V190.992C242.938 191.69 243.096 192.211 243.414 192.555C243.732 192.898 244.229 193.07 244.906 193.07C245.802 193.07 246.456 192.826 246.867 192.336C247.284 191.846 247.492 191.047 247.492 189.938V185.438H248.789V194H247.719L247.531 192.852H247.461C247.195 193.273 246.826 193.596 246.352 193.82C245.883 194.044 245.346 194.156 244.742 194.156C243.701 194.156 242.919 193.909 242.398 193.414C241.883 192.919 241.625 192.128 241.625 191.039V185.438H242.938ZM257.07 191.664C257.07 192.461 256.773 193.076 256.18 193.508C255.586 193.94 254.753 194.156 253.68 194.156C252.544 194.156 251.659 193.977 251.023 193.617V192.414C251.435 192.622 251.875 192.786 252.344 192.906C252.818 193.026 253.273 193.086 253.711 193.086C254.388 193.086 254.909 192.979 255.273 192.766C255.638 192.547 255.82 192.216 255.82 191.773C255.82 191.44 255.674 191.156 255.383 190.922C255.096 190.682 254.534 190.401 253.695 190.078C252.898 189.781 252.331 189.523 251.992 189.305C251.659 189.081 251.409 188.828 251.242 188.547C251.081 188.266 251 187.93 251 187.539C251 186.841 251.284 186.292 251.852 185.891C252.419 185.484 253.198 185.281 254.188 185.281C255.109 185.281 256.01 185.469 256.891 185.844L256.43 186.898C255.57 186.544 254.792 186.367 254.094 186.367C253.479 186.367 253.016 186.464 252.703 186.656C252.391 186.849 252.234 187.115 252.234 187.453C252.234 187.682 252.292 187.878 252.406 188.039C252.526 188.201 252.716 188.354 252.977 188.5C253.237 188.646 253.737 188.857 254.477 189.133C255.492 189.503 256.177 189.875 256.531 190.25C256.891 190.625 257.07 191.096 257.07 191.664ZM266.961 194.156C265.695 194.156 264.695 193.771 263.961 193C263.232 192.229 262.867 191.159 262.867 189.789C262.867 188.409 263.206 187.312 263.883 186.5C264.565 185.688 265.479 185.281 266.625 185.281C267.698 185.281 268.547 185.635 269.172 186.344C269.797 187.047 270.109 187.977 270.109 189.133V189.953H264.211C264.237 190.958 264.49 191.721 264.969 192.242C265.453 192.763 266.133 193.023 267.008 193.023C267.93 193.023 268.841 192.831 269.742 192.445V193.602C269.284 193.799 268.849 193.94 268.438 194.023C268.031 194.112 267.539 194.156 266.961 194.156ZM266.609 186.367C265.922 186.367 265.372 186.591 264.961 187.039C264.555 187.487 264.315 188.107 264.242 188.898H268.719C268.719 188.081 268.536 187.456 268.172 187.023C267.807 186.586 267.286 186.367 266.609 186.367ZM275.094 193.086C275.323 193.086 275.544 193.07 275.758 193.039C275.971 193.003 276.141 192.966 276.266 192.93V193.922C276.125 193.99 275.917 194.044 275.641 194.086C275.37 194.133 275.125 194.156 274.906 194.156C273.25 194.156 272.422 193.284 272.422 191.539V186.445H271.195V185.82L272.422 185.281L272.969 183.453H273.719V185.438H276.203V186.445H273.719V191.484C273.719 192 273.841 192.396 274.086 192.672C274.331 192.948 274.667 193.086 275.094 193.086ZM284.906 193.086C285.135 193.086 285.357 193.07 285.57 193.039C285.784 193.003 285.953 192.966 286.078 192.93V193.922C285.938 193.99 285.729 194.044 285.453 194.086C285.182 194.133 284.938 194.156 284.719 194.156C283.062 194.156 282.234 193.284 282.234 191.539V186.445H281.008V185.82L282.234 185.281L282.781 183.453H283.531V185.438H286.016V186.445H283.531V191.484C283.531 192 283.654 192.396 283.898 192.672C284.143 192.948 284.479 193.086 284.906 193.086ZM291.414 194.156C290.148 194.156 289.148 193.771 288.414 193C287.685 192.229 287.32 191.159 287.32 189.789C287.32 188.409 287.659 187.312 288.336 186.5C289.018 185.688 289.932 185.281 291.078 185.281C292.151 185.281 293 185.635 293.625 186.344C294.25 187.047 294.562 187.977 294.562 189.133V189.953H288.664C288.69 190.958 288.943 191.721 289.422 192.242C289.906 192.763 290.586 193.023 291.461 193.023C292.383 193.023 293.294 192.831 294.195 192.445V193.602C293.737 193.799 293.302 193.94 292.891 194.023C292.484 194.112 291.992 194.156 291.414 194.156ZM291.062 186.367C290.375 186.367 289.826 186.591 289.414 187.039C289.008 187.487 288.768 188.107 288.695 188.898H293.172C293.172 188.081 292.99 187.456 292.625 187.023C292.26 186.586 291.74 186.367 291.062 186.367ZM298.078 194H296.781V181.844H298.078V194ZM302.125 194H300.828V181.844H302.125V194ZM306.094 185.438V190.992C306.094 191.69 306.253 192.211 306.57 192.555C306.888 192.898 307.385 193.07 308.062 193.07C308.958 193.07 309.612 192.826 310.023 192.336C310.44 191.846 310.648 191.047 310.648 189.938V185.438H311.945V194H310.875L310.688 192.852H310.617C310.352 193.273 309.982 193.596 309.508 193.82C309.039 194.044 308.503 194.156 307.898 194.156C306.857 194.156 306.076 193.909 305.555 193.414C305.039 192.919 304.781 192.128 304.781 191.039V185.438H306.094ZM320.227 191.664C320.227 192.461 319.93 193.076 319.336 193.508C318.742 193.94 317.909 194.156 316.836 194.156C315.701 194.156 314.815 193.977 314.18 193.617V192.414C314.591 192.622 315.031 192.786 315.5 192.906C315.974 193.026 316.43 193.086 316.867 193.086C317.544 193.086 318.065 192.979 318.43 192.766C318.794 192.547 318.977 192.216 318.977 191.773C318.977 191.44 318.831 191.156 318.539 190.922C318.253 190.682 317.69 190.401 316.852 190.078C316.055 189.781 315.487 189.523 315.148 189.305C314.815 189.081 314.565 188.828 314.398 188.547C314.237 188.266 314.156 187.93 314.156 187.539C314.156 186.841 314.44 186.292 315.008 185.891C315.576 185.484 316.354 185.281 317.344 185.281C318.266 185.281 319.167 185.469 320.047 185.844L319.586 186.898C318.727 186.544 317.948 186.367 317.25 186.367C316.635 186.367 316.172 186.464 315.859 186.656C315.547 186.849 315.391 187.115 315.391 187.453C315.391 187.682 315.448 187.878 315.562 188.039C315.682 188.201 315.872 188.354 316.133 188.5C316.393 188.646 316.893 188.857 317.633 189.133C318.648 189.503 319.333 189.875 319.688 190.25C320.047 190.625 320.227 191.096 320.227 191.664ZM327.797 194H326.5V185.438H327.797V194ZM326.391 183.117C326.391 182.82 326.464 182.604 326.609 182.469C326.755 182.328 326.938 182.258 327.156 182.258C327.365 182.258 327.544 182.328 327.695 182.469C327.846 182.609 327.922 182.826 327.922 183.117C327.922 183.409 327.846 183.628 327.695 183.773C327.544 183.914 327.365 183.984 327.156 183.984C326.938 183.984 326.755 183.914 326.609 183.773C326.464 183.628 326.391 183.409 326.391 183.117ZM336.406 194V188.461C336.406 187.763 336.247 187.242 335.93 186.898C335.612 186.555 335.115 186.383 334.438 186.383C333.542 186.383 332.885 186.625 332.469 187.109C332.052 187.594 331.844 188.393 331.844 189.508V194H330.547V185.438H331.602L331.812 186.609H331.875C332.141 186.188 332.513 185.862 332.992 185.633C333.471 185.398 334.005 185.281 334.594 185.281C335.625 185.281 336.401 185.531 336.922 186.031C337.443 186.526 337.703 187.32 337.703 188.414V194H336.406ZM32.2891 216V210.43C32.2891 209.747 32.1432 209.237 31.8516 208.898C31.5599 208.555 31.1068 208.383 30.4922 208.383C29.6849 208.383 29.0885 208.615 28.7031 209.078C28.3177 209.542 28.125 210.255 28.125 211.219V216H26.8281V210.43C26.8281 209.747 26.6823 209.237 26.3906 208.898C26.099 208.555 25.6432 208.383 25.0234 208.383C24.2109 208.383 23.6146 208.628 23.2344 209.117C22.8594 209.602 22.6719 210.398 22.6719 211.508V216H21.375V207.438H22.4297L22.6406 208.609H22.7031C22.9479 208.193 23.2917 207.867 23.7344 207.633C24.1823 207.398 24.6823 207.281 25.2344 207.281C26.5729 207.281 27.4479 207.766 27.8594 208.734H27.9219C28.1771 208.286 28.5469 207.932 29.0312 207.672C29.5156 207.411 30.0677 207.281 30.6875 207.281C31.6562 207.281 32.3802 207.531 32.8594 208.031C33.3438 208.526 33.5859 209.32 33.5859 210.414V216H32.2891ZM43.6562 211.711C43.6562 213.107 43.3047 214.198 42.6016 214.984C41.8984 215.766 40.9271 216.156 39.6875 216.156C38.9219 216.156 38.2422 215.977 37.6484 215.617C37.0547 215.258 36.5964 214.742 36.2734 214.07C35.9505 213.398 35.7891 212.612 35.7891 211.711C35.7891 210.315 36.138 209.229 36.8359 208.453C37.5339 207.672 38.5026 207.281 39.7422 207.281C40.9401 207.281 41.8906 207.68 42.5938 208.477C43.3021 209.273 43.6562 210.352 43.6562 211.711ZM37.1328 211.711C37.1328 212.805 37.3516 213.638 37.7891 214.211C38.2266 214.784 38.8698 215.07 39.7188 215.07C40.5677 215.07 41.2109 214.786 41.6484 214.219C42.0911 213.646 42.3125 212.81 42.3125 211.711C42.3125 210.622 42.0911 209.797 41.6484 209.234C41.2109 208.667 40.5625 208.383 39.7031 208.383C38.8542 208.383 38.2135 208.661 37.7812 209.219C37.349 209.776 37.1328 210.607 37.1328 211.711ZM47.2344 216H45.9375V203.844H47.2344V216ZM53.6016 216.156C52.3359 216.156 51.3359 215.771 50.6016 215C49.8724 214.229 49.5078 213.159 49.5078 211.789C49.5078 210.409 49.8464 209.312 50.5234 208.5C51.2057 207.688 52.1198 207.281 53.2656 207.281C54.3385 207.281 55.1875 207.635 55.8125 208.344C56.4375 209.047 56.75 209.977 56.75 211.133V211.953H50.8516C50.8776 212.958 51.1302 213.721 51.6094 214.242C52.0938 214.763 52.7734 215.023 53.6484 215.023C54.5703 215.023 55.4818 214.831 56.3828 214.445V215.602C55.9245 215.799 55.4896 215.94 55.0781 216.023C54.6719 216.112 54.1797 216.156 53.6016 216.156ZM53.25 208.367C52.5625 208.367 52.013 208.591 51.6016 209.039C51.1953 209.487 50.9557 210.107 50.8828 210.898H55.3594C55.3594 210.081 55.1771 209.456 54.8125 209.023C54.4479 208.586 53.9271 208.367 53.25 208.367ZM64.4922 213.664C64.4922 214.461 64.1953 215.076 63.6016 215.508C63.0078 215.94 62.1745 216.156 61.1016 216.156C59.9661 216.156 59.0807 215.977 58.4453 215.617V214.414C58.8568 214.622 59.2969 214.786 59.7656 214.906C60.2396 215.026 60.6953 215.086 61.1328 215.086C61.8099 215.086 62.3307 214.979 62.6953 214.766C63.0599 214.547 63.2422 214.216 63.2422 213.773C63.2422 213.44 63.0964 213.156 62.8047 212.922C62.5182 212.682 61.9557 212.401 61.1172 212.078C60.3203 211.781 59.7526 211.523 59.4141 211.305C59.0807 211.081 58.8307 210.828 58.6641 210.547C58.5026 210.266 58.4219 209.93 58.4219 209.539C58.4219 208.841 58.7057 208.292 59.2734 207.891C59.8411 207.484 60.6198 207.281 61.6094 207.281C62.5312 207.281 63.4323 207.469 64.3125 207.844L63.8516 208.898C62.9922 208.544 62.2135 208.367 61.5156 208.367C60.901 208.367 60.4375 208.464 60.125 208.656C59.8125 208.849 59.6562 209.115 59.6562 209.453C59.6562 209.682 59.7135 209.878 59.8281 210.039C59.9479 210.201 60.138 210.354 60.3984 210.5C60.6589 210.646 61.1589 210.857 61.8984 211.133C62.9141 211.503 63.599 211.875 63.9531 212.25C64.3125 212.625 64.4922 213.096 64.4922 213.664ZM69.375 215.086C69.6042 215.086 69.8255 215.07 70.0391 215.039C70.2526 215.003 70.4219 214.966 70.5469 214.93V215.922C70.4062 215.99 70.1979 216.044 69.9219 216.086C69.651 216.133 69.4062 216.156 69.1875 216.156C67.5312 216.156 66.7031 215.284 66.7031 213.539V208.445H65.4766V207.82L66.7031 207.281L67.25 205.453H68V207.438H70.4844V208.445H68V213.484C68 214 68.1224 214.396 68.3672 214.672C68.612 214.948 68.9479 215.086 69.375 215.086ZM73.5625 216H72.2656V207.438H73.5625V216ZM72.1562 205.117C72.1562 204.82 72.2292 204.604 72.375 204.469C72.5208 204.328 72.7031 204.258 72.9219 204.258C73.1302 204.258 73.3099 204.328 73.4609 204.469C73.612 204.609 73.6875 204.826 73.6875 205.117C73.6875 205.409 73.612 205.628 73.4609 205.773C73.3099 205.914 73.1302 205.984 72.9219 205.984C72.7031 205.984 72.5208 205.914 72.375 205.773C72.2292 205.628 72.1562 205.409 72.1562 205.117ZM79.9297 216.156C78.6641 216.156 77.6641 215.771 76.9297 215C76.2005 214.229 75.8359 213.159 75.8359 211.789C75.8359 210.409 76.1745 209.312 76.8516 208.5C77.5339 207.688 78.4479 207.281 79.5938 207.281C80.6667 207.281 81.5156 207.635 82.1406 208.344C82.7656 209.047 83.0781 209.977 83.0781 211.133V211.953H77.1797C77.2057 212.958 77.4583 213.721 77.9375 214.242C78.4219 214.763 79.1016 215.023 79.9766 215.023C80.8984 215.023 81.8099 214.831 82.7109 214.445V215.602C82.2526 215.799 81.8177 215.94 81.4062 216.023C81 216.112 80.5078 216.156 79.9297 216.156ZM79.5781 208.367C78.8906 208.367 78.3411 208.591 77.9297 209.039C77.5234 209.487 77.2839 210.107 77.2109 210.898H81.6875C81.6875 210.081 81.5052 209.456 81.1406 209.023C80.776 208.586 80.2552 208.367 79.5781 208.367ZM85.1094 215.172C85.1094 214.823 85.1875 214.56 85.3438 214.383C85.5052 214.201 85.7344 214.109 86.0312 214.109C86.3333 214.109 86.5677 214.201 86.7344 214.383C86.9062 214.56 86.9922 214.823 86.9922 215.172C86.9922 215.51 86.9062 215.771 86.7344 215.953C86.5625 216.135 86.3281 216.227 86.0312 216.227C85.7656 216.227 85.5443 216.146 85.3672 215.984C85.1953 215.818 85.1094 215.547 85.1094 215.172Z" fill="#001028"/>
<path d="M34.752 127L33.3027 122.242H26.0156L24.5664 127H20L27.0547 106.93H32.2363L39.3184 127H34.752ZM32.291 118.688C30.9512 114.376 30.1947 111.938 30.0215 111.373C29.8574 110.808 29.7389 110.361 29.666 110.033C29.3652 111.2 28.5039 114.085 27.082 118.688H32.291ZM51.2266 127L50.4199 124.922H50.3105C49.6087 125.806 48.8841 126.421 48.1367 126.768C47.3984 127.105 46.4323 127.273 45.2383 127.273C43.7708 127.273 42.6133 126.854 41.7656 126.016C40.9271 125.177 40.5078 123.983 40.5078 122.434C40.5078 120.811 41.0729 119.617 42.2031 118.852C43.3424 118.077 45.056 117.648 47.3438 117.566L49.9961 117.484V116.814C49.9961 115.265 49.2031 114.49 47.6172 114.49C46.3958 114.49 44.9603 114.859 43.3105 115.598L41.9297 112.781C43.6888 111.861 45.6393 111.4 47.7812 111.4C49.832 111.4 51.4043 111.847 52.498 112.74C53.5918 113.633 54.1387 114.992 54.1387 116.814V127H51.2266ZM49.9961 119.918L48.3828 119.973C47.1706 120.009 46.2682 120.228 45.6758 120.629C45.0833 121.03 44.7871 121.641 44.7871 122.461C44.7871 123.637 45.4616 124.225 46.8105 124.225C47.7767 124.225 48.5469 123.947 49.1211 123.391C49.7044 122.835 49.9961 122.096 49.9961 121.176V119.918ZM72.5547 127H68.3848V118.072C68.3848 116.969 68.1888 116.145 67.7969 115.598C67.4049 115.042 66.7806 114.764 65.9238 114.764C64.7572 114.764 63.9141 115.156 63.3945 115.939C62.875 116.714 62.6152 118.004 62.6152 119.809V127H58.4453V111.715H61.6309L62.1914 113.67H62.4238C62.8887 112.932 63.5267 112.376 64.3379 112.002C65.1582 111.619 66.0879 111.428 67.127 111.428C68.9043 111.428 70.2533 111.911 71.1738 112.877C72.0944 113.834 72.5547 115.219 72.5547 117.033V127ZM90.5332 127H86.3633V118.072C86.3633 116.969 86.1764 116.145 85.8027 115.598C85.4382 115.042 84.8594 114.764 84.0664 114.764C83 114.764 82.2253 115.156 81.7422 115.939C81.2591 116.723 81.0176 118.013 81.0176 119.809V127H76.8477V111.715H80.0332L80.5938 113.67H80.8262C81.2363 112.968 81.8288 112.421 82.6035 112.029C83.3783 111.628 84.2669 111.428 85.2695 111.428C87.5573 111.428 89.1068 112.175 89.918 113.67H90.2871C90.6973 112.959 91.2988 112.408 92.0918 112.016C92.8939 111.624 93.7962 111.428 94.7988 111.428C96.5306 111.428 97.8385 111.874 98.7227 112.768C99.6159 113.652 100.062 115.074 100.062 117.033V127H95.8789V118.072C95.8789 116.969 95.6921 116.145 95.3184 115.598C94.9538 115.042 94.375 114.764 93.582 114.764C92.5612 114.764 91.7956 115.128 91.2852 115.857C90.7839 116.587 90.5332 117.744 90.5332 119.33V127ZM110.686 114.395C109.801 114.395 109.109 114.677 108.607 115.242C108.106 115.798 107.819 116.591 107.746 117.621H113.598C113.579 116.591 113.311 115.798 112.791 115.242C112.271 114.677 111.57 114.395 110.686 114.395ZM111.273 127.273C108.812 127.273 106.889 126.594 105.504 125.236C104.118 123.878 103.426 121.955 103.426 119.467C103.426 116.906 104.064 114.928 105.34 113.533C106.625 112.13 108.398 111.428 110.658 111.428C112.818 111.428 114.5 112.043 115.703 113.273C116.906 114.504 117.508 116.204 117.508 118.373V120.396H107.65C107.696 121.581 108.047 122.507 108.703 123.172C109.359 123.837 110.28 124.17 111.465 124.17C112.385 124.17 113.256 124.074 114.076 123.883C114.896 123.691 115.753 123.386 116.646 122.967V126.193C115.917 126.558 115.138 126.827 114.309 127C113.479 127.182 112.467 127.273 111.273 127.273ZM125.068 127H120.898V105.727H125.068V127ZM134.297 127.273C132.501 127.273 131.089 126.576 130.059 125.182C129.038 123.787 128.527 121.855 128.527 119.385C128.527 116.878 129.047 114.928 130.086 113.533C131.134 112.13 132.574 111.428 134.406 111.428C136.329 111.428 137.797 112.175 138.809 113.67H138.945C138.736 112.531 138.631 111.514 138.631 110.621V105.727H142.814V127H139.615L138.809 125.018H138.631C137.683 126.521 136.238 127.273 134.297 127.273ZM135.76 123.951C136.826 123.951 137.605 123.641 138.098 123.021C138.599 122.402 138.872 121.349 138.918 119.863V119.412C138.918 117.771 138.663 116.596 138.152 115.885C137.651 115.174 136.831 114.818 135.691 114.818C134.762 114.818 134.037 115.215 133.518 116.008C133.007 116.792 132.752 117.936 132.752 119.439C132.752 120.943 133.012 122.074 133.531 122.83C134.051 123.577 134.794 123.951 135.76 123.951ZM153.506 114.395C152.622 114.395 151.929 114.677 151.428 115.242C150.926 115.798 150.639 116.591 150.566 117.621H156.418C156.4 116.591 156.131 115.798 155.611 115.242C155.092 114.677 154.39 114.395 153.506 114.395ZM154.094 127.273C151.633 127.273 149.71 126.594 148.324 125.236C146.939 123.878 146.246 121.955 146.246 119.467C146.246 116.906 146.884 114.928 148.16 113.533C149.445 112.13 151.218 111.428 153.479 111.428C155.639 111.428 157.32 112.043 158.523 113.273C159.727 114.504 160.328 116.204 160.328 118.373V120.396H150.471C150.516 121.581 150.867 122.507 151.523 123.172C152.18 123.837 153.1 124.17 154.285 124.17C155.206 124.17 156.076 124.074 156.896 123.883C157.717 123.691 158.574 123.386 159.467 122.967V126.193C158.738 126.558 157.958 126.827 157.129 127C156.299 127.182 155.288 127.273 154.094 127.273ZM177.828 127H173.658V118.072C173.658 116.969 173.462 116.145 173.07 115.598C172.678 115.042 172.054 114.764 171.197 114.764C170.031 114.764 169.188 115.156 168.668 115.939C168.148 116.714 167.889 118.004 167.889 119.809V127H163.719V111.715H166.904L167.465 113.67H167.697C168.162 112.932 168.8 112.376 169.611 112.002C170.432 111.619 171.361 111.428 172.4 111.428C174.178 111.428 175.527 111.911 176.447 112.877C177.368 113.834 177.828 115.219 177.828 117.033V127Z" fill="#333332"/>
<rect x="20" y="261" width="335" height="144" fill="#E8EBEE"/>
<rect x="40.5" y="281.5" width="21" height="21" rx="10.5" fill="#0055CC" stroke="#0055CC"/>
<path d="M47.371 286.942L52.4855 291.944L47.4838 297.021L48.5744 298.073L54.6291 291.906L48.424 285.851L47.371 286.942Z" fill="white"/>
<path fill-rule="evenodd" clip-rule="evenodd" d="M331.324 297.989L317.653 284.209C315.143 281.678 310.285 280.372 306.871 281.298L288.195 286.343C284.765 287.27 281.22 290.843 280.301 294.3L275.296 313.142C274.377 316.6 275.673 321.496 278.184 324.011L291.855 337.791C294.366 340.322 299.223 341.628 302.637 340.702L321.313 335.657C324.743 334.73 328.288 331.157 329.207 327.7L334.213 308.858C335.132 305.4 333.835 300.504 331.324 297.989Z" fill="white"/>
<path fill-rule="evenodd" clip-rule="evenodd" d="M331.324 297.989L317.653 284.209C315.143 281.678 310.285 280.372 306.871 281.298L288.195 286.343C284.765 287.27 281.22 290.843 280.301 294.3L275.296 313.142C274.377 316.6 275.673 321.496 278.184 324.011L291.855 337.791C294.366 340.322 299.223 341.628 302.637 340.702L321.313 335.657C324.743 334.73 328.288 331.157 329.207 327.7L334.213 308.858C335.132 305.4 333.835 300.504 331.324 297.989ZM289.574 291.025C290.886 291.025 291.92 292.067 291.92 293.39C291.92 294.681 290.886 295.723 289.574 295.723C288.261 295.723 287.259 294.681 287.259 293.39C287.259 292.067 288.326 291.025 289.574 291.025ZM287.342 298.453C287.342 297.989 287.719 297.609 288.179 297.609H290.772C291.247 297.609 291.625 297.989 291.609 298.469L291.526 305.913C291.526 307.584 292.593 308.213 293.791 308.213C294.924 308.213 295.925 307.634 296.04 306.178L296.122 294.383C296.122 293.672 296.696 293.109 297.402 293.109H299.125C299.831 293.109 300.405 293.688 300.405 294.4L300.389 296.401C300.75 296.186 301.144 296.054 301.57 296.054C302.883 296.054 303.917 297.096 303.917 298.419C303.917 299.71 302.883 300.768 301.57 300.768C301.111 300.768 300.7 300.636 300.356 300.421L300.323 305.913C300.323 307.551 301.357 308.18 302.522 308.213C304.13 308.213 304.935 307.286 304.935 307.286C305.296 306.922 305.788 306.691 306.379 306.691C307.101 306.707 307.807 307.071 308.135 307.733C308.414 308.312 309.021 308.709 309.989 308.775C311.155 308.858 311.926 308.428 311.992 307.534C312.057 306.625 311.532 306.277 309.366 305.582C306.215 304.507 304.13 303.663 304.36 300.537C304.59 297.609 306.986 295.905 310.777 296.203C312.943 296.368 314.47 297.162 315.405 298.337C316.439 299.644 315.438 301.579 313.78 301.546C313.042 301.529 312.369 301.116 312.057 300.438C311.811 299.908 311.302 299.561 310.465 299.495C309.333 299.412 308.709 299.842 308.644 300.653C308.562 301.711 309.694 301.943 311.466 302.555C314.42 303.581 316.488 304.689 316.275 307.468C316.045 310.562 313.633 312.365 309.694 312.067C308.233 311.951 307.035 311.604 306.083 311.041C304.721 311.819 303.376 312.067 301.521 312.067C299.683 312.067 298.173 311.571 297.205 310.512C296.45 311.405 295.367 312.067 293.758 312.067C289.951 312.067 287.177 310.462 287.21 306.922L287.342 298.453ZM324.251 321C324.251 321.761 323.644 322.373 322.889 322.373H313.83C313.912 324.259 315.06 325.483 316.997 325.483C318.129 325.483 318.95 325.136 319.426 324.507C319.836 323.895 320.575 323.581 321.297 323.68C322.938 323.895 323.644 325.979 322.413 327.104C322.347 327.17 322.282 327.22 322.199 327.27V327.286C322.15 327.319 322.101 327.352 322.052 327.402C322.003 327.435 321.97 327.468 321.92 327.501C320.657 328.428 318.917 328.99 317.096 328.99C313.206 328.99 310.334 326.839 309.513 323.233V326.525C309.513 327.683 308.578 328.626 307.429 328.626C306.28 328.626 305.345 327.683 305.345 326.525V320.305C305.345 318.403 304.492 317.328 302.883 317.328C301.39 317.328 300.487 318.304 300.307 319.809V326.509C300.307 327.667 299.371 328.61 298.222 328.61C297.074 328.61 296.138 327.667 296.138 326.509V320.305C296.138 318.403 295.252 317.328 293.726 317.328C292.068 317.328 291.067 318.535 291.067 320.322V326.492C291.067 327.65 290.131 328.593 288.983 328.593C287.834 328.593 286.898 327.65 286.898 326.492V321.331V321.314V320.868C286.898 313.159 292.856 313.39 294.743 313.39C296.778 313.39 298.403 314.234 299.388 315.756C300.241 314.399 301.702 313.39 303.95 313.39C307.15 313.39 309.316 315.442 309.546 318.883C310.334 315.21 313.206 313.043 317.03 313.043C321.395 313.043 324.284 315.888 324.284 320.636V321H324.251ZM316.964 316.434C315.143 316.434 313.945 317.559 313.83 319.511H319.935C319.853 317.642 318.901 316.434 316.964 316.434Z" fill="#FF4612"/>
<path d="M73.1484 287.008C73.1484 286.232 73.5807 285.844 74.4453 285.844C75.3099 285.844 75.7422 286.232 75.7422 287.008C75.7422 287.378 75.6328 287.667 75.4141 287.875C75.2005 288.078 74.8776 288.18 74.4453 288.18C73.5807 288.18 73.1484 287.789 73.1484 287.008ZM75.6328 298H73.25V289.266H75.6328V298ZM81.8203 296.258C82.237 296.258 82.737 296.167 83.3203 295.984V297.758C82.7266 298.023 81.9974 298.156 81.1328 298.156C80.1797 298.156 79.4844 297.917 79.0469 297.438C78.6146 296.953 78.3984 296.229 78.3984 295.266V291.055H77.2578V290.047L78.5703 289.25L79.2578 287.406H80.7812V289.266H83.2266V291.055H80.7812V295.266C80.7812 295.604 80.875 295.854 81.0625 296.016C81.2552 296.177 81.5078 296.258 81.8203 296.258ZM91.1875 295.406C91.1875 296.302 90.875 296.984 90.25 297.453C89.6302 297.922 88.7005 298.156 87.4609 298.156C86.8255 298.156 86.2839 298.112 85.8359 298.023C85.388 297.94 84.9688 297.815 84.5781 297.648V295.68C85.0208 295.888 85.5182 296.062 86.0703 296.203C86.6276 296.344 87.1172 296.414 87.5391 296.414C88.4036 296.414 88.8359 296.164 88.8359 295.664C88.8359 295.477 88.7786 295.326 88.6641 295.211C88.5495 295.091 88.3516 294.958 88.0703 294.812C87.7891 294.661 87.4141 294.487 86.9453 294.289C86.2734 294.008 85.7786 293.747 85.4609 293.508C85.1484 293.268 84.9193 292.995 84.7734 292.688C84.6328 292.375 84.5625 291.992 84.5625 291.539C84.5625 290.763 84.862 290.164 85.4609 289.742C86.0651 289.315 86.9193 289.102 88.0234 289.102C89.0755 289.102 90.099 289.331 91.0938 289.789L90.375 291.508C89.9375 291.32 89.5286 291.167 89.1484 291.047C88.7682 290.927 88.3802 290.867 87.9844 290.867C87.2812 290.867 86.9297 291.057 86.9297 291.438C86.9297 291.651 87.0417 291.836 87.2656 291.992C87.4948 292.148 87.9922 292.38 88.7578 292.688C89.4401 292.964 89.9401 293.221 90.2578 293.461C90.5755 293.701 90.8099 293.977 90.9609 294.289C91.112 294.602 91.1875 294.974 91.1875 295.406ZM100.867 298H98.4844V292.898C98.4844 292.268 98.3776 291.797 98.1641 291.484C97.9557 291.167 97.625 291.008 97.1719 291.008C96.5625 291.008 96.1198 291.232 95.8438 291.68C95.5677 292.128 95.4297 292.865 95.4297 293.891V298H93.0469V289.266H94.8672L95.1875 290.383H95.3203C95.5547 289.982 95.8932 289.669 96.3359 289.445C96.7786 289.216 97.2865 289.102 97.8594 289.102C99.1667 289.102 100.052 289.529 100.516 290.383H100.727C100.961 289.977 101.305 289.661 101.758 289.438C102.216 289.214 102.732 289.102 103.305 289.102C104.294 289.102 105.042 289.357 105.547 289.867C106.057 290.372 106.312 291.185 106.312 292.305V298H103.922V292.898C103.922 292.268 103.815 291.797 103.602 291.484C103.393 291.167 103.062 291.008 102.609 291.008C102.026 291.008 101.589 291.216 101.297 291.633C101.01 292.049 100.867 292.711 100.867 293.617V298ZM112.383 290.797C111.878 290.797 111.482 290.958 111.195 291.281C110.909 291.599 110.745 292.052 110.703 292.641H114.047C114.036 292.052 113.883 291.599 113.586 291.281C113.289 290.958 112.888 290.797 112.383 290.797ZM112.719 298.156C111.312 298.156 110.214 297.768 109.422 296.992C108.63 296.216 108.234 295.117 108.234 293.695C108.234 292.232 108.599 291.102 109.328 290.305C110.062 289.503 111.076 289.102 112.367 289.102C113.602 289.102 114.562 289.453 115.25 290.156C115.938 290.859 116.281 291.831 116.281 293.07V294.227H110.648C110.674 294.904 110.875 295.432 111.25 295.812C111.625 296.193 112.151 296.383 112.828 296.383C113.354 296.383 113.852 296.328 114.32 296.219C114.789 296.109 115.279 295.935 115.789 295.695V297.539C115.372 297.747 114.927 297.901 114.453 298C113.979 298.104 113.401 298.156 112.719 298.156Z" fill="#0055CC"/>
<rect x="20" y="425" width="335" height="144" fill="#E8EBEE"/>
<rect x="40.5" y="445.5" width="21" height="21" rx="10.5" fill="#0055CC" stroke="#0055CC"/>
<path d="M47.371 450.942L52.4855 455.944L47.4838 461.021L48.5744 462.073L54.6291 455.906L48.424 449.851L47.371 450.942Z" fill="white"/>
<path fill-rule="evenodd" clip-rule="evenodd" d="M331.324 461.989L317.653 448.209C315.143 445.678 310.285 444.372 306.871 445.298L288.195 450.343C284.765 451.27 281.22 454.843 280.301 458.3L275.296 477.142C274.377 480.6 275.673 485.496 278.184 488.011L291.855 501.791C294.366 504.322 299.223 505.628 302.637 504.702L321.313 499.657C324.743 498.73 328.288 495.157 329.207 491.7L334.213 472.858C335.132 469.4 333.835 464.504 331.324 461.989Z" fill="white"/>
<path fill-rule="evenodd" clip-rule="evenodd" d="M331.324 461.989L317.653 448.209C315.143 445.678 310.285 444.372 306.871 445.298L288.195 450.343C284.765 451.27 281.22 454.843 280.301 458.3L275.296 477.142C274.377 480.6 275.673 485.496 278.184 488.011L291.855 501.791C294.366 504.322 299.223 505.628 302.637 504.702L321.313 499.657C324.743 498.73 328.288 495.157 329.207 491.7L334.213 472.858C335.132 469.4 333.835 464.504 331.324 461.989ZM289.574 455.025C290.886 455.025 291.92 456.067 291.92 457.39C291.92 458.681 290.886 459.723 289.574 459.723C288.261 459.723 287.259 458.681 287.259 457.39C287.259 456.067 288.326 455.025 289.574 455.025ZM287.342 462.453C287.342 461.989 287.719 461.609 288.179 461.609H290.772C291.247 461.609 291.625 461.989 291.609 462.469L291.526 469.913C291.526 471.584 292.593 472.213 293.791 472.213C294.924 472.213 295.925 471.634 296.04 470.178L296.122 458.383C296.122 457.672 296.696 457.109 297.402 457.109H299.125C299.831 457.109 300.405 457.688 300.405 458.4L300.389 460.401C300.75 460.186 301.144 460.054 301.57 460.054C302.883 460.054 303.917 461.096 303.917 462.419C303.917 463.71 302.883 464.768 301.57 464.768C301.111 464.768 300.7 464.636 300.356 464.421L300.323 469.913C300.323 471.551 301.357 472.18 302.522 472.213C304.13 472.213 304.935 471.286 304.935 471.286C305.296 470.922 305.788 470.691 306.379 470.691C307.101 470.707 307.807 471.071 308.135 471.733C308.414 472.312 309.021 472.709 309.989 472.775C311.155 472.858 311.926 472.428 311.992 471.534C312.057 470.625 311.532 470.277 309.366 469.582C306.215 468.507 304.13 467.663 304.36 464.537C304.59 461.609 306.986 459.905 310.777 460.203C312.943 460.368 314.47 461.162 315.405 462.337C316.439 463.644 315.438 465.579 313.78 465.546C313.042 465.529 312.369 465.116 312.057 464.438C311.811 463.908 311.302 463.561 310.465 463.495C309.333 463.412 308.709 463.842 308.644 464.653C308.562 465.711 309.694 465.943 311.466 466.555C314.42 467.581 316.488 468.689 316.275 471.468C316.045 474.562 313.633 476.365 309.694 476.067C308.233 475.951 307.035 475.604 306.083 475.041C304.721 475.819 303.376 476.067 301.521 476.067C299.683 476.067 298.173 475.571 297.205 474.512C296.45 475.405 295.367 476.067 293.758 476.067C289.951 476.067 287.177 474.462 287.21 470.922L287.342 462.453ZM324.251 485C324.251 485.761 323.644 486.373 322.889 486.373H313.83C313.912 488.259 315.06 489.483 316.997 489.483C318.129 489.483 318.95 489.136 319.426 488.507C319.836 487.895 320.575 487.581 321.297 487.68C322.938 487.895 323.644 489.979 322.413 491.104C322.347 491.17 322.282 491.22 322.199 491.27V491.286C322.15 491.319 322.101 491.352 322.052 491.402C322.003 491.435 321.97 491.468 321.92 491.501C320.657 492.428 318.917 492.99 317.096 492.99C313.206 492.99 310.334 490.839 309.513 487.233V490.525C309.513 491.683 308.578 492.626 307.429 492.626C306.28 492.626 305.345 491.683 305.345 490.525V484.305C305.345 482.403 304.492 481.328 302.883 481.328C301.39 481.328 300.487 482.304 300.307 483.809V490.509C300.307 491.667 299.371 492.61 298.222 492.61C297.074 492.61 296.138 491.667 296.138 490.509V484.305C296.138 482.403 295.252 481.328 293.726 481.328C292.068 481.328 291.067 482.535 291.067 484.322V490.492C291.067 491.65 290.131 492.593 288.983 492.593C287.834 492.593 286.898 491.65 286.898 490.492V485.331V485.314V484.868C286.898 477.159 292.856 477.39 294.743 477.39C296.778 477.39 298.403 478.234 299.388 479.756C300.241 478.399 301.702 477.39 303.95 477.39C307.15 477.39 309.316 479.442 309.546 482.883C310.334 479.21 313.206 477.043 317.03 477.043C321.395 477.043 324.284 479.888 324.284 484.636V485H324.251ZM316.964 480.434C315.143 480.434 313.945 481.559 313.83 483.511H319.935C319.853 481.642 318.901 480.434 316.964 480.434Z" fill="#FF4612"/>
<path d="M73.4375 462V450.578H75.8594V462H73.4375ZM81.3125 462.156C80.2865 462.156 79.4792 461.758 78.8906 460.961C78.3073 460.164 78.0156 459.06 78.0156 457.648C78.0156 456.216 78.3125 455.102 78.9062 454.305C79.5052 453.503 80.3281 453.102 81.375 453.102C82.474 453.102 83.3125 453.529 83.8906 454.383H83.9688C83.849 453.732 83.7891 453.151 83.7891 452.641V449.844H86.1797V462H84.3516L83.8906 460.867H83.7891C83.2474 461.727 82.4219 462.156 81.3125 462.156ZM82.1484 460.258C82.7578 460.258 83.2031 460.081 83.4844 459.727C83.7708 459.372 83.9271 458.771 83.9531 457.922V457.664C83.9531 456.727 83.8073 456.055 83.5156 455.648C83.2292 455.242 82.7604 455.039 82.1094 455.039C81.5781 455.039 81.1641 455.266 80.8672 455.719C80.5755 456.167 80.4297 456.82 80.4297 457.68C80.4297 458.539 80.5781 459.185 80.875 459.617C81.1719 460.044 81.5964 460.258 82.1484 460.258ZM92.2891 454.797C91.7839 454.797 91.388 454.958 91.1016 455.281C90.8151 455.599 90.651 456.052 90.6094 456.641H93.9531C93.9427 456.052 93.7891 455.599 93.4922 455.281C93.1953 454.958 92.7943 454.797 92.2891 454.797ZM92.625 462.156C91.2188 462.156 90.1198 461.768 89.3281 460.992C88.5365 460.216 88.1406 459.117 88.1406 457.695C88.1406 456.232 88.5052 455.102 89.2344 454.305C89.9688 453.503 90.9818 453.102 92.2734 453.102C93.5078 453.102 94.4688 453.453 95.1562 454.156C95.8438 454.859 96.1875 455.831 96.1875 457.07V458.227H90.5547C90.5807 458.904 90.7812 459.432 91.1562 459.812C91.5312 460.193 92.0573 460.383 92.7344 460.383C93.2604 460.383 93.7578 460.328 94.2266 460.219C94.6953 460.109 95.1849 459.935 95.6953 459.695V461.539C95.2786 461.747 94.8333 461.901 94.3594 462C93.8854 462.104 93.3073 462.156 92.625 462.156ZM106.188 462H103.805V456.898C103.805 456.268 103.693 455.797 103.469 455.484C103.245 455.167 102.888 455.008 102.398 455.008C101.732 455.008 101.25 455.232 100.953 455.68C100.656 456.122 100.508 456.859 100.508 457.891V462H98.125V453.266H99.9453L100.266 454.383H100.398C100.664 453.961 101.029 453.643 101.492 453.43C101.961 453.211 102.492 453.102 103.086 453.102C104.102 453.102 104.872 453.378 105.398 453.93C105.924 454.477 106.188 455.268 106.188 456.305V462ZM112.32 460.258C112.737 460.258 113.237 460.167 113.82 459.984V461.758C113.227 462.023 112.497 462.156 111.633 462.156C110.68 462.156 109.984 461.917 109.547 461.438C109.115 460.953 108.898 460.229 108.898 459.266V455.055H107.758V454.047L109.07 453.25L109.758 451.406H111.281V453.266H113.727V455.055H111.281V459.266C111.281 459.604 111.375 459.854 111.562 460.016C111.755 460.177 112.008 460.258 112.32 460.258ZM115.492 451.008C115.492 450.232 115.924 449.844 116.789 449.844C117.654 449.844 118.086 450.232 118.086 451.008C118.086 451.378 117.977 451.667 117.758 451.875C117.544 452.078 117.221 452.18 116.789 452.18C115.924 452.18 115.492 451.789 115.492 451.008ZM117.977 462H115.594V453.266H117.977V462ZM124.164 460.258C124.581 460.258 125.081 460.167 125.664 459.984V461.758C125.07 462.023 124.341 462.156 123.477 462.156C122.523 462.156 121.828 461.917 121.391 461.438C120.958 460.953 120.742 460.229 120.742 459.266V455.055H119.602V454.047L120.914 453.25L121.602 451.406H123.125V453.266H125.57V455.055H123.125V459.266C123.125 459.604 123.219 459.854 123.406 460.016C123.599 460.177 123.852 460.258 124.164 460.258ZM131.055 454.797C130.549 454.797 130.154 454.958 129.867 455.281C129.581 455.599 129.417 456.052 129.375 456.641H132.719C132.708 456.052 132.555 455.599 132.258 455.281C131.961 454.958 131.56 454.797 131.055 454.797ZM131.391 462.156C129.984 462.156 128.885 461.768 128.094 460.992C127.302 460.216 126.906 459.117 126.906 457.695C126.906 456.232 127.271 455.102 128 454.305C128.734 453.503 129.747 453.102 131.039 453.102C132.273 453.102 133.234 453.453 133.922 454.156C134.609 454.859 134.953 455.831 134.953 457.07V458.227H129.32C129.346 458.904 129.547 459.432 129.922 459.812C130.297 460.193 130.823 460.383 131.5 460.383C132.026 460.383 132.523 460.328 132.992 460.219C133.461 460.109 133.951 459.935 134.461 459.695V461.539C134.044 461.747 133.599 461.901 133.125 462C132.651 462.104 132.073 462.156 131.391 462.156ZM136.789 451.008C136.789 450.232 137.221 449.844 138.086 449.844C138.951 449.844 139.383 450.232 139.383 451.008C139.383 451.378 139.273 451.667 139.055 451.875C138.841 452.078 138.518 452.18 138.086 452.18C137.221 452.18 136.789 451.789 136.789 451.008ZM139.273 462H136.891V453.266H139.273V462ZM145.461 460.258C145.878 460.258 146.378 460.167 146.961 459.984V461.758C146.367 462.023 145.638 462.156 144.773 462.156C143.82 462.156 143.125 461.917 142.688 461.438C142.255 460.953 142.039 460.229 142.039 459.266V455.055H140.898V454.047L142.211 453.25L142.898 451.406H144.422V453.266H146.867V455.055H144.422V459.266C144.422 459.604 144.516 459.854 144.703 460.016C144.896 460.177 145.148 460.258 145.461 460.258ZM154.828 459.406C154.828 460.302 154.516 460.984 153.891 461.453C153.271 461.922 152.341 462.156 151.102 462.156C150.466 462.156 149.924 462.112 149.477 462.023C149.029 461.94 148.609 461.815 148.219 461.648V459.68C148.661 459.888 149.159 460.062 149.711 460.203C150.268 460.344 150.758 460.414 151.18 460.414C152.044 460.414 152.477 460.164 152.477 459.664C152.477 459.477 152.419 459.326 152.305 459.211C152.19 459.091 151.992 458.958 151.711 458.812C151.43 458.661 151.055 458.487 150.586 458.289C149.914 458.008 149.419 457.747 149.102 457.508C148.789 457.268 148.56 456.995 148.414 456.688C148.273 456.375 148.203 455.992 148.203 455.539C148.203 454.763 148.503 454.164 149.102 453.742C149.706 453.315 150.56 453.102 151.664 453.102C152.716 453.102 153.74 453.331 154.734 453.789L154.016 455.508C153.578 455.32 153.169 455.167 152.789 455.047C152.409 454.927 152.021 454.867 151.625 454.867C150.922 454.867 150.57 455.057 150.57 455.438C150.57 455.651 150.682 455.836 150.906 455.992C151.135 456.148 151.633 456.38 152.398 456.688C153.081 456.964 153.581 457.221 153.898 457.461C154.216 457.701 154.451 457.977 154.602 458.289C154.753 458.602 154.828 458.974 154.828 459.406ZM158.977 457.25L160.016 455.922L162.461 453.266H165.148L161.68 457.055L165.359 462H162.609L160.094 458.461L159.07 459.281V462H156.688V449.844H159.07V455.266L158.945 457.25H158.977ZM172.156 462L171.695 460.812H171.633C171.232 461.318 170.818 461.669 170.391 461.867C169.969 462.06 169.417 462.156 168.734 462.156C167.896 462.156 167.234 461.917 166.75 461.438C166.271 460.958 166.031 460.276 166.031 459.391C166.031 458.464 166.354 457.781 167 457.344C167.651 456.901 168.63 456.656 169.938 456.609L171.453 456.562V456.18C171.453 455.294 171 454.852 170.094 454.852C169.396 454.852 168.576 455.062 167.633 455.484L166.844 453.875C167.849 453.349 168.964 453.086 170.188 453.086C171.359 453.086 172.258 453.341 172.883 453.852C173.508 454.362 173.82 455.138 173.82 456.18V462H172.156ZM171.453 457.953L170.531 457.984C169.839 458.005 169.323 458.13 168.984 458.359C168.646 458.589 168.477 458.938 168.477 459.406C168.477 460.078 168.862 460.414 169.633 460.414C170.185 460.414 170.625 460.255 170.953 459.938C171.286 459.62 171.453 459.198 171.453 458.672V457.953ZM181.828 462L181.367 460.812H181.305C180.904 461.318 180.49 461.669 180.062 461.867C179.641 462.06 179.089 462.156 178.406 462.156C177.568 462.156 176.906 461.917 176.422 461.438C175.943 460.958 175.703 460.276 175.703 459.391C175.703 458.464 176.026 457.781 176.672 457.344C177.323 456.901 178.302 456.656 179.609 456.609L181.125 456.562V456.18C181.125 455.294 180.672 454.852 179.766 454.852C179.068 454.852 178.247 455.062 177.305 455.484L176.516 453.875C177.521 453.349 178.635 453.086 179.859 453.086C181.031 453.086 181.93 453.341 182.555 453.852C183.18 454.362 183.492 455.138 183.492 456.18V462H181.828ZM181.125 457.953L180.203 457.984C179.51 458.005 178.995 458.13 178.656 458.359C178.318 458.589 178.148 458.938 178.148 459.406C178.148 460.078 178.534 460.414 179.305 460.414C179.857 460.414 180.297 460.255 180.625 459.938C180.958 459.62 181.125 459.198 181.125 458.672V457.953ZM190.828 453.102C191.151 453.102 191.419 453.125 191.633 453.172L191.453 455.406C191.26 455.354 191.026 455.328 190.75 455.328C189.99 455.328 189.396 455.523 188.969 455.914C188.547 456.305 188.336 456.852 188.336 457.555V462H185.953V453.266H187.758L188.109 454.734H188.227C188.497 454.245 188.862 453.852 189.32 453.555C189.784 453.253 190.286 453.102 190.828 453.102ZM196.898 460.258C197.315 460.258 197.815 460.167 198.398 459.984V461.758C197.805 462.023 197.076 462.156 196.211 462.156C195.258 462.156 194.562 461.917 194.125 461.438C193.693 460.953 193.477 460.229 193.477 459.266V455.055H192.336V454.047L193.648 453.25L194.336 451.406H195.859V453.266H198.305V455.055H195.859V459.266C195.859 459.604 195.953 459.854 196.141 460.016C196.333 460.177 196.586 460.258 196.898 460.258Z" fill="#0055CC"/>
<rect x="20" y="589" width="335" height="144" fill="#E8EBEE"/>
<rect x="40.5" y="609.5" width="21" height="21" rx="10.5" fill="#0055CC" stroke="#0055CC"/>
<path d="M47.371 614.942L52.4855 619.944L47.4838 625.02L48.5744 626.073L54.6291 619.906L48.424 613.851L47.371 614.942Z" fill="white"/>
<path fill-rule="evenodd" clip-rule="evenodd" d="M331.324 625.989L317.653 612.209C315.143 609.678 310.285 608.372 306.871 609.298L288.195 614.343C284.765 615.27 281.22 618.843 280.301 622.3L275.296 641.142C274.377 644.6 275.673 649.496 278.184 652.011L291.855 665.791C294.366 668.322 299.223 669.628 302.637 668.702L321.313 663.657C324.743 662.73 328.288 659.157 329.207 655.7L334.213 636.858C335.132 633.4 333.835 628.504 331.324 625.989Z" fill="white"/>
<path fill-rule="evenodd" clip-rule="evenodd" d="M331.324 625.989L317.653 612.209C315.143 609.678 310.285 608.372 306.871 609.298L288.195 614.343C284.765 615.27 281.22 618.843 280.301 622.3L275.296 641.142C274.377 644.6 275.673 649.496 278.184 652.011L291.855 665.791C294.366 668.322 299.223 669.628 302.637 668.702L321.313 663.657C324.743 662.73 328.288 659.157 329.207 655.7L334.213 636.858C335.132 633.4 333.835 628.504 331.324 625.989ZM289.574 619.025C290.886 619.025 291.92 620.067 291.92 621.39C291.92 622.681 290.886 623.723 289.574 623.723C288.261 623.723 287.259 622.681 287.259 621.39C287.259 620.067 288.326 619.025 289.574 619.025ZM287.342 626.453C287.342 625.989 287.719 625.609 288.179 625.609H290.772C291.247 625.609 291.625 625.989 291.609 626.469L291.526 633.913C291.526 635.584 292.593 636.213 293.791 636.213C294.924 636.213 295.925 635.634 296.04 634.178L296.122 622.383C296.122 621.672 296.696 621.109 297.402 621.109H299.125C299.831 621.109 300.405 621.688 300.405 622.4L300.389 624.401C300.75 624.186 301.144 624.054 301.57 624.054C302.883 624.054 303.917 625.096 303.917 626.419C303.917 627.71 302.883 628.768 301.57 628.768C301.111 628.768 300.7 628.636 300.356 628.421L300.323 633.913C300.323 635.551 301.357 636.18 302.522 636.213C304.13 636.213 304.935 635.286 304.935 635.286C305.296 634.922 305.788 634.691 306.379 634.691C307.101 634.707 307.807 635.071 308.135 635.733C308.414 636.312 309.021 636.709 309.989 636.775C311.155 636.858 311.926 636.428 311.992 635.534C312.057 634.625 311.532 634.277 309.366 633.582C306.215 632.507 304.13 631.663 304.36 628.537C304.59 625.609 306.986 623.905 310.777 624.203C312.943 624.368 314.47 625.162 315.405 626.337C316.439 627.644 315.438 629.579 313.78 629.546C313.042 629.529 312.369 629.116 312.057 628.438C311.811 627.908 311.302 627.561 310.465 627.495C309.333 627.412 308.709 627.842 308.644 628.653C308.562 629.711 309.694 629.943 311.466 630.555C314.42 631.581 316.488 632.689 316.275 635.468C316.045 638.562 313.633 640.365 309.694 640.067C308.233 639.951 307.035 639.604 306.083 639.041C304.721 639.819 303.376 640.067 301.521 640.067C299.683 640.067 298.173 639.571 297.205 638.512C296.45 639.405 295.367 640.067 293.758 640.067C289.951 640.067 287.177 638.462 287.21 634.922L287.342 626.453ZM324.251 649C324.251 649.761 323.644 650.373 322.889 650.373H313.83C313.912 652.259 315.06 653.483 316.997 653.483C318.129 653.483 318.95 653.136 319.426 652.507C319.836 651.895 320.575 651.581 321.297 651.68C322.938 651.895 323.644 653.979 322.413 655.104C322.347 655.17 322.282 655.22 322.199 655.27V655.286C322.15 655.319 322.101 655.352 322.052 655.402C322.003 655.435 321.97 655.468 321.92 655.501C320.657 656.428 318.917 656.99 317.096 656.99C313.206 656.99 310.334 654.839 309.513 651.233V654.525C309.513 655.683 308.578 656.626 307.429 656.626C306.28 656.626 305.345 655.683 305.345 654.525V648.305C305.345 646.403 304.492 645.328 302.883 645.328C301.39 645.328 300.487 646.304 300.307 647.809V654.509C300.307 655.667 299.371 656.61 298.222 656.61C297.074 656.61 296.138 655.667 296.138 654.509V648.305C296.138 646.403 295.252 645.328 293.726 645.328C292.068 645.328 291.067 646.535 291.067 648.322V654.492C291.067 655.65 290.131 656.593 288.983 656.593C287.834 656.593 286.898 655.65 286.898 654.492V649.331V649.314V648.868C286.898 641.159 292.856 641.39 294.743 641.39C296.778 641.39 298.403 642.234 299.388 643.756C300.241 642.399 301.702 641.39 303.95 641.39C307.15 641.39 309.316 643.442 309.546 646.883C310.334 643.21 313.206 641.043 317.03 641.043C321.395 641.043 324.284 643.888 324.284 648.636V649H324.251ZM316.964 644.434C315.143 644.434 313.945 645.559 313.83 647.511H319.935C319.853 645.642 318.901 644.434 316.964 644.434Z" fill="#FF4612"/>
<path d="M73.1484 615.008C73.1484 614.232 73.5807 613.844 74.4453 613.844C75.3099 613.844 75.7422 614.232 75.7422 615.008C75.7422 615.378 75.6328 615.667 75.4141 615.875C75.2005 616.078 74.8776 616.18 74.4453 616.18C73.5807 616.18 73.1484 615.789 73.1484 615.008ZM75.6328 626H73.25V617.266H75.6328V626ZM81.8203 624.258C82.237 624.258 82.737 624.167 83.3203 623.984V625.758C82.7266 626.023 81.9974 626.156 81.1328 626.156C80.1797 626.156 79.4844 625.917 79.0469 625.438C78.6146 624.953 78.3984 624.229 78.3984 623.266V619.055H77.2578V618.047L78.5703 617.25L79.2578 615.406H80.7812V617.266H83.2266V619.055H80.7812V623.266C80.7812 623.604 80.875 623.854 81.0625 624.016C81.2552 624.177 81.5078 624.258 81.8203 624.258ZM91.1875 623.406C91.1875 624.302 90.875 624.984 90.25 625.453C89.6302 625.922 88.7005 626.156 87.4609 626.156C86.8255 626.156 86.2839 626.112 85.8359 626.023C85.388 625.94 84.9688 625.815 84.5781 625.648V623.68C85.0208 623.888 85.5182 624.062 86.0703 624.203C86.6276 624.344 87.1172 624.414 87.5391 624.414C88.4036 624.414 88.8359 624.164 88.8359 623.664C88.8359 623.477 88.7786 623.326 88.6641 623.211C88.5495 623.091 88.3516 622.958 88.0703 622.812C87.7891 622.661 87.4141 622.487 86.9453 622.289C86.2734 622.008 85.7786 621.747 85.4609 621.508C85.1484 621.268 84.9193 620.995 84.7734 620.688C84.6328 620.375 84.5625 619.992 84.5625 619.539C84.5625 618.763 84.862 618.164 85.4609 617.742C86.0651 617.315 86.9193 617.102 88.0234 617.102C89.0755 617.102 90.099 617.331 91.0938 617.789L90.375 619.508C89.9375 619.32 89.5286 619.167 89.1484 619.047C88.7682 618.927 88.3802 618.867 87.9844 618.867C87.2812 618.867 86.9297 619.057 86.9297 619.438C86.9297 619.651 87.0417 619.836 87.2656 619.992C87.4948 620.148 87.9922 620.38 88.7578 620.688C89.4401 620.964 89.9401 621.221 90.2578 621.461C90.5755 621.701 90.8099 621.977 90.9609 622.289C91.112 622.602 91.1875 622.974 91.1875 623.406ZM100.867 626H98.4844V620.898C98.4844 620.268 98.3776 619.797 98.1641 619.484C97.9557 619.167 97.625 619.008 97.1719 619.008C96.5625 619.008 96.1198 619.232 95.8438 619.68C95.5677 620.128 95.4297 620.865 95.4297 621.891V626H93.0469V617.266H94.8672L95.1875 618.383H95.3203C95.5547 617.982 95.8932 617.669 96.3359 617.445C96.7786 617.216 97.2865 617.102 97.8594 617.102C99.1667 617.102 100.052 617.529 100.516 618.383H100.727C100.961 617.977 101.305 617.661 101.758 617.438C102.216 617.214 102.732 617.102 103.305 617.102C104.294 617.102 105.042 617.357 105.547 617.867C106.057 618.372 106.312 619.185 106.312 620.305V626H103.922V620.898C103.922 620.268 103.815 619.797 103.602 619.484C103.393 619.167 103.062 619.008 102.609 619.008C102.026 619.008 101.589 619.216 101.297 619.633C101.01 620.049 100.867 620.711 100.867 621.617V626ZM112.383 618.797C111.878 618.797 111.482 618.958 111.195 619.281C110.909 619.599 110.745 620.052 110.703 620.641H114.047C114.036 620.052 113.883 619.599 113.586 619.281C113.289 618.958 112.888 618.797 112.383 618.797ZM112.719 626.156C111.312 626.156 110.214 625.768 109.422 624.992C108.63 624.216 108.234 623.117 108.234 621.695C108.234 620.232 108.599 619.102 109.328 618.305C110.062 617.503 111.076 617.102 112.367 617.102C113.602 617.102 114.562 617.453 115.25 618.156C115.938 618.859 116.281 619.831 116.281 621.07V622.227H110.648C110.674 622.904 110.875 623.432 111.25 623.812C111.625 624.193 112.151 624.383 112.828 624.383C113.354 624.383 113.852 624.328 114.32 624.219C114.789 624.109 115.279 623.935 115.789 623.695V625.539C115.372 625.747 114.927 625.901 114.453 626C113.979 626.104 113.401 626.156 112.719 626.156Z" fill="#0055CC"/>
<rect width="375" height="57" fill="white"/>
<path d="M80.9531 23.5781H83.3984L79.5156 35H76.875L73 23.5781H75.4453L77.5938 30.375C77.7135 30.776 77.8359 31.2448 77.9609 31.7812C78.0911 32.3125 78.1719 32.6823 78.2031 32.8906C78.2604 32.4115 78.4557 31.5729 78.7891 30.375L80.9531 23.5781ZM87.0391 35H84.6562V22.8438H87.0391V35ZM95.0938 35L94.6328 33.8125H94.5703C94.1693 34.3177 93.7552 34.6693 93.3281 34.8672C92.9062 35.0599 92.3542 35.1562 91.6719 35.1562C90.8333 35.1562 90.1719 34.9167 89.6875 34.4375C89.2083 33.9583 88.9688 33.276 88.9688 32.3906C88.9688 31.4635 89.2917 30.7812 89.9375 30.3438C90.5885 29.901 91.5677 29.6562 92.875 29.6094L94.3906 29.5625V29.1797C94.3906 28.2943 93.9375 27.8516 93.0312 27.8516C92.3333 27.8516 91.513 28.0625 90.5703 28.4844L89.7812 26.875C90.7865 26.349 91.901 26.0859 93.125 26.0859C94.2969 26.0859 95.1953 26.3411 95.8203 26.8516C96.4453 27.362 96.7578 28.138 96.7578 29.1797V35H95.0938ZM94.3906 30.9531L93.4688 30.9844C92.776 31.0052 92.2604 31.1302 91.9219 31.3594C91.5833 31.5885 91.4141 31.9375 91.4141 32.4062C91.4141 33.0781 91.7995 33.4141 92.5703 33.4141C93.1224 33.4141 93.5625 33.2552 93.8906 32.9375C94.224 32.6198 94.3906 32.1979 94.3906 31.6719V30.9531ZM104.766 35L104.305 33.8125H104.242C103.841 34.3177 103.427 34.6693 103 34.8672C102.578 35.0599 102.026 35.1562 101.344 35.1562C100.505 35.1562 99.8438 34.9167 99.3594 34.4375C98.8802 33.9583 98.6406 33.276 98.6406 32.3906C98.6406 31.4635 98.9635 30.7812 99.6094 30.3438C100.26 29.901 101.24 29.6562 102.547 29.6094L104.062 29.5625V29.1797C104.062 28.2943 103.609 27.8516 102.703 27.8516C102.005 27.8516 101.185 28.0625 100.242 28.4844L99.4531 26.875C100.458 26.349 101.573 26.0859 102.797 26.0859C103.969 26.0859 104.867 26.3411 105.492 26.8516C106.117 27.362 106.43 28.138 106.43 29.1797V35H104.766ZM104.062 30.9531L103.141 30.9844C102.448 31.0052 101.932 31.1302 101.594 31.3594C101.255 31.5885 101.086 31.9375 101.086 32.4062C101.086 33.0781 101.471 33.4141 102.242 33.4141C102.794 33.4141 103.234 33.2552 103.562 32.9375C103.896 32.6198 104.062 32.1979 104.062 31.6719V30.9531ZM116.953 35H114.57V29.8984C114.57 29.2682 114.458 28.7969 114.234 28.4844C114.01 28.1667 113.654 28.0078 113.164 28.0078C112.497 28.0078 112.016 28.2318 111.719 28.6797C111.422 29.1224 111.273 29.8594 111.273 30.8906V35H108.891V26.2656H110.711L111.031 27.3828H111.164C111.43 26.9609 111.794 26.6432 112.258 26.4297C112.727 26.2109 113.258 26.1016 113.852 26.1016C114.867 26.1016 115.638 26.3776 116.164 26.9297C116.69 27.4766 116.953 28.2682 116.953 29.3047V35ZM122.172 35.1562C121.146 35.1562 120.339 34.7578 119.75 33.9609C119.167 33.1641 118.875 32.0599 118.875 30.6484C118.875 29.2161 119.172 28.1016 119.766 27.3047C120.365 26.5026 121.188 26.1016 122.234 26.1016C123.333 26.1016 124.172 26.5286 124.75 27.3828H124.828C124.708 26.7318 124.648 26.151 124.648 25.6406V22.8438H127.039V35H125.211L124.75 33.8672H124.648C124.107 34.7266 123.281 35.1562 122.172 35.1562ZM123.008 33.2578C123.617 33.2578 124.062 33.0807 124.344 32.7266C124.63 32.3724 124.786 31.7708 124.812 30.9219V30.6641C124.812 29.7266 124.667 29.0547 124.375 28.6484C124.089 28.2422 123.62 28.0391 122.969 28.0391C122.438 28.0391 122.023 28.2656 121.727 28.7188C121.435 29.1667 121.289 29.8203 121.289 30.6797C121.289 31.5391 121.438 32.1849 121.734 32.6172C122.031 33.0443 122.456 33.2578 123.008 33.2578ZM133.148 27.7969C132.643 27.7969 132.247 27.9583 131.961 28.2812C131.674 28.599 131.51 29.0521 131.469 29.6406H134.812C134.802 29.0521 134.648 28.599 134.352 28.2812C134.055 27.9583 133.654 27.7969 133.148 27.7969ZM133.484 35.1562C132.078 35.1562 130.979 34.7682 130.188 33.9922C129.396 33.2161 129 32.1172 129 30.6953C129 29.2318 129.365 28.1016 130.094 27.3047C130.828 26.5026 131.841 26.1016 133.133 26.1016C134.367 26.1016 135.328 26.4531 136.016 27.1562C136.703 27.8594 137.047 28.8307 137.047 30.0703V31.2266H131.414C131.44 31.9036 131.641 32.4323 132.016 32.8125C132.391 33.1927 132.917 33.3828 133.594 33.3828C134.12 33.3828 134.617 33.3281 135.086 33.2188C135.555 33.1094 136.044 32.9349 136.555 32.6953V34.5391C136.138 34.7474 135.693 34.901 135.219 35C134.745 35.1042 134.167 35.1562 133.484 35.1562ZM143.859 26.1016C144.182 26.1016 144.451 26.125 144.664 26.1719L144.484 28.4062C144.292 28.3542 144.057 28.3281 143.781 28.3281C143.021 28.3281 142.427 28.5234 142 28.9141C141.578 29.3047 141.367 29.8516 141.367 30.5547V35H138.984V26.2656H140.789L141.141 27.7344H141.258C141.529 27.2448 141.893 26.8516 142.352 26.5547C142.815 26.2526 143.318 26.1016 143.859 26.1016ZM149.867 27.7969C149.362 27.7969 148.966 27.9583 148.68 28.2812C148.393 28.599 148.229 29.0521 148.188 29.6406H151.531C151.521 29.0521 151.367 28.599 151.07 28.2812C150.773 27.9583 150.372 27.7969 149.867 27.7969ZM150.203 35.1562C148.797 35.1562 147.698 34.7682 146.906 33.9922C146.115 33.2161 145.719 32.1172 145.719 30.6953C145.719 29.2318 146.083 28.1016 146.812 27.3047C147.547 26.5026 148.56 26.1016 149.852 26.1016C151.086 26.1016 152.047 26.4531 152.734 27.1562C153.422 27.8594 153.766 28.8307 153.766 30.0703V31.2266H148.133C148.159 31.9036 148.359 32.4323 148.734 32.8125C149.109 33.1927 149.635 33.3828 150.312 33.3828C150.839 33.3828 151.336 33.3281 151.805 33.2188C152.273 33.1094 152.763 32.9349 153.273 32.6953V34.5391C152.857 34.7474 152.411 34.901 151.938 35C151.464 35.1042 150.885 35.1562 150.203 35.1562ZM163.766 35H161.383V29.8984C161.383 29.2682 161.271 28.7969 161.047 28.4844C160.823 28.1667 160.466 28.0078 159.977 28.0078C159.31 28.0078 158.828 28.2318 158.531 28.6797C158.234 29.1224 158.086 29.8594 158.086 30.8906V35H155.703V26.2656H157.523L157.844 27.3828H157.977C158.242 26.9609 158.607 26.6432 159.07 26.4297C159.539 26.2109 160.07 26.1016 160.664 26.1016C161.68 26.1016 162.451 26.3776 162.977 26.9297C163.503 27.4766 163.766 28.2682 163.766 29.3047V35Z" fill="#333332"/>
<path d="M0 0H31.5L51 57H0V0Z" fill="#FFE615"/>
<path d="M31.5384 28.3825C30.1421 27.3167 29.4882 28.3907 28.6101 28.3194C27.867 28.2605 27.1706 27.061 26.5955 27.3475C25.4981 27.9061 27.0356 29.8808 27.7025 30.2832C28.2968 30.6396 29.0447 30.9672 29.2243 31.0508C30.1064 31.4628 30.4574 32.0865 30.5684 33.0612C30.5965 33.2846 30.5684 33.7946 30.5136 34.0317C30.1112 35.7398 27.1185 37.2916 25.4001 36.1174C24.5906 35.5636 23.8516 34.8474 23.596 33.5793C23.1333 31.3346 21.5128 29.6834 20.9933 27.4867C20.6773 26.1522 20.4435 24.7436 20.0953 23.4009C19.7409 22.0129 19.3763 20.638 19.0856 19.3768C18.8204 18.2041 18.2631 16.4521 17.8594 15.3843C16.2177 11.099 15.476 11.4102 15.476 11.4102C15.476 11.4102 16.0737 12.6001 18.2473 23.1027C18.3371 23.5325 19.1275 28.1591 19.7039 29.6821C19.9102 30.2283 20.2708 31.3949 20.5073 31.9097C21.1989 33.4148 23.0243 35.6959 23.1449 37.7522C23.2142 38.9407 23.3499 39.9249 23.378 40.8242C23.3951 41.0881 23.5116 42.1608 23.683 42.6371C24.1286 43.8914 27.7272 47.9381 31.548 47.9381V44.8716C27.7519 44.8716 24.1759 42.7441 24.0874 42.5206C24.0326 42.4198 24.2848 40.9688 24.5419 40.3238C25.0395 39.075 25.9772 37.9331 27.6264 37.8111C29.4655 37.6788 30.5753 38.2128 31.548 38.2128L31.5384 28.3825Z" fill="#363635"/>
<path d="M15.0523 17.2518C14.9132 19.5486 11.3586 22.6892 10.2448 24.7023C9.69918 25.6927 9.03296 27.3932 8.86092 28.3782C8.38798 31.1185 8.98772 32.8217 9.656 34.4256C10.8322 37.2447 9.49698 38.2811 10.4161 37.7095C11.5546 36.7814 11.3819 34.6182 11.2976 33.2673C11.2318 32.1713 11.1577 30.9245 11.3243 29.6181C11.6396 27.1739 13.1201 24.5494 14.3833 22.716C15.8837 20.5281 15.3388 18.2655 15.0523 17.2518Z" fill="#363635"/>
<path d="M15.7693 23.7746C15.7693 23.7746 16.1483 25.5937 14.5431 30.2724C10.3449 42.5098 18.3643 43.6689 20.6474 46.5463C20.6474 46.5463 21.5309 45.2995 17.8941 41.3104C16.5657 39.8525 15.3676 36.6406 16.4115 32.0531C17.9208 25.4107 15.7693 23.7746 15.7693 23.7746Z" fill="#363635"/>
<path d="M7.83 15.7518C7.63809 15.0287 7.57983 14.3824 7.62164 13.8052C7.81561 10.9299 10.4271 9.76608 11.0775 9.33769C11.0775 9.33769 12.2516 8.53369 12.4031 7.72147C12.4031 7.72147 13.6053 10.7476 10.8486 12.4817C9.44964 13.3625 8.49966 14.3947 7.83 15.7518Z" fill="#363635"/>
<path d="M14.4151 12.9727C14.5638 13.2647 15.6461 14.8487 11.2135 18.5068C6.78979 22.16 8.17159 24.7722 8.17159 24.7722C8.17159 24.7722 3.44907 22.1456 8.88854 17.6075C14.3266 13.0728 13.2122 12.1536 13.2122 12.1536C13.2122 12.1536 13.9908 12.1159 14.4151 12.9727Z" fill="#363635"/>
<path d="M22.5556 15.4479C22.62 15.2766 22.7126 15.4143 22.9065 15.2923C23.1128 15.097 23.3253 14.7769 23.6612 14.6693C23.9024 14.5953 24.2328 14.6302 24.4583 14.7173C24.6084 14.7543 24.5173 15.1402 24.4049 15.2389C24.1656 15.4157 23.4576 15.1244 23.4576 15.6549C23.4871 16.524 24.6331 15.6275 25.2322 15.6522C25.5248 17.7735 22.034 17.1896 22.5556 15.4479ZM20.1703 14.3732C20.936 14.4733 21.4233 16.8619 23.1944 17.3808C24.4967 17.7612 25.8812 17.5549 26.1883 18.3383C25.5906 18.6557 26.0615 19.7064 26.6626 19.5344C27.1589 18.1389 27.4084 12.7453 20.1703 14.3732Z" fill="#363635"/>
<line y1="56.5" x2="375" y2="56.5" stroke="#858597"/>
</svg>
